<svg width="203" height="174" viewBox="0 0 203 174" fill="none" xmlns="http://www.w3.org/2000/svg">
<path d="M39.6188 48.0894C39.0168 49.0955 37.757 49.5212 36.6734 49.7384C35.3961 50.0002 34.0784 50.0845 32.7813 50.1939C32.5643 50.2122 32.3491 50.2482 32.1376 50.3001L31.6406 50.422C31.4864 50.4696 31.3431 50.5471 31.2189 50.6502C31.0947 50.7533 30.9922 50.8798 30.9171 51.0227C30.8419 51.1655 30.7958 51.3218 30.7812 51.4825C30.7667 51.6432 30.784 51.8052 30.8322 51.9592C31.2697 53.4646 31.8498 54.9243 32.5644 56.3185C32.758 56.6962 32.6939 57.1577 32.3938 57.4578V57.4578C31.9814 57.8702 31.4218 57.7528 31.1518 57.2358C31.1471 57.2269 31.1425 57.2183 31.1378 57.2098C30.9837 56.9318 30.6168 56.8091 30.3419 56.6497C29.9662 56.4318 29.553 56.4319 29.1295 56.8932C28.41 57.6797 28.2222 59.0059 28.609 60.0494C28.9912 61.0806 29.688 62.1807 29.4713 63.259V63.259C29.3431 63.9061 28.9945 64.4888 28.4849 64.9079C28.1912 65.1493 27.8546 65.3278 27.4958 65.4359C27.0742 65.563 26.7271 65.1696 26.7841 64.733V64.733C26.8598 64.1525 26.2044 63.6711 25.6242 63.5935C24.1457 63.3957 22.8674 61.8301 22.9851 60.4856C23.084 59.2903 22.8131 58.4647 21.9295 57.5983V57.5983C21.7275 57.3963 22.1192 57.1283 22.0588 56.849C21.9199 56.2067 21.9333 55.5411 22.1359 55.1324C22.5659 54.2424 23.8322 53.7221 23.2496 52.7503C22.9938 52.3269 22.8073 51.8653 22.697 51.383C22.5801 50.7436 22.6015 50.0865 22.7598 49.4561C22.9182 48.8257 23.2098 48.2365 23.615 47.7282C24.475 46.6963 25.8724 46.9736 27.014 46.6081C28.405 46.1781 29.0478 44.6883 30.5033 44.2282C31.2278 43.9982 31.8985 44.1035 32.6231 44.2691C33.2358 44.411 33.842 44.57 34.444 44.7592C35.046 44.9484 35.5748 45.1054 36.1639 44.9291C36.9422 44.7141 37.542 43.9874 38.3912 43.981C38.5049 43.9783 38.6179 43.986 38.729 44.0034C39.3286 44.0975 39.7529 44.6242 39.9064 45.2115C40.1674 46.2107 40.0661 47.3483 39.6188 48.0894Z" fill="#2CA677"/>
<path d="M13.0117 77.1979C13.0117 77.1979 -10.394 51.3821 24.075 38.5C26.0738 37.767 28.157 37.2889 30.2753 37.0768C35.7769 36.4921 47.9387 34.4131 49.3405 27.3916" stroke="#8ED49A" stroke-width="0.883602" stroke-miterlimit="10"/>
<path d="M111.266 41.0592V41.0527" stroke="#8ED49A" stroke-width="0.883602" stroke-miterlimit="10"/>
<path d="M49.8525 87.5406V87.5342" stroke="black" stroke-width="0.883602" stroke-miterlimit="10"/>
<path d="M31.5525 58.0692C31.3234 57.6732 31.0508 57.304 30.7398 56.9685C30.269 56.4976 29.71 56.2676 29.1317 56.8975C28.4122 57.6841 28.2245 59.0103 28.6112 60.0537C28.9934 61.085 29.6902 62.1851 29.4736 63.2633V63.2633C29.3453 63.9105 28.9967 64.4932 28.4871 64.9122C27.9775 65.3313 27.3385 65.5607 26.6787 65.5616" stroke="black" stroke-width="0.883602" stroke-linecap="round" stroke-linejoin="round"/>
<path d="M25.6379 73.7523C25.7325 73.0342 25.9669 71.1488 26.1926 69.3515C26.4076 67.6853 26.5989 66.0815 26.6742 65.5526L26.9623 63.3662" stroke="black" stroke-width="0.883602" stroke-linecap="round" stroke-linejoin="round"/>
<path d="M38.9114 52.208C38.9114 52.208 36.166 52.3434 35.635 54.6159" stroke="black" stroke-width="0.883602" stroke-miterlimit="10"/>
<path d="M39.909 58.2125V58.2125C41.3502 58.1752 41.3522 56.6303 40.384 55.562L40.0896 55.2371C39.628 54.7255 39.355 54.0717 39.3156 53.3839C39.2403 52.2294 39.3758 50.3977 38.2708 49.1787" stroke="black" stroke-width="0.883602" stroke-miterlimit="10"/>
<path d="M38.2912 55.3223C38.6009 54.9796 38.6163 54.4888 38.3256 54.2261C38.035 53.9634 37.5482 54.0281 37.2385 54.3708C36.9288 54.7134 36.9134 55.2042 37.2041 55.4669C37.4947 55.7297 37.9814 55.6649 38.2912 55.3223Z" fill="black"/>
<path d="M38.1053 71.9244L36.6799 65.0146" stroke="black" stroke-width="0.883602" stroke-miterlimit="10"/>
<path d="M71.7586 101.374C72.8832 102.242 73.028 104.014 71.9282 104.913L68.0481 108.086C66.3449 109.478 65.9942 111.929 67.0785 113.844C73.9584 125.991 69.3665 129.597 68.0571 130.33C67.8504 130.445 67.6225 130.507 67.3895 130.55C65.8813 130.826 64.3598 131.024 62.8311 131.144C54.8422 131.72 46.6468 129.659 40.0617 125.041C26.7324 115.689 15.1231 96.9719 21.3147 80.6758C21.8357 79.2974 22.4722 77.9654 23.2174 76.6942C23.8595 75.5891 24.6771 74.5958 25.6381 73.7532C27.3202 72.2807 29.3916 71.3251 31.6036 71.0013C33.8155 70.6775 36.0739 70.9993 38.1075 71.9279C38.886 72.2832 39.6222 72.7245 40.3025 73.2436C43.7832 75.9073 46.9478 79.6933 49.676 83.6663C52.0984 87.2591 54.2782 91.0097 56.2009 94.893C56.4575 95.4053 56.7027 95.904 56.9355 96.3863C57.3361 97.2159 58.316 97.6059 59.1415 97.1968V97.1968C60.9015 96.3244 69.0491 98.99 70.4982 100.316C70.9243 100.706 71.3523 101.06 71.7586 101.374Z" fill="#1E4145"/>
<path d="M67.8103 108.518C67.634 108.653 67.4513 108.795 67.2686 108.93" stroke="black" stroke-width="0.883602" stroke-miterlimit="10"/>
<path d="M40.6506 79.9609C43.0872 84.6262 45.5237 89.3 47.9602 93.9825C49.7984 97.5169 52.905 99.699 57.28 98.0243C62.0398 96.2012 65.8795 92.7162 69.4311 89.1646C72.9827 85.613 76.5816 82.2162 81.7091 81.3003C88.3372 80.1157 94.6084 83.7275 99.1232 88.2917C99.4705 88.6398 99.6903 89.0949 99.7468 89.5834C99.8034 90.0719 99.6935 90.5651 99.4349 90.9834C99.269 91.2509 99.0474 91.4795 98.7851 91.6537C98.5229 91.8279 98.2262 91.9435 97.9153 91.9926C97.6044 92.0418 97.2865 92.0234 96.9833 91.9386C96.6802 91.8539 96.3988 91.7048 96.1585 91.5015C94.0193 89.6763 90.5387 87.0362 88.1179 87.0018" stroke="black" stroke-width="0.883602" stroke-miterlimit="10"/>
<path d="M81.5137 93.2646C82.2575 93.7613 83.2895 94.3116 84.1494 94.3116" stroke="black" stroke-width="0.883602" stroke-miterlimit="10"/>
<path d="M91.0462 87.9062C92.6328 88.691 93.2111 90.987 92.091 92.3586C90.6707 94.1209 88.8913 95.5604 86.8711 96.581C84.661 97.6839 83.2421 97.011 81.0664 95.6652" stroke="black" stroke-width="0.883602" stroke-miterlimit="10"/>
<path d="M87.374 89.9648C87.374 89.9648 90.5172 90.7431 90.4333 93.7938C90.4276 93.9239 90.4045 94.0526 90.3645 94.1765" stroke="black" stroke-width="0.883602" stroke-miterlimit="10"/>
<path d="M85.1533 91.8867C85.1533 91.8867 89.3692 94.6106 87.3634 96.3241" stroke="black" stroke-width="0.883602" stroke-miterlimit="10"/>
<path d="M166.593 102.563C163.577 110.852 157.266 114.249 152.417 115.639C149.57 116.455 146.919 114.105 146.303 111.207V111.207C146.04 109.967 146.001 107.811 146.45 106.625C146.819 105.649 147.006 104.608 146.995 103.553C146.977 101.84 146.438 100.173 145.45 98.7749C145.432 98.7503 145.434 98.7146 145.452 98.6904V98.6904C145.461 98.6789 145.474 98.6733 145.488 98.6724C146.176 98.6292 146.859 98.5253 147.528 98.362C149.927 97.7902 154.657 96.5346 158.411 94.7674C160.956 93.5656 163.925 95.4919 163.708 98.3018V98.3018C163.708 98.3578 163.752 98.4136 163.808 98.4156C164.266 98.4321 164.715 98.5504 165.123 98.7625C165.563 98.9921 165.942 99.3247 166.227 99.7322C166.511 100.14 166.693 100.61 166.757 101.103C166.821 101.595 166.765 102.096 166.593 102.563Z" fill="#2CA677"/>
<path d="M102.864 134.576C101.191 137.446 98.5879 139.891 96.0725 142.023C87.2172 149.518 75.6487 153.323 64.0393 153.472C52.3912 153.323 40.7797 149.505 31.8835 142.077C3.77377 118.605 8.85394 90.8906 13.4009 78.058C13.5611 77.6142 13.7779 77.1929 14.0459 76.8046C14.4014 76.2845 14.863 75.8455 15.4003 75.5164C15.7743 75.2874 16.1792 75.1152 16.6016 75.0046C16.9692 74.9084 17.3565 74.9119 17.7251 75.0045C19.877 75.545 21.6864 77.4473 21.334 80.2702V80.2702C21.334 80.5386 21.226 80.7989 21.1346 81.0513C15.2696 97.2572 26.806 115.756 40.0229 125.035C46.0663 129.277 53.4662 131.362 60.8188 131.227H60.9026C61.5332 131.214 62.1632 131.184 62.7924 131.139C66.9223 130.838 70.9361 129.849 74.9112 128.651C79.5765 127.256 84.1901 125.564 88.8511 124.379C90.4893 123.962 92.1318 123.56 93.7829 123.184C94.7357 122.988 95.7104 122.921 96.681 122.984C102.406 123.371 106.429 128.462 102.864 134.576Z" fill="#8ED49A"/>
<path d="M104.279 134.576C102.606 137.446 100.001 139.891 97.4851 142.023C88.2772 149.823 76.1282 153.633 64.033 153.472C52.3849 153.323 40.7734 149.505 31.8772 142.077C3.77388 118.605 8.85406 90.8906 13.4011 78.058C13.5612 77.6142 13.778 77.1929 14.046 76.8046C14.4015 76.2845 14.8631 75.8455 15.4004 75.5164C15.7745 75.2874 16.1793 75.1152 16.6017 75.0046C16.9693 74.9084 17.3566 74.9119 17.7252 75.0045C19.8771 75.545 21.6865 77.4473 21.3341 80.2702V80.2702C21.3341 80.5386 21.2261 80.7989 21.1347 81.0513C15.2697 97.2572 26.8061 115.756 40.0231 125.035C46.0664 129.277 53.4663 131.362 60.8189 131.227H60.9027C62.0106 131.244 63.1121 131.215 64.2071 131.139C68.337 130.838 72.3487 129.849 76.326 128.651C80.9912 127.256 85.6049 125.564 90.2658 124.379C91.9019 123.962 93.5466 123.56 95.1955 123.184C95.6856 123.084 96.1819 123.017 96.6811 122.984C103.118 122.552 108.131 127.968 104.279 134.576Z" fill="#8ED49A"/>
<path d="M65.9743 153.434L67.5792 155.704C68.3511 156.796 69.5832 157.467 70.9145 157.593C75.7802 158.052 87.9294 159.787 95.2923 165.967C97.0251 167.423 95.9889 170.25 93.7272 170.25C93.1601 170.252 92.6107 170.052 92.1771 169.687C89.9649 167.829 81.5137 161.99 62.3969 161.814C43.7703 161.64 36.6263 167.404 34.6505 169.504C34.4252 169.741 34.1537 169.93 33.8527 170.058C33.5517 170.186 33.2277 170.252 32.9005 170.25H32.5329C30.211 170.25 29.2285 167.318 31.0624 165.894C37.2761 161.062 49.6191 158.845 54.4305 158.138C55.6918 157.953 56.8231 157.259 57.5275 156.196L59.4086 153.358" fill="#1E4145"/>
<path d="M141.738 131.235C141.738 131.235 146.982 136.217 145.346 151.659C145.227 152.762 144.843 153.819 144.228 154.742L143.658 155.602C142.724 157.001 141.315 158.015 139.692 158.457C136.267 159.392 130.054 161.559 126.216 165.666C124.595 167.405 125.801 170.239 128.179 170.239C128.622 170.24 129.059 170.131 129.45 169.923C129.842 169.714 130.175 169.412 130.421 169.043C131.984 166.691 136.716 161.697 148.13 161.802C161.003 161.921 166.189 167.04 167.851 169.245C168.08 169.553 168.379 169.803 168.721 169.975C169.064 170.148 169.443 170.238 169.827 170.239C170.308 170.238 170.778 170.096 171.18 169.832C171.582 169.567 171.898 169.192 172.09 168.75C172.281 168.309 172.34 167.821 172.258 167.347C172.176 166.873 171.958 166.433 171.63 166.081C166.61 160.626 160.47 158.593 157.082 157.838C155.38 157.471 153.876 156.481 152.866 155.063C152.093 153.968 151.653 152.673 151.6 151.335C151.411 146.547 151.312 134.925 154.556 131.24" fill="#1E4145"/>
<path d="M74.9543 128.658C84.1752 124.182 94.1829 121.245 104.023 118.481C113.925 115.699 123.924 113.272 133.954 110.991C137.961 110.081 142.005 109.271 145.993 108.245" stroke="black" stroke-width="0.883602" stroke-miterlimit="10"/>
<path d="M83.6055 94.249H83.6116H83.6156" stroke="black" stroke-width="0.883602" stroke-miterlimit="10"/>
<path d="M82.5715 93.6666C81.9932 94.2385 79.9293 97.2935 79.4112 97.8417C76.5648 100.892 73.5411 103.772 70.3558 106.467C69.5539 107.134 68.7047 107.821 67.8104 108.518C67.6341 108.653 67.4514 108.795 67.2686 108.931C61.2059 113.532 53.2944 117.96 45.9848 115.122C45.7913 115.052 45.6021 114.97 45.415 114.886C34.2034 109.866 26.3671 97.2935 25.6834 85.1574C25.6598 84.7618 25.6469 84.3684 25.6426 83.9793C25.5824 80.662 26.0726 77.3447 29.2544 75.5947" stroke="black" stroke-width="0.883602" stroke-miterlimit="10"/>
<path d="M21.332 80.6274L21.3771 80.2749C22.0909 74.5519 13.9643 72.6213 12.0359 78.0583C7.49102 90.8888 2.40869 118.597 30.5249 142.073C48.672 157.232 78.0523 157.337 96.1307 142.024C98.6461 139.893 101.25 137.445 102.924 134.574C107.162 127.316 100.691 121.497 93.3917 123.283" stroke="black" stroke-width="0.883602" stroke-miterlimit="10"/>
<path d="M65.9743 153.434L67.5792 155.704C68.3511 156.796 69.5832 157.467 70.9145 157.593C75.7802 158.052 87.9294 159.787 95.2923 165.967C97.0251 167.423 95.9889 170.25 93.7272 170.25C93.1601 170.252 92.6107 170.052 92.1771 169.687C89.9649 167.829 81.5137 161.99 62.3969 161.814C43.7703 161.64 36.6263 167.404 34.6505 169.504C34.4252 169.741 34.1537 169.93 33.8527 170.058C33.5517 170.186 33.2277 170.252 32.9005 170.25H32.5329C30.211 170.25 29.2285 167.318 31.0624 165.894C37.2761 161.062 49.6191 158.845 54.4305 158.138C55.6918 157.953 56.8231 157.259 57.5275 156.196L59.4086 153.358" stroke="black" stroke-width="0.883602" stroke-miterlimit="10"/>
<path d="M56.4158 94.5478C63.5921 92.6129 66.5482 82.4891 67.7392 75.6826" stroke="black" stroke-width="0.883602" stroke-miterlimit="10"/>
<path d="M49.6694 83.6718C51.663 83.4108 53.5563 82.6429 55.1684 81.4415C56.7805 80.24 58.0575 78.6452 58.8774 76.8094C59.0489 76.4442 59.1324 76.044 59.1212 75.6407C59.11 75.2375 59.0044 74.8425 58.8129 74.4875C58.0303 73.0385 56.8629 71.3594 57.1403 69.6223C57.3402 68.3969 58.3485 67.5348 59.5051 67.2574C60.0915 67.1038 60.7087 67.1142 61.2896 67.2875C61.6376 67.3862 61.9594 67.561 62.2316 67.7994C62.5037 68.0377 62.7195 68.3336 62.8633 68.6656C63.1449 69.3256 62.8095 69.9792 62.2914 70.4091C61.7733 70.8391 61.167 70.9918 60.5349 71.1638C60.4532 71.1874 60.2297 71.2347 59.9824 71.282" stroke="black" stroke-width="0.883602" stroke-miterlimit="10"/>
<path d="M145.984 108.24C145.984 108.24 160.131 105.277 162.788 101.01C163.286 100.231 163.596 99.3483 163.695 98.4297" stroke="black" stroke-width="0.883602" stroke-miterlimit="10"/>
<path d="M76.3752 100.952C101.049 98.3318 128.899 98.7188 128.899 98.7188H144.529C145.539 98.7201 146.545 98.6018 147.528 98.3662C149.927 97.7943 154.657 96.5409 158.41 94.7716C160.956 93.5698 163.925 95.4961 163.708 98.3081V98.3081C163.708 98.3641 163.752 98.42 163.808 98.422C164.265 98.4389 164.713 98.5572 165.119 98.7689C165.559 98.9979 165.937 99.3297 166.222 99.736C166.506 100.142 166.688 100.611 166.753 101.103C166.817 101.595 166.763 102.095 166.593 102.561C161.321 117.049 145.984 116.595 145.984 116.595C144.023 116.653 142.067 116.73 140.104 116.832C122.813 117.672 105.674 120.099 88.8961 124.384C84.2352 125.569 79.6215 127.258 74.9563 128.656C70.979 129.858 66.9609 130.84 62.8309 131.141C54.842 131.719 46.6466 129.656 40.0615 125.038C25.638 114.916 13.2245 93.8127 23.2172 76.6825C26.7452 70.637 34.7341 68.9816 40.3023 73.2426C48.1558 79.2516 54.4292 90.9577 57.6476 97.8631" stroke="black" stroke-width="0.883602" stroke-miterlimit="10"/>
<path d="M166.266 131.235H131.928" stroke="black" stroke-width="0.883602" stroke-miterlimit="10"/>
<path d="M124.997 124.301C125.002 122.463 125.734 120.702 127.034 119.402C128.333 118.102 130.095 117.369 131.933 117.363H166.275C168.113 117.368 169.875 118.101 171.175 119.401C172.475 120.701 173.207 122.463 173.213 124.301" stroke="black" stroke-width="0.883602" stroke-miterlimit="10"/>
<path d="M173.888 126.76C173.889 127.348 173.775 127.931 173.55 128.475C173.326 129.019 172.996 129.513 172.58 129.929C172.163 130.345 171.669 130.675 171.125 130.899C170.581 131.123 169.998 131.238 169.409 131.236H128.777C127.76 131.139 126.821 130.648 126.162 129.867C125.504 129.086 125.178 128.077 125.255 127.058C125.332 126.04 125.806 125.092 126.575 124.419C127.344 123.746 128.346 123.401 129.366 123.459H169.999C170.72 123.458 171.431 123.632 172.07 123.965C172.519 124.2 172.924 124.508 173.267 124.876C173.558 125.187 173.751 125.579 173.823 125.998C173.866 126.249 173.888 126.504 173.888 126.76Z" fill="#8ED49A"/>
<path d="M173.888 126.76C173.889 127.348 173.775 127.931 173.55 128.475C173.326 129.019 172.996 129.513 172.58 129.929C172.163 130.345 171.669 130.675 171.125 130.899C170.581 131.123 169.998 131.238 169.409 131.236H128.777C128.18 131.249 127.588 131.143 127.033 130.923C126.478 130.704 125.973 130.377 125.547 129.96C125.12 129.543 124.782 129.045 124.551 128.495C124.319 127.945 124.2 127.355 124.2 126.758C124.2 126.162 124.319 125.572 124.551 125.022C124.782 124.472 125.12 123.974 125.547 123.557C125.973 123.14 126.478 122.813 127.033 122.594C127.588 122.374 128.18 122.268 128.777 122.281H169.409C170.355 122.281 171.277 122.58 172.043 123.136C172.808 123.692 173.378 124.475 173.67 125.375C173.814 125.822 173.887 126.29 173.888 126.76Z" stroke="black" stroke-width="0.883602" stroke-miterlimit="10"/>
<path d="M67.6622 75.5239L67.5805 76.214C67.5432 76.5272 67.3924 76.8159 67.1567 77.0254C66.921 77.235 66.6167 77.3509 66.3013 77.3513H61.836C61.5206 77.3509 61.2163 77.235 60.9806 77.0254C60.7449 76.8159 60.5941 76.5272 60.5568 76.214L60.0461 71.8307C60.0092 71.5142 60.2272 71.2396 60.5332 71.1511V71.1511C61.1652 70.9791 61.778 70.8329 62.2896 70.3965C62.8013 69.96 63.1496 69.3215 62.8615 68.6529C62.7177 68.3209 62.502 68.025 62.2298 67.7867C61.9576 67.5483 61.6358 67.3735 61.2878 67.2748C61.0884 67.2153 60.8847 67.175 60.6795 67.154C60.0568 67.0901 59.4394 66.6884 59.3679 66.0666V66.0666C59.348 65.8866 59.3662 65.7044 59.4214 65.5318C59.4765 65.3593 59.5674 65.2004 59.6881 65.0653C59.8088 64.9302 59.9565 64.8221 60.1218 64.7479C60.287 64.6737 60.466 64.6352 60.6471 64.6348H67.4988C67.6797 64.6355 67.8585 64.6742 68.0235 64.7486C68.1885 64.8229 68.336 64.9311 68.4564 65.0661C68.5768 65.2011 68.6675 65.36 68.7225 65.5324C68.7776 65.7047 68.7957 65.8867 68.7758 66.0666L68.6167 67.4103" stroke="black" stroke-width="0.883602" stroke-miterlimit="10"/>
<path d="M68.2574 70.4814L68.251 70.5285" stroke="black" stroke-width="0.883602" stroke-miterlimit="10"/>
<path d="M67.9221 73.3214V73.3027" stroke="black" stroke-width="0.883602" stroke-miterlimit="10"/>
<path d="M67.9865 73.3225V73.3225C67.9483 73.3161 67.9088 73.3187 67.8702 73.3206C67.8623 73.321 67.8545 73.3216 67.8467 73.3225C67.5681 73.3234 67.3 73.429 67.0955 73.6183C66.891 73.8075 66.7651 74.0667 66.7426 74.3444C66.7202 74.6222 66.8029 74.8982 66.9743 75.1178C67.1457 75.3375 67.3934 75.4847 67.6683 75.5304C67.7868 75.5541 67.9088 75.5541 68.0273 75.5304C68.4406 75.4644 68.8261 75.2887 69.145 75.0246C69.336 74.8665 69.4792 74.66 69.5975 74.4421C69.9757 73.7456 70.2433 72.9936 70.39 72.2131V72.2131C70.3958 72.1954 70.3919 72.1756 70.3955 72.1573C70.5225 71.5011 70.5705 70.832 70.5384 70.1643M70.5384 70.1643C70.5384 69.8741 70.5018 69.586 70.4674 69.3043C70.4018 68.8331 70.1865 68.3955 69.8532 68.056C69.5251 67.7219 69.1 67.5003 68.6386 67.4225C68.6238 67.42 68.6098 67.4192 68.5948 67.4186V67.4186C68.5587 67.417 68.5229 67.4036 68.487 67.3999C67.5884 67.308 66.3672 67.6562 66.1376 68.6551C65.9226 69.5752 66.9201 70.3642 67.7392 70.4352C67.7392 70.4352 67.9542 70.4631 68.2573 70.4825C68.8636 70.5233 69.8719 70.5169 70.5384 70.1643ZM70.5384 70.1643C70.6364 70.1135 70.7287 70.0522 70.8135 69.9816" stroke="black" stroke-width="0.883602" stroke-miterlimit="10"/>
<path d="M68.9283 70.5312H68.78H67.6341H67.1288C66.7873 70.5324 66.4591 70.6643 66.2116 70.8997C65.9642 71.1352 65.8162 71.4564 65.7981 71.7975C65.7814 72.129 65.8882 72.4549 66.0979 72.7122C66.3076 72.9696 66.6052 73.14 66.9332 73.1907C68.4166 73.4293 70.1107 73.4787 70.401 72.1501" stroke="black" stroke-width="0.883602" stroke-miterlimit="10"/>
<path d="M141.738 131.235C141.738 131.235 146.982 136.217 145.346 151.659C145.227 152.762 144.843 153.819 144.228 154.742L143.658 155.602C142.724 157.001 141.315 158.015 139.692 158.457C136.267 159.392 130.054 161.559 126.216 165.666C124.595 167.405 125.801 170.239 128.179 170.239C128.622 170.24 129.059 170.131 129.45 169.923C129.842 169.714 130.175 169.412 130.421 169.043C131.984 166.691 136.716 161.697 148.13 161.802C161.003 161.921 166.189 167.04 167.851 169.245C168.08 169.553 168.379 169.803 168.721 169.975C169.064 170.148 169.443 170.238 169.827 170.239C170.308 170.238 170.778 170.096 171.18 169.832C171.582 169.567 171.898 169.192 172.09 168.75C172.281 168.309 172.34 167.821 172.258 167.347C172.176 166.873 171.958 166.433 171.63 166.081C166.61 160.626 160.47 158.593 157.082 157.838C155.38 157.471 153.876 156.481 152.866 155.063C152.093 153.968 151.653 152.673 151.6 151.335C151.411 146.547 151.312 134.925 154.556 131.24" stroke="black" stroke-width="0.883602" stroke-miterlimit="10"/>
<path d="M130.49 95.1449C130.679 95.1516 130.838 95.3008 130.838 95.49V95.49C130.838 97.8743 128.916 98.2849 127.257 98.3257L95.1353 99.0739C93.7271 99.1083 92.5425 97.8786 92.5125 96.3392V96.2747C92.5125 94.7698 93.6218 93.5121 95.0106 93.4799C95.0106 93.4799 110.772 93.0349 124.202 92.6641C125.797 92.62 127.266 93.7407 128.615 94.5914V94.5914C129.185 94.9321 129.831 95.1216 130.49 95.1449Z" stroke="black" stroke-width="0.883602" stroke-miterlimit="10"/>
<path d="M147.906 61.1446C147.91 61.1494 147.913 61.1556 147.913 61.1619C147.913 61.5508 147.823 61.9344 147.65 62.2829L133.285 91.732C133.116 92.0739 132.875 92.3748 132.578 92.6135C132.281 92.8523 131.935 93.0233 131.565 93.1144C130.972 93.2663 130.344 93.2023 129.793 92.9338C129.352 92.7165 128.981 92.3796 128.722 91.9614C128.463 91.5432 128.327 91.0607 128.329 90.5689C128.33 90.4481 128.339 90.3275 128.355 90.2077C128.393 89.9411 128.473 89.6822 128.592 89.4402L142.955 59.9868C143.214 59.4583 143.645 59.0332 144.177 58.7808C144.709 58.5284 145.311 58.4637 145.884 58.5971C146.458 58.7305 146.969 59.0542 147.335 59.5154C147.699 59.974 147.898 60.5418 147.9 61.1271C147.9 61.1335 147.902 61.1397 147.906 61.1446V61.1446Z" stroke="black" stroke-width="0.883602" stroke-miterlimit="10"/>
<path d="M31.6127 58.2454C31.5955 58.1852 31.5719 58.1271 31.5525 58.0691C31.5332 58.011 31.5052 57.9444 31.488 57.8799" stroke="black" stroke-width="0.883602" stroke-linecap="round" stroke-linejoin="round"/>
<path d="M31.6125 58.2476L32.0533 57.8047L32.896 56.9512" stroke="black" stroke-width="0.883602" stroke-linecap="round" stroke-linejoin="round"/>
<path d="M36.5723 59.4121C36.5723 59.4121 37.1377 61.0998 39.2983 61.2137" stroke="black" stroke-width="0.883602" stroke-miterlimit="10"/>
<path d="M26.9626 63.3664C25.0277 64.3446 22.8327 62.2291 22.9853 60.4856C23.0842 59.2902 22.8133 58.4647 21.9297 57.5983C21.8717 57.5402 21.8179 57.48 21.7663 57.422C21.4299 57.0559 21.2112 56.5973 21.1384 56.1056C21.0655 55.6138 21.142 55.1115 21.3578 54.6637C21.7599 53.7285 22.6263 53.1802 22.0243 52.172C21.7602 51.7359 21.5671 51.2605 21.4524 50.7638C21.3324 50.105 21.3549 49.4281 21.5184 48.7788C21.682 48.1294 21.9827 47.5227 22.4005 46.9993C23.2863 45.9244 24.7289 46.2211 25.9134 45.8448C27.3388 45.3912 28.0053 43.8584 29.5016 43.3875C30.2498 43.1532 30.9442 43.2585 31.6923 43.4284C32.3222 43.5767 32.9543 43.7423 33.567 43.9358C34.1797 44.1292 34.7387 44.2948 35.3514 44.112C36.1533 43.8777 36.7704 43.1403 37.6432 43.1338C38.5161 43.1274 39.1868 43.6412 39.5781 44.3593C40.1973 45.4858 40.2016 47.124 39.619 48.0958C39.017 49.1019 37.7572 49.5276 36.6736 49.7447C35.3962 50.0066 34.0786 50.0909 32.7815 50.2003C32.5645 50.2186 32.3493 50.2545 32.1378 50.3064L31.6407 50.4284C31.3308 50.5245 31.0716 50.7396 30.92 51.0266C30.7685 51.3136 30.737 51.6489 30.8324 51.9591C31.3365 53.694 32.0301 55.3681 32.9006 56.9511" stroke="black" stroke-width="0.883602" stroke-miterlimit="10"/>
<path d="M32.8962 63.6134C32.8962 63.6134 37.1616 66.7372 39.5931 65.0151C42.0246 63.293 40.6509 58.2451 40.6509 58.2451" stroke="black" stroke-width="0.883602" stroke-linecap="round" stroke-linejoin="round"/>
<path d="M63.0351 62.4776C63.0351 62.4776 61.2228 61.2522 62.3751 60.001C63.5275 58.7497 61.9925 57.0986 61.9925 57.0986" stroke="black" stroke-width="0.883602" stroke-miterlimit="10"/>
<path d="M64.708 62.6915C64.708 62.6915 65.9076 61.881 65.138 61.0511C64.3683 60.2213 65.3938 59.1162 65.3938 59.1162" stroke="black" stroke-width="0.883602" stroke-miterlimit="10"/>
<path d="M72.9743 51.013C86.0256 51.013 96.6058 40.4328 96.6058 27.3815C96.6058 14.3302 86.0256 3.75 72.9743 3.75C59.923 3.75 49.3428 14.3302 49.3428 27.3815C49.3428 40.4328 59.923 51.013 72.9743 51.013Z" stroke="#8ED49A" stroke-width="0.883602" stroke-miterlimit="10"/>
<path d="M72.9742 40.361C80.1422 40.361 85.9531 34.5502 85.9531 27.3822C85.9531 20.2141 80.1422 14.4033 72.9742 14.4033C65.8062 14.4033 59.9954 20.2141 59.9954 27.3822C59.9954 34.5502 65.8062 40.361 72.9742 40.361Z" stroke="#8ED49A" stroke-width="0.883602" stroke-miterlimit="10"/>
<path d="M72.9741 29.6065C74.2031 29.6065 75.1993 28.6103 75.1993 27.3814C75.1993 26.1525 74.2031 25.1562 72.9741 25.1562C71.7452 25.1562 70.749 26.1525 70.749 27.3814C70.749 28.6103 71.7452 29.6065 72.9741 29.6065Z" stroke="#8ED49A" stroke-width="0.883602" stroke-miterlimit="10"/>
<path d="M77.5815 19.9512L74.146 25.4893" stroke="#8ED49A" stroke-width="0.883602" stroke-miterlimit="10"/>
<path d="M72.9744 14.4033V16.7123" stroke="#8ED49A" stroke-width="0.883602" stroke-miterlimit="10"/>
<path d="M85.953 27.3818H83.7644" stroke="#8ED49A" stroke-width="0.883602" stroke-miterlimit="10"/>
<path d="M72.9744 40.3626V38.1182" stroke="#8ED49A" stroke-width="0.883602" stroke-miterlimit="10"/>
<path d="M59.9934 27.3818H61.967" stroke="#8ED49A" stroke-width="0.883602" stroke-miterlimit="10"/>
<path d="M95.6233 66.672C100.48 66.672 104.416 62.7352 104.416 57.879C104.416 53.0227 100.48 49.0859 95.6233 49.0859C90.7671 49.0859 86.8303 53.0227 86.8303 57.879C86.8303 62.7352 90.7671 66.672 95.6233 66.672Z" fill="#2CA677"/>
<path d="M98.5149 54.9423C98.3909 54.6565 98.2242 54.3912 98.0205 54.1554C97.672 53.7433 97.1854 53.4723 96.6515 53.3931C96.1177 53.314 95.5733 53.4321 95.1203 53.7255C94.8248 53.9182 94.5779 54.1766 94.3989 54.4806V54.4806C94.1311 54.9352 93.576 55.2939 93.0516 55.353C92.9156 55.3684 92.7806 55.396 92.6482 55.436C92.1764 55.5788 91.7638 55.871 91.4726 56.2687C91.1814 56.6665 91.0274 57.1481 91.0339 57.641C91.0404 58.1339 91.2069 58.6113 91.5085 59.0013C92.1384 59.8225 93.209 60.3621 94.1786 60.676C94.6871 60.8389 95.2108 60.9498 95.7416 61.0071C96.0103 61.0372 97.5432 61.2436 97.6765 61.0071C98.6332 59.5108 99.3125 56.7697 98.5149 54.9423Z" fill="white"/>
<g opacity="0.72">
<path d="M117.539 54.2397C120.213 54.2397 122.381 52.0721 122.381 49.3982C122.381 46.7243 120.213 44.5566 117.539 44.5566C114.865 44.5566 112.698 46.7243 112.698 49.3982C112.698 52.0721 114.865 54.2397 117.539 54.2397Z" fill="#2CA677"/>
<path d="M119.64 50.2549C119.759 50.1329 119.86 49.9929 119.936 49.84C120.074 49.5764 120.111 49.2715 120.041 48.9825C119.97 48.6935 119.796 48.4404 119.551 48.2706C119.392 48.1603 119.209 48.0885 119.017 48.0609V48.0609C118.729 48.0196 118.431 47.8123 118.291 47.5578C118.255 47.4916 118.212 47.4284 118.164 47.3692C117.993 47.1587 117.757 47.0097 117.494 46.9446C117.23 46.8796 116.953 46.902 116.703 47.0086C116.453 47.1151 116.245 47.3 116.109 47.5353C115.846 48.0678 115.744 48.6655 115.815 49.2552C115.839 49.5465 115.892 49.8346 115.974 50.1152C116.015 50.2592 116.23 51.0826 116.376 51.1084C117.337 51.2697 118.876 51.0439 119.64 50.2549Z" fill="white"/>
</g>
<path d="M110.601 72.2625L108.3 77.1291C107.465 78.8937 108.219 81.0007 109.984 81.8352L114.851 84.1367C116.615 84.9712 118.722 84.2172 119.557 82.4526L121.858 77.586C122.693 75.8214 121.939 73.7144 120.174 72.8799L115.307 70.5784C113.543 69.7439 111.436 70.4979 110.601 72.2625Z" fill="#2CA677"/>
<path d="M120.285 77.3563C120.619 78.0082 120.38 78.7837 120.067 79.446L118.879 81.9597C118.529 82.6936 117.903 83.2594 117.138 83.5337C116.373 83.808 115.53 83.7685 114.794 83.4238L110.567 81.4244C109.834 81.0744 109.268 80.4485 108.994 79.6833C108.721 78.9181 108.76 78.0756 109.105 77.3396V77.3396C109.179 77.184 109.286 77.0467 109.423 76.9425C110.589 76.0549 112.391 75.0499 113.074 76.6323C114.117 79.0574 115.473 78.2748 117.206 77.2601C118.369 76.5725 119.719 76.2528 120.285 77.3563Z" fill="white"/>
<path d="M113.998 74.6912C114.717 74.6912 115.299 74.1089 115.299 73.3905C115.299 72.6722 114.717 72.0898 113.998 72.0898C113.28 72.0898 112.698 72.6722 112.698 73.3905C112.698 74.1089 113.28 74.6912 113.998 74.6912Z" fill="white"/>
<path d="M136.19 56.2992C136.448 56.7706 136.636 57.2778 136.746 57.8041C136.943 58.7668 136.887 59.7642 136.582 60.6985C136.278 61.6328 135.736 62.4719 135.009 63.1336C134.433 63.6432 133.7 64.0409 133.117 64.5741C132.692 64.9408 132.379 65.4199 132.215 65.9564C132.184 66.1397 132.111 66.313 132 66.4617C131.66 66.8271 131.327 66.2467 131.032 66.1478C130.557 65.9932 130.042 66.0185 129.585 66.2187C128.383 66.7215 127.044 66.7929 125.795 66.4209C124.545 66.0489 123.464 65.2564 122.732 64.1778C122.001 63.0991 121.665 61.8007 121.781 60.5027C121.898 59.2047 122.46 57.9869 123.372 57.0559C124.273 56.1379 125.451 55.551 126.597 54.9533C127.599 54.4223 128.596 53.8569 129.684 53.5387C132.234 52.7755 134.956 54.0461 136.19 56.2992Z" fill="#2CA677"/>
<path d="M125.922 62.9411C126.599 62.9411 127.147 62.3925 127.147 61.7157C127.147 61.0389 126.599 60.4902 125.922 60.4902C125.245 60.4902 124.696 61.0389 124.696 61.7157C124.696 62.3925 125.245 62.9411 125.922 62.9411Z" fill="white"/>
<path d="M129.222 61.1755C129.898 61.1755 130.447 60.6268 130.447 59.95C130.447 59.2733 129.898 58.7246 129.222 58.7246C128.545 58.7246 127.996 59.2733 127.996 59.95C127.996 60.6268 128.545 61.1755 129.222 61.1755Z" fill="white"/>
<path d="M132.317 59.5202C132.994 59.5202 133.543 58.9716 133.543 58.2948C133.543 57.618 132.994 57.0693 132.317 57.0693C131.641 57.0693 131.092 57.618 131.092 58.2948C131.092 58.9716 131.641 59.5202 132.317 59.5202Z" fill="white"/>
<path d="M94.9548 18.6943C94.9548 18.6943 103.023 43.6502 134.083 42.3022C144.402 41.0123 156.684 42.3022 167.621 56.7064C184.246 78.618 177.571 103.028 170.016 118.522" stroke="#8ED49A" stroke-width="0.883602" stroke-miterlimit="10"/>
<g opacity="0.54">
<path d="M139.851 28.496C139.82 28.8724 139.762 29.2461 139.677 29.6139L138.709 33.8105C138.412 35.1004 138.079 36.4505 137.159 37.3922C135.439 39.1465 132.58 38.7445 130.189 38.2134L124.32 36.9106C122.972 36.6118 121.603 36.3044 120.394 35.6357C119.186 34.9671 118.137 33.8728 117.857 32.5206C117.642 31.523 117.872 30.4911 118.092 29.4978L118.978 25.4689C119.272 24.1489 119.603 22.7558 120.556 21.7948C122.252 20.0856 125.07 20.4748 127.414 20.9843L133.425 22.2914C137.049 23.074 140.139 24.7552 139.851 28.496Z" fill="#2CA677"/>
<path d="M131.756 28.6079C132.008 28.8416 132.193 29.1375 132.294 29.4656C132.395 29.7938 132.407 30.1427 132.33 30.4772C132.253 30.8117 132.09 31.1201 131.856 31.3713C131.622 31.6225 131.326 31.8076 130.997 31.908L129.209 32.4562L127.42 33.0044C127.092 33.1048 126.743 33.1171 126.408 33.0399C126.074 32.9628 125.765 32.7991 125.514 32.5651C125.263 32.3311 125.078 32.0352 124.977 31.707C124.877 31.3789 124.864 31.03 124.941 30.6955L125.371 28.8724L125.79 27.0514C125.867 26.7167 126.03 26.4081 126.264 26.1567C126.498 25.9052 126.794 25.7198 127.122 25.6191C127.45 25.5184 127.799 25.506 128.134 25.5831C128.468 25.6601 128.777 25.824 129.028 26.0582L130.397 27.333L131.756 28.6079Z" fill="white"/>
</g>
<path d="M13.0916 170.239H198.738" stroke="black" stroke-width="1.1625" stroke-miterlimit="10"/>
</svg>
