<svg width="203" height="174" viewBox="0 0 203 174" fill="none" xmlns="http://www.w3.org/2000/svg">
<g clip-path="url(#clip0_103_508)">
<path d="M158.878 39.1083C158.087 36.9354 157.208 34.7776 156.244 32.68C154.324 28.5055 153.883 24.5495 151.187 21.0586" stroke="#8ED49A" stroke-width="1.27305" stroke-miterlimit="10"/>
<path d="M144.936 17.0591C142.615 14.7206 140.444 12.2069 136.501 10.3296C128.167 6.37545 117.51 5.97439 103.908 11.5667" stroke="#8ED49A" stroke-width="1.27305" stroke-miterlimit="10"/>
<path d="M46.7216 170.313C33.5412 151.855 29.2782 130.986 31.481 109.644" stroke="#8ED49A" stroke-width="1.27305" stroke-miterlimit="10"/>
<path d="M166.294 79.4443V79.6722C166.165 83.8146 170.029 100.987 180.987 106.442C191.946 111.896 199.759 135.84 175.052 145.234C150.345 154.627 151.69 170.312 151.69 170.312" stroke="#8ED49A" stroke-width="1.27305" stroke-miterlimit="10"/>
<path d="M103.906 29.2956V9.009C103.903 7.61529 103.342 6.27967 102.347 5.29417C101.353 4.30867 100.005 3.75348 98.5978 3.75H30.7856C29.3788 3.75348 28.0307 4.30867 27.0359 5.29417C26.0412 6.27967 25.4808 7.61529 25.4773 9.009V104.398C25.4798 105.791 26.0402 107.126 27.0355 108.11C28.0308 109.094 29.3796 109.646 30.7856 109.645H98.5978C99.2557 109.65 99.9079 109.525 100.517 109.28" stroke="black" stroke-width="1.27305" stroke-linecap="round" stroke-linejoin="round"/>
<path d="M96.7825 6.96484H32.6003C29.9814 6.96484 27.8584 9.06816 27.8584 11.6627V101.744C27.8584 104.338 29.9814 106.441 32.6003 106.441H96.7825C99.4014 106.441 101.524 104.338 101.524 101.744V11.6627C101.524 9.06816 99.4014 6.96484 96.7825 6.96484Z" fill="#2CA677"/>
<path d="M95.6213 14.6611H34.5675C33.2575 14.6611 32.1956 15.7132 32.1956 17.011V30.9371C32.1956 32.2349 33.2575 33.287 34.5675 33.287H95.6213C96.9313 33.287 97.9932 32.2349 97.9932 30.9371V17.011C97.9932 15.7132 96.9313 14.6611 95.6213 14.6611Z" fill="#2CA677"/>
<path d="M64.6918 22.5058C65.7656 22.5058 66.6361 21.6434 66.6361 20.5795C66.6361 19.5157 65.7656 18.6533 64.6918 18.6533C63.618 18.6533 62.7476 19.5157 62.7476 20.5795C62.7476 21.6434 63.618 22.5058 64.6918 22.5058Z" fill="#8ED49A"/>
<path d="M59.2583 29.2954C59.2583 27.8676 59.8308 26.4984 60.8498 25.4888C61.8688 24.4793 63.2509 23.9121 64.692 23.9121C66.1331 23.9121 67.5152 24.4793 68.5342 25.4888C69.5533 26.4984 70.1257 27.8676 70.1257 29.2954H59.2583Z" fill="#8ED49A"/>
<path d="M65.0868 53.2451C63.014 53.244 60.9874 53.852 59.2635 54.9922C57.5395 56.1324 56.1957 57.7536 55.4019 59.6506C54.6082 61.5476 54.4002 63.6353 54.8043 65.6494C55.2084 67.6636 56.2065 69.5137 57.6722 70.9658C59.1379 72.4179 61.0054 73.4067 63.0384 73.807C65.0714 74.2074 67.1786 74.0013 69.0934 73.2149C71.0082 72.4286 72.6446 71.0972 73.7955 69.3893C74.9464 67.6813 75.5601 65.6736 75.5589 63.62C75.5574 60.8689 74.4536 58.2309 72.49 56.2855C70.5265 54.3402 67.8637 53.2466 65.0868 53.2451ZM65.0868 71.4925C64.6813 71.4925 64.2924 71.3329 64.0056 71.0488C63.7189 70.7647 63.5578 70.3794 63.5578 69.9777C63.5578 69.5759 63.7189 69.1906 64.0056 68.9066C64.2924 68.6225 64.6813 68.4629 65.0868 68.4629C65.4923 68.4629 65.8812 68.6225 66.168 68.9066C66.4547 69.1906 66.6158 69.5759 66.6158 69.9777C66.6158 70.3794 66.4547 70.7647 66.168 71.0488C65.8812 71.3329 65.4923 71.4925 65.0868 71.4925ZM67.0273 59.8184C66.6985 62.0666 66.421 64.4372 65.7539 66.6233C65.5905 67.143 64.5946 67.143 64.4235 66.6233C63.9454 64.9779 63.5784 63.3028 63.325 61.6091C63.1197 60.3776 62.3918 58.3855 63.0893 57.1842C63.6956 56.1166 65.4194 55.9848 66.4153 56.544C67.6526 57.2482 67.1698 58.7075 67.0273 59.8259V59.8184Z" fill="#8ED49A"/>
<path d="M38.7751 41.6016H89.9365" stroke="white" stroke-width="1.27305" stroke-miterlimit="10"/>
<path d="M38.7751 46.5908H89.9365" stroke="white" stroke-width="1.27305" stroke-miterlimit="10"/>
<path d="M38.7751 78.7197H89.9365" stroke="white" stroke-width="1.27305" stroke-miterlimit="10"/>
<path d="M50.6599 83.4365H78.0528" stroke="white" stroke-width="1.27305" stroke-miterlimit="10"/>
<path d="M44.2109 114.338C44.2109 114.338 53.3147 78.4984 81.6692 69.7447L93.1943 67.0201C93.1943 67.0201 95.0169 58.9555 94.346 58.1082C93.6751 57.2609 92.2972 55.5249 89.7732 55.9014C87.2493 56.278 80.7246 56.3985 79.054 48.4959C77.3834 40.5933 83.5565 21.8093 99.5992 19C115.642 16.1907 116.016 27.861 116.016 27.861L104.233 54.9129L106.061 76.736L106.291 109.245L44.2109 114.338Z" fill="white"/>
<mask id="mask0_103_508" style="mask-type:luminance" maskUnits="userSpaceOnUse" x="37" y="18" width="123" height="153">
<path d="M159.851 18.0098H37.0913V170.999H159.851V18.0098Z" fill="white"/>
</mask>
<g mask="url(#mask0_103_508)">
<path d="M142.195 86.6513C142.005 86.7059 139.58 87.4045 138.626 89.069C138.444 88.6879 138.157 88.366 137.797 88.1406C137.438 87.9152 137.021 87.7957 136.596 87.7961H108.116C107.609 87.7953 107.117 87.9649 106.721 88.2772C106.324 88.5895 106.046 89.026 105.932 89.5152L100.324 113.34C99.9436 113.266 99.5635 113.221 99.1682 113.184L85.9326 109.911C85.3648 109.77 84.7644 109.844 84.2485 110.118C83.7325 110.392 83.3383 110.846 83.1426 111.393C83.0544 111.638 83.0107 111.897 83.0134 112.157C83.0133 112.749 83.2396 113.318 83.6467 113.751C84.0537 114.183 84.6111 114.447 85.2066 114.488L91.4652 114.888C85.4366 117.699 78.1023 123.054 71.9806 127.974C66.0242 118.734 71.6137 109.497 75.8178 104.522C75.2761 99.039 72.5317 86.3086 58.8381 86.6551C63.5553 80.6617 69.4376 75.5251 76.7263 72.0869C101.692 99.5022 130.254 77.088 130.86 76.6059C135.131 79.3663 138.954 82.7548 142.195 86.6551" fill="#1E4145"/>
<path d="M139.601 165.297V170.035H57.1521V163.324C60.3641 163.512 63.7433 162.759 66.8165 161.387C70.7069 159.632 74.0671 156.905 76.9408 153.795C79.8962 150.575 81.5193 146.111 83.4027 142.228C86.2308 136.381 89.9768 132.216 95.9218 130.452L95.5417 132.071C95.4654 132.397 95.4642 132.736 95.5384 133.063C95.6125 133.389 95.76 133.695 95.9698 133.957C96.1797 134.219 96.4465 134.431 96.7505 134.577C97.0544 134.723 97.3877 134.799 97.7254 134.8H126.348C125.778 139.695 123.374 166.433 139.601 165.303" fill="#1E4145"/>
<path d="M126.361 40.7028C126.338 43.2357 126.005 45.7565 125.369 48.21C125.079 49.3731 124.456 50.4286 123.576 51.2499C122.695 52.0712 121.594 52.6233 120.405 52.8401C120.357 51.1304 119.623 49.6297 118.504 48.6977C118.606 47.2502 118.592 45.797 118.46 44.3519C118.386 43.3973 118.27 42.5066 118.149 41.7064C118.076 41.2509 117.971 40.801 117.835 40.3601C117.453 39.9534 117.003 39.6152 116.505 39.3603C114.743 38.3774 111.117 37.3324 104.398 38.8688C103.301 39.1176 102.269 39.5916 101.369 40.2603C101.349 40.2726 101.331 40.2878 101.315 40.3055C100.709 40.8591 99.9374 41.5595 99.1392 41.9229C98.3124 42.2995 97.4496 42.3146 96.7254 41.424C96.7064 41.4051 96.6969 41.3882 96.6798 41.3694C96.2997 40.8779 95.9367 40.2396 95.2658 40.1134C93.8518 39.8498 93.1638 41.2432 92.9851 42.4144C92.8293 43.4971 93.1505 44.4517 93.6199 45.3611C94.013 46.1005 94.5268 46.7705 95.1404 47.3439C95.2978 47.4947 95.4422 47.6585 95.5718 47.8334C95.5128 47.8437 95.4549 47.8595 95.3989 47.8805C95.2689 47.9237 95.1419 47.9753 95.0187 48.0349C93.3082 48.7975 92.09 50.7086 92.0634 52.9455C92.0634 53.0152 89.1954 52.9738 88.8324 52.9455C87.4336 52.8175 86.0557 52.4183 85.0712 51.3733C82.2773 48.4077 82.2906 44.0073 83.4386 40.5653C84.5257 37.2985 85.9093 34.1088 87.7225 31.1696C91.6509 24.8091 97.7461 20.1168 105.462 19.6951C107.313 19.6029 109.168 19.7102 110.995 20.0152C111.859 20.1501 112.714 20.3388 113.555 20.58C121.421 23.9806 126.414 31.6893 126.369 40.7028" fill="#1E4145"/>
<path d="M121.805 113.213C120.876 115.576 118.664 116.928 116.864 116.226C115.064 115.524 114.357 113.053 115.285 110.69C116.212 108.327 118.426 106.973 120.226 107.678C122.026 108.382 122.735 110.852 121.805 113.215" fill="#2CA677"/>
<path d="M126.587 134.318C126.587 134.318 121.539 169.181 141.731 165.317C161.812 161.47 169.413 80.5328 111.286 68.8926" stroke="black" stroke-width="1.27305" stroke-miterlimit="10"/>
<path d="M79.3124 100.755C79.3124 100.755 63.0208 114.367 71.7995 127.98" stroke="black" stroke-width="1.27305" stroke-miterlimit="10"/>
<path d="M126.954 124.633C126.675 124.65 126.276 124.466 126.004 124.392C125.659 124.302 125.318 124.205 124.979 124.102C122.995 123.49 121.127 122.553 119.455 121.331C119.074 121.061 118.398 120.888 117.934 121.065C117.676 121.159 117.448 121.32 117.274 121.531C117.1 121.742 116.987 121.995 116.946 122.264C116.803 123.236 117.495 124.187 118.25 124.81C119.145 125.552 120.074 126.236 121.159 126.68C122.207 127.097 123.288 127.426 124.39 127.665C124.89 127.78 125.398 127.853 125.894 127.979" stroke="black" stroke-width="1.27305" stroke-miterlimit="10"/>
<path d="M133.207 115.203C133.412 116.276 133.562 117.391 133.46 118.481C133.374 119.404 133.04 120.481 132.004 120.705C131.807 120.757 131.603 120.775 131.399 120.76C127.499 120.532 124.286 119.197 120.616 116.568C116.946 113.94 115.653 119.993 119.006 121.067" stroke="black" stroke-width="1.27305" stroke-miterlimit="10"/>
<path d="M119.147 125.541C119.057 125.468 118.971 125.389 118.89 125.306C117.064 123.413 116.733 127.215 118.651 128.333L118.898 128.478C119.027 128.533 119.166 128.597 119.303 128.667C119.367 128.684 119.44 128.712 119.506 128.731M119.506 128.731C121.239 129.484 123.085 129.966 124.902 130.457C123.104 129.876 121.312 129.303 119.506 128.731ZM119.506 128.731C119.35 128.667 119.202 128.603 119.046 128.529C118.998 128.51 118.949 128.494 118.898 128.484C118.866 128.47 118.83 128.464 118.795 128.467C118.759 128.47 118.725 128.483 118.696 128.503C118.653 128.538 118.621 128.585 118.605 128.639C118.311 129.339 118.55 130.222 118.926 130.849C119.322 131.512 120 132.022 120.669 132.386C122.469 133.385 124.562 133.977 126.582 134.331C126.957 134.407 127.34 134.432 127.722 134.404" stroke="black" stroke-width="1.27305" stroke-miterlimit="10"/>
<path d="M144.019 138.718C144.019 138.718 137.825 128.26 137.135 119.167C136.713 113.539 135.045 112.348 133.851 112.267" stroke="black" stroke-width="1.27305" stroke-miterlimit="10"/>
<path d="M132.004 120.702L133.209 115.202L133.852 112.264L138.615 90.4865C138.685 90.1622 138.682 89.8264 138.604 89.5036C138.527 89.1808 138.377 88.8793 138.167 88.6212C137.957 88.363 137.691 88.1547 137.389 88.0116C137.087 87.8684 136.756 87.7941 136.421 87.7939H107.939C107.433 87.7934 106.941 87.9632 106.544 88.2754C106.148 88.5877 105.87 89.024 105.756 89.513L100.147 113.34L96.0532 130.725L95.6731 132.353C95.5975 132.679 95.5969 133.018 95.6715 133.344C95.746 133.67 95.8937 133.976 96.1037 134.238C96.3136 134.499 96.5804 134.711 96.8843 134.857C97.1881 135.003 97.5212 135.079 97.8588 135.08H126.479" stroke="black" stroke-width="1.27305" stroke-miterlimit="10"/>
<path d="M96.6914 40.7979C96.6914 40.7979 98.1986 34.4657 106.709 33.6259C115.22 32.7861 117.352 39.0864 117.352 39.0864L117.084 39.7209C117.084 39.7209 105.896 35.2735 99.7171 41.6208C99.7171 41.6208 97.4915 42.6206 96.6914 40.8017" fill="#2CA677"/>
<path d="M98.9871 113.183L85.7496 109.907C85.4339 109.83 85.1053 109.818 84.7848 109.873C84.4644 109.928 84.1589 110.049 83.888 110.227C83.6171 110.405 83.3866 110.638 83.2111 110.909C83.0356 111.18 82.919 111.485 82.8688 111.803C82.8185 112.122 82.8356 112.447 82.919 112.758C83.0025 113.07 83.1504 113.361 83.3534 113.613C83.5564 113.864 83.8101 114.072 84.0983 114.221C84.3865 114.37 84.7029 114.459 85.0274 114.481L91.286 114.889" stroke="black" stroke-width="1.27305" stroke-miterlimit="10"/>
<path d="M130.689 76.5965C130.689 76.5965 101.775 99.8016 76.5471 72.0869" stroke="black" stroke-width="1.27305" stroke-miterlimit="10"/>
<path d="M75.6405 104.519C75.0989 99.0358 72.3564 86.296 58.6514 86.6518" stroke="black" stroke-width="1.27305" stroke-miterlimit="10"/>
<path d="M142.022 86.6465C142.022 86.6465 139.439 87.3507 138.449 89.0717" stroke="black" stroke-width="1.27305" stroke-miterlimit="10"/>
<path d="M118.504 48.7051C119.662 49.6691 120.405 51.2433 120.405 53.0245C120.405 55.9807 118.331 58.372 115.769 58.372C115.48 58.3705 115.191 58.337 114.908 58.2722C117.892 56.0127 118.497 48.7051 118.497 48.7051" fill="#2CA677"/>
<path d="M101.625 60.6379C103.064 61.3471 104.638 61.7455 106.243 61.8069C107.848 61.8682 109.449 61.5911 110.938 60.9938C119.335 57.5198 119.014 47.2805 118.141 41.7146C118.072 41.2631 117.973 40.8165 117.845 40.3777V40.3683C116.881 37.1862 114.367 34.5934 111.054 33.8572C104.638 32.4205 98.7706 36.0244 96.3359 40.8767" stroke="black" stroke-width="1.27305" stroke-miterlimit="10"/>
<path d="M117.924 40.4768C117.924 40.4768 117.898 40.4391 117.843 40.377V40.3676C117.273 39.7312 113.971 36.694 104.415 38.8763C103.319 39.1247 102.287 39.5988 101.388 40.2678C101.366 40.2799 101.347 40.2951 101.331 40.313" stroke="black" stroke-width="1.27305" stroke-miterlimit="10"/>
<path d="M92.4529 55.9005H87.7262C84.3147 55.9005 81.6102 52.805 80.4338 49.8997C78.7803 45.8137 79.8389 41.6318 81.327 37.6607C82.5738 34.3373 84.1589 31.1081 86.2438 28.2179C90.9116 21.75 97.9589 18.0859 106.059 18.7637C106.778 18.824 107.493 18.9118 108.205 19.0273C119.082 20.7747 126.416 29.7844 126.361 40.696C126.338 43.2308 126.005 45.7535 125.369 48.2088C125.076 49.3711 124.453 50.4256 123.572 51.2466C122.692 52.0675 121.591 52.6202 120.403 52.8389" stroke="black" stroke-width="1.27305" stroke-miterlimit="10"/>
<path d="M95.5756 47.8343C95.4455 47.6592 95.3012 47.4949 95.1442 47.3429C94.5302 46.7705 94.0164 46.1012 93.6238 45.3621C93.1543 44.4526 92.8331 43.498 92.989 42.4153C93.1638 41.2516 93.8518 39.8507 95.2697 40.1144C95.9406 40.2424 96.2979 40.8788 96.6837 41.3703C98.1509 43.2532 100.171 41.3609 101.41 40.2236" stroke="black" stroke-width="1.27305" stroke-miterlimit="10"/>
<path d="M118.504 48.7051C119.662 49.6691 120.405 51.2433 120.405 53.0245C120.405 55.9807 118.331 58.372 115.769 58.372C115.48 58.3705 115.191 58.337 114.908 58.2722" stroke="black" stroke-width="1.27305" stroke-miterlimit="10"/>
<path d="M108.585 52.3331C109.623 53.0241 112.13 53.5909 111.626 51.5422C111.021 49.1152 110.208 43.9296 115.189 43.5342C115.189 43.5342 117.383 43.6264 118.466 44.3645" stroke="black" stroke-width="1.27305" stroke-miterlimit="10"/>
<path d="M110.461 56.3916C110.461 56.3916 107.952 57.7097 106.709 55.083" stroke="black" stroke-width="1.27305" stroke-miterlimit="10"/>
<path d="M105.373 47.0804C105.276 47.9145 105.605 48.6357 106.109 48.6941C106.612 48.7524 107.099 48.1292 107.198 47.2894C107.297 46.4496 106.964 45.736 106.462 45.6776C105.96 45.6192 105.47 46.2425 105.373 47.0804Z" fill="black"/>
<path d="M113.541 47.5724C113.444 48.4046 113.773 49.1276 114.277 49.186C114.781 49.2444 115.267 48.6211 115.364 47.7814C115.461 46.9416 115.132 46.2261 114.63 46.1696C114.129 46.1131 113.638 46.7345 113.541 47.5724Z" fill="black"/>
<path d="M108.585 44.0676C108.585 44.0676 107.05 41.7215 103.57 43.9471" stroke="black" stroke-width="1.27305" stroke-miterlimit="10"/>
<path d="M111.284 60.8379V73.8526" stroke="black" stroke-width="1.27305" stroke-miterlimit="10"/>
<path d="M59.3491 138.718C59.3491 138.718 64.7638 133.634 71.7959 127.985C77.9177 123.065 85.2596 117.701 91.2901 114.891C92.0617 114.535 92.8105 114.217 93.5384 113.95C95.2753 113.294 97.1395 113.036 98.9912 113.197C99.3788 113.228 99.7645 113.28 100.147 113.351" stroke="black" stroke-width="1.27305" stroke-miterlimit="10"/>
<path d="M96.0526 130.724C90.1057 132.489 86.3597 136.654 83.5336 142.5C81.6539 146.383 80.027 150.847 77.0716 154.067C74.1999 157.176 70.8397 159.904 66.9492 161.659C59.8905 164.841 51.1992 164.596 46.6132 157.676C43.5114 152.984 42.2913 147.155 41.6717 141.672C40.6074 132.142 43.9676 105.28 58.6513 86.649C63.3686 80.6556 69.2527 75.519 76.5395 72.0808C81.6539 69.6744 87.4354 68.1003 93.9886 67.6541L95.8246 58.2715" stroke="black" stroke-width="1.27305" stroke-miterlimit="10"/>
<path d="M139.732 165.614V170.318" stroke="black" stroke-width="1.27305" stroke-miterlimit="10"/>
<path d="M57.283 163.934V170.317" stroke="black" stroke-width="1.27305" stroke-miterlimit="10"/>
<path d="M101.321 53.0243C101.34 54.4358 100.834 55.8048 99.8998 56.8711C99.3762 57.1109 98.8061 57.2349 98.2292 57.2345C95.6692 57.2345 93.5937 54.8432 93.5937 51.887C93.5754 50.4756 94.0821 49.1069 95.0173 48.042C95.5405 47.8009 96.1108 47.6762 96.6879 47.6768C99.2479 47.6768 101.321 50.07 101.321 53.0243Z" fill="#2CA677"/>
<path d="M96.6916 58.3717C99.2485 58.3717 101.321 55.9776 101.321 53.0243C101.321 50.0709 99.2485 47.6768 96.6916 47.6768C94.1346 47.6768 92.0618 50.0709 92.0618 53.0243C92.0618 55.9776 94.1346 58.3717 96.6916 58.3717Z" stroke="black" stroke-width="1.27305" stroke-miterlimit="10"/>
</g>
<path d="M151.736 6.29223C148.883 5.44984 145.843 5.46432 142.999 6.33384C140.155 7.20337 137.635 8.88888 135.758 11.1772C133.881 13.4656 132.731 16.254 132.453 19.1899C132.176 22.1258 132.784 25.0772 134.199 27.6711C135.615 30.2649 137.775 32.3846 140.407 33.762C143.038 35.1395 146.023 35.713 148.984 35.4098C151.944 35.1067 154.748 33.9406 157.039 32.059C159.331 30.1774 161.008 27.6648 161.858 24.839C162.998 21.0497 162.572 16.9669 160.674 13.4887C158.776 10.0105 155.561 7.42185 151.736 6.29223ZM144.175 31.4179C143.899 31.3361 143.641 31.201 143.417 31.0205C143.192 30.8399 143.006 30.6174 142.869 30.3656C142.732 30.1138 142.646 29.8377 142.616 29.5531C142.587 29.2684 142.614 28.9807 142.697 28.7065C142.779 28.4323 142.916 28.1769 143.098 27.9549C143.28 27.7328 143.505 27.5485 143.759 27.4125C144.272 27.1378 144.874 27.0763 145.433 27.2416C145.992 27.4069 146.462 27.7854 146.74 28.2939C147.017 28.8024 147.079 29.3992 146.912 29.953C146.745 30.5068 146.363 30.9723 145.85 31.247C145.337 31.5217 144.734 31.5832 144.175 31.4179ZM151.778 16.1776C151.746 16.2529 151.715 16.3263 151.686 16.3979C150.453 19.4034 148.919 22.2792 147.108 24.9821C146.669 25.6411 145.293 25.2344 145.289 24.4436C145.315 21.986 145.505 19.5328 145.859 17.1002C146.08 15.3227 145.909 12.2799 147.359 10.9129C148.645 9.68902 151.072 10.2144 152.217 11.3893C153.48 12.6942 152.386 14.7447 151.772 16.1776H151.778Z" fill="#8ED49A"/>
<path d="M162.147 91.7792C161.103 92.831 160.397 94.166 160.118 95.6153C159.84 97.0646 160.002 98.5631 160.583 99.9212C161.165 101.279 162.14 102.436 163.385 103.245C164.63 104.055 166.089 104.48 167.579 104.467C169.068 104.454 170.519 104.004 171.75 103.174C172.981 102.344 173.936 101.171 174.494 99.8031C175.052 98.4353 175.188 96.9342 174.884 95.4899C174.581 94.0455 173.852 92.7228 172.79 91.6888C171.366 90.3031 169.445 89.5341 167.449 89.5511C165.454 89.568 163.546 90.3695 162.147 91.7792ZM171.589 100.974C171.384 101.18 171.105 101.297 170.813 101.299C170.521 101.302 170.24 101.189 170.032 100.987C169.824 100.784 169.706 100.508 169.703 100.218C169.701 99.9292 169.814 99.6508 170.019 99.4446C170.12 99.3425 170.241 99.2611 170.374 99.2052C170.507 99.1493 170.65 99.1198 170.794 99.1186C170.939 99.1174 171.082 99.1444 171.216 99.1981C171.35 99.2517 171.472 99.331 171.575 99.4314C171.679 99.5318 171.761 99.6513 171.817 99.7832C171.874 99.915 171.903 100.057 171.905 100.2C171.906 100.343 171.878 100.485 171.824 100.618C171.77 100.751 171.69 100.871 171.589 100.974ZM166.526 94.1103C167.527 95.4095 168.616 96.7464 169.403 98.1849C169.593 98.5314 169.09 99.0398 168.736 98.8552C167.644 98.2692 166.593 97.6112 165.591 96.8857C164.849 96.3736 163.451 95.7352 163.181 94.7806C162.935 93.9295 163.738 92.9899 164.53 92.764C165.503 92.4891 166.02 93.4739 166.526 94.1103Z" fill="#2CA677"/>
<path d="M191.663 32.0452C192.413 31.1312 192.872 30.0174 192.983 28.8447C193.094 27.672 192.852 26.493 192.286 25.4568C191.721 24.4206 190.858 23.5737 189.807 23.0233C188.756 22.4729 187.564 22.2436 186.381 22.3644C185.198 22.4853 184.078 22.9509 183.163 23.7023C182.247 24.4536 181.577 25.4571 181.237 26.5858C180.897 27.7145 180.903 28.9178 181.253 30.0433C181.603 31.1689 182.283 32.1664 183.205 32.9095C183.818 33.403 184.522 33.7721 185.279 33.9957C186.036 34.2194 186.829 34.2932 187.615 34.2129C188.4 34.1327 189.162 33.8999 189.856 33.528C190.551 33.1561 191.165 32.6522 191.663 32.0452ZM183.458 25.438C183.531 25.3493 183.62 25.2756 183.722 25.2211C183.823 25.1667 183.935 25.1326 184.05 25.1208C184.164 25.109 184.28 25.1197 184.391 25.1524C184.502 25.185 184.605 25.2389 184.694 25.3109C184.784 25.383 184.858 25.4719 184.913 25.5724C184.968 25.673 185.003 25.7833 185.014 25.897C185.026 26.0108 185.016 26.1257 184.983 26.2353C184.95 26.3449 184.895 26.447 184.823 26.5358C184.676 26.7151 184.463 26.8292 184.231 26.853C183.999 26.8768 183.767 26.8085 183.586 26.6629C183.405 26.5173 183.29 26.3065 183.266 26.0768C183.242 25.8471 183.311 25.6173 183.458 25.438ZM188.006 30.5219C187.111 29.5635 186.147 28.5882 185.408 27.4961C185.229 27.2344 185.598 26.7937 185.887 26.9143C186.802 27.3008 187.69 27.7474 188.546 28.2511C189.173 28.6032 190.334 29.0043 190.621 29.7462C190.88 30.4033 190.313 31.2111 189.699 31.4408C188.941 31.7308 188.455 30.987 188.006 30.5106V30.5219Z" fill="#2CA677"/>
<path d="M131.909 71.3103C134.03 74.8878 133.933 77.4354 133.382 81.5647C133.161 83.1369 134.87 84.2008 136.256 83.4099C148.497 76.4431 159.923 81.9526 174.52 78.5369C179.879 77.2904 186.562 74.7071 191.142 70.5534C192.662 68.3176 193.474 65.6834 193.474 62.9878C193.474 51.6903 177.889 42.5186 158.669 42.5186C146.351 42.5186 135.53 46.2844 129.343 51.9576C129.343 51.9576 129.343 51.9576 129.326 51.9746C127.756 54.3038 126.893 56.8495 126.893 59.5063C126.884 63.5602 129.927 67.9549 131.909 71.3103Z" fill="#8ED49A"/>
<path d="M126.939 59.5068C126.939 59.6009 126.939 59.695 126.939 59.793C127.007 63.7471 129.011 67.432 131.382 70.6198C132.971 72.7512 134.857 75.1199 134.41 77.7334C134.22 78.8858 133.564 79.9308 133.401 81.0869C133.237 82.243 133.859 83.6853 135.037 83.7456C135.786 83.7833 136.423 83.256 137.016 82.8041C140.522 80.1116 145.08 79.1042 149.512 78.9272C153.944 78.7502 158.371 79.3301 162.805 79.4544C169.198 79.6427 175.692 78.8443 181.597 76.4154C186.889 74.2425 191.737 70.6762 194.92 65.9125C198.049 61.2353 196.199 54.4436 192.862 50.3765C189.734 46.5598 185.201 44.1177 180.552 42.3967C168.048 37.7722 153.777 37.8777 141.446 42.9446C137.786 44.4509 134.245 46.4092 131.5 49.243C128.826 52.0033 126.967 55.6825 126.939 59.5068Z" stroke="black" stroke-width="1.27305" stroke-miterlimit="10"/>
<path d="M178.243 64.0076C180.894 64.0076 183.044 61.8782 183.044 59.2514C183.044 56.6246 180.894 54.4951 178.243 54.4951C175.591 54.4951 173.442 56.6246 173.442 59.2514C173.442 61.8782 175.591 64.0076 178.243 64.0076Z" fill="white"/>
<path d="M162.715 64.0076C165.367 64.0076 167.516 61.8782 167.516 59.2514C167.516 56.6246 165.367 54.4951 162.715 54.4951C160.064 54.4951 157.914 56.6246 157.914 59.2514C157.914 61.8782 160.064 64.0076 162.715 64.0076Z" fill="white"/>
<path d="M146.885 64.0076C149.537 64.0076 151.686 61.8782 151.686 59.2514C151.686 56.6246 149.537 54.4951 146.885 54.4951C144.234 54.4951 142.084 56.6246 142.084 59.2514C142.084 61.8782 144.234 64.0076 146.885 64.0076Z" fill="white"/>
<path d="M205.116 169.999H-2.08521" stroke="black" stroke-width="1.16509" stroke-miterlimit="10"/>
</g>
<defs>
<clipPath id="clip0_103_508">
<rect width="203" height="174" rx="5" fill="white"/>
</clipPath>
</defs>
</svg>
