<svg width="335" height="404" viewBox="0 0 335 404" fill="none" xmlns="http://www.w3.org/2000/svg">
<path d="M88.3149 271.453C93.2745 259.816 96.4057 246.39 96.701 230.819C98.1342 154.662 181.691 95.893 274.38 160.489C367.07 225.086 285.151 402.794 285.151 402.794" stroke="#8ED49A" stroke-width="2.0006" stroke-miterlimit="10"/>
<path d="M23.5108 402.796C19.4154 399.479 -11.8054 368.02 6.94708 350.015C14.9597 342.33 32.2052 333.357 49.4811 319.675" stroke="#8ED49A" stroke-width="2.0006" stroke-miterlimit="10"/>
<path d="M246.921 211.909C247.257 213.711 248.141 215.357 249.444 216.608" stroke="#8ED49A" stroke-width="2.0006" stroke-miterlimit="10"/>
<path d="M174.152 246.488C173.509 246.663 172.966 246.788 172.536 246.891C172.215 246.949 171.95 247.008 171.768 247.034H171.728L171.477 247.079C171.477 247.079 171.451 247.048 171.433 247.048C167.09 243.763 168.424 237.649 168.424 237.649C181.409 239.757 184.101 228.917 184.101 228.917C183.932 223.721 182.972 221.277 180.757 219.872C178.443 218.377 174.751 217.992 169.11 216.739L168.176 216.524C159.786 214.559 155.873 205.684 154.327 200.761C153.967 199.671 153.676 198.557 153.458 197.427C143.956 201.106 138.006 206.315 134.58 210.223C133.225 182.523 160.203 186.502 160.203 186.502C164.742 186.569 169.254 187.249 173.622 188.525C174.612 188.972 175.559 189.42 176.462 189.868C176.896 190.096 177.357 190.342 177.765 190.597C178.173 190.852 178.634 191.103 179.033 191.358C179.324 191.532 179.619 191.72 179.902 191.917C185.836 195.799 190.58 201.336 193.582 207.886C193.624 207.975 193.662 208.066 193.695 208.159C193.831 208.463 193.952 208.773 194.055 209.09C200.161 236.624 181.322 244.506 174.152 246.488Z" fill="#2CA677"/>
<path d="M174.152 246.488C172.258 243.243 173.136 239.327 173.136 239.327C186.108 241.439 188.809 230.6 188.809 230.6C188.531 222.628 186.442 221.134 180.757 219.858C178.651 219.37 176.063 218.923 172.884 218.193C171.564 217.887 170.293 217.389 169.11 216.712C160.472 211.833 158.144 199.082 158.144 199.082C156.806 199.597 155.538 200.156 154.327 200.734C153.967 199.643 153.676 198.529 153.458 197.399C143.956 201.078 138.006 206.288 134.58 210.195C133.225 182.496 160.203 186.475 160.203 186.475C164.742 186.542 169.254 187.222 173.622 188.498C174.612 188.945 175.559 189.393 176.462 189.84C176.896 190.068 177.357 190.315 177.765 190.57C178.173 190.825 178.634 191.075 179.033 191.331C179.324 191.505 179.619 191.693 179.902 191.89C185.836 195.772 190.58 201.309 193.582 207.859C193.624 207.948 193.662 208.039 193.695 208.132C193.831 208.435 193.952 208.746 194.055 209.063C200.161 236.624 181.322 244.505 174.152 246.488Z" fill="#2CA677"/>
<path d="M219.678 369.08C221.684 382.578 224.138 395.857 226.7 402.795H111.523C97.6565 362.219 104.232 317.892 104.232 317.892L83.7767 318.555C96.0801 296.311 91.7025 277.504 89.6266 271.23C105.695 268.415 121.764 266.204 138.002 266.016C137.567 275.593 147.712 286.603 162.343 283.708C168.276 282.544 175.507 280.127 175.663 269.417L179.48 270.106C184.761 271.001 189.538 271.959 194.068 273.038C205.794 275.822 215.869 279.304 228.424 283.708C211.053 296.96 219.687 327.569 219.687 327.569L220.121 328.589L214.575 327.569C214.575 327.569 216.629 348.564 219.678 369.08Z" fill="#1E4145"/>
<path d="M100.18 74.0947C111.664 74.0947 120.974 64.5005 120.974 52.6655C120.974 40.8305 111.664 31.2363 100.18 31.2363C88.6961 31.2363 79.3865 40.8305 79.3865 52.6655C79.3865 64.5005 88.6961 74.0947 100.18 74.0947Z" fill="#2CA677"/>
<path d="M107.015 45.5121C106.723 44.8146 106.329 44.1672 105.847 43.5922C105.025 42.585 103.875 41.9218 102.612 41.7273C101.349 41.5328 100.061 41.8204 98.9897 42.536C98.2893 43.0026 97.7041 43.631 97.2804 44.3714C96.8568 45.1117 96.6064 45.9436 96.549 46.8011C95.4555 46.3935 94.2632 46.3626 93.1512 46.713C92.0392 47.0635 91.0676 47.7763 90.3823 48.7444C89.6969 49.7125 89.3349 50.8836 89.3506 52.0819C89.3663 53.2801 89.7588 54.4408 90.4692 55.3895C91.9588 57.3901 94.4906 58.7058 96.7836 59.4712C97.9866 59.8659 99.2245 60.1372 100.479 60.2812C101.113 60.3528 104.739 60.8541 105.078 60.2812C107.293 56.6427 108.9 49.9608 107.015 45.5121Z" fill="white"/>
<path d="M65.1937 45.6983C63.83 45.5416 62.449 45.4432 61.0723 45.3671C59.5957 45.4432 58.1191 45.555 56.6426 45.743C51.979 46.2793 47.4111 47.4845 43.0711 49.3235C41.1272 50.1476 39.2533 51.1371 37.4688 52.2819C36.1813 53.0792 34.948 53.9659 33.7774 54.9359C32.9132 53.6588 32.2194 52.2679 31.7145 50.8005C30.8553 48.3242 30.5396 45.6823 30.7905 43.0652C31.0413 40.448 31.8522 37.9208 33.165 35.6656C34.4777 33.4104 36.2595 31.4834 38.382 30.0233C40.5044 28.5633 42.9147 27.6066 45.4392 27.2222C47.9636 26.8378 50.5394 27.0353 52.9809 27.8004C55.4224 28.5655 57.6688 29.8792 59.5582 31.6468C61.4477 33.4145 62.9332 35.592 63.9077 38.0226C64.8822 40.4531 65.3214 43.0762 65.1937 45.7027V45.6983Z" fill="#2CA677"/>
<path d="M56.6419 45.7436C51.9785 46.2799 47.4107 47.485 43.0709 49.324C42.819 48.6348 42.6105 47.9814 42.5411 47.7576C42.1928 46.7408 41.9412 45.6916 41.7898 44.6248C41.5249 42.5839 41.564 40.1493 42.4846 38.292C42.9147 37.4001 43.6147 36.6767 44.4789 36.231C45.3431 35.7854 46.3246 35.6417 47.2751 35.8216C48.2255 36.0015 49.0934 36.4953 49.7475 37.2284C50.4016 37.9615 50.8064 38.8941 50.9008 39.8852C51.5462 39.626 52.2405 39.5222 52.9307 39.582C53.6209 39.6417 54.2888 39.8633 54.8831 40.2298C55.7642 40.7836 56.4251 41.6427 56.7474 42.6531C57.0697 43.6634 57.0323 44.7591 56.6419 45.7436Z" fill="white"/>
<path d="M37.4683 52.2784C36.1809 53.0757 34.9476 53.9624 33.777 54.9324C32.9924 55.5584 32.2387 56.2246 31.5188 56.9284C30.5963 57.8353 29.784 58.8542 29.0999 59.9628C28.4597 60.9946 27.9048 62.08 27.441 63.2075C26.74 64.9314 26.1807 66.713 25.769 68.5333C24.9435 72.4595 24.4452 76.4513 24.2795 80.465C21.2258 78.8931 18.7745 76.3077 17.3203 73.1252C15.866 69.9427 15.4936 66.3484 16.2629 62.9212C17.0323 59.494 18.8986 56.4334 21.5612 54.2325C24.2239 52.0315 27.528 50.8182 30.9412 50.7881C31.2061 50.7881 31.4537 50.7881 31.7186 50.7881C33.7122 50.8865 35.6668 51.3931 37.4683 52.2784Z" fill="#2CA677"/>
<path d="M29.0999 59.9644C28.4597 60.9962 27.9048 62.0816 27.441 63.2091C26.7399 64.933 26.1807 66.7145 25.769 68.5349C24.8657 67.2415 24.0971 65.693 23.9755 64.1445C23.9331 63.5877 24.0025 63.0279 24.1794 62.5001C24.3563 61.9722 24.6369 61.4875 25.0037 61.0764C25.3704 60.6653 25.8155 60.3364 26.311 60.1105C26.8066 59.8845 27.342 59.7662 27.8839 59.763C28.2975 59.7576 28.7088 59.8258 29.0999 59.9644Z" fill="white"/>
<g opacity="0.72">
<path d="M124.217 49.9648C130.539 49.9648 135.665 44.683 135.665 38.1675C135.665 31.652 130.539 26.3701 124.217 26.3701C117.895 26.3701 112.77 31.652 112.77 38.1675C112.77 44.683 117.895 49.9648 124.217 49.9648Z" fill="#2CA677"/>
<path d="M129.186 40.2699C129.467 39.9703 129.705 39.6295 129.889 39.2584C130.216 38.6163 130.303 37.8734 130.135 37.1695C129.967 36.4656 129.556 35.8492 128.977 35.4364C128.601 35.1691 128.171 34.9949 127.719 34.9274C127.267 34.8599 126.806 34.9008 126.372 35.047C126.348 34.3857 126.116 33.7503 125.711 33.2369C125.305 32.7235 124.749 32.36 124.126 32.2013C123.502 32.0425 122.846 32.0972 122.255 32.3571C121.665 32.617 121.172 33.0679 120.852 33.6417C120.175 34.8456 120.053 36.4478 120.157 37.8128C120.212 38.5267 120.337 39.233 120.531 39.9208C120.626 40.2699 121.134 42.2749 121.482 42.3375C123.74 42.7314 127.379 42.1809 129.186 40.2699Z" fill="white"/>
</g>
<g opacity="0.72">
<path d="M119.114 170.255C123.628 170.255 127.287 166.484 127.287 161.832C127.287 157.18 123.628 153.409 119.114 153.409C114.6 153.409 110.941 157.18 110.941 161.832C110.941 166.484 114.6 170.255 119.114 170.255Z" fill="#2CA677"/>
<path d="M122.658 163.35C122.86 163.136 123.028 162.891 123.158 162.625C123.391 162.167 123.453 161.638 123.334 161.136C123.215 160.634 122.922 160.194 122.511 159.899C122.241 159.707 121.932 159.581 121.607 159.533C121.282 159.485 120.951 159.515 120.639 159.622C120.62 159.151 120.453 158.7 120.164 158.336C119.875 157.971 119.479 157.713 119.035 157.599C118.592 157.486 118.125 157.524 117.704 157.707C117.283 157.89 116.931 158.208 116.7 158.615C116.258 159.538 116.085 160.573 116.201 161.595C116.241 162.105 116.331 162.609 116.47 163.099C116.54 163.345 116.904 164.782 117.148 164.822C118.772 165.091 121.369 164.693 122.658 163.35Z" fill="white"/>
</g>
<path d="M100.934 60.7187L95.4937 72.573C93.5199 76.8744 95.3033 82.0103 99.4771 84.0445L110.98 89.6506C115.154 91.6847 120.137 89.8468 122.111 85.5455L127.551 73.6911C129.525 69.3897 127.741 64.2538 123.568 62.2196L112.065 56.6135C107.891 54.5794 102.907 56.4173 100.934 60.7187Z" fill="#2CA677"/>
<path d="M124.451 75.7722L120.512 84.3562C119.688 86.1492 118.208 87.5327 116.396 88.2037C114.585 88.8747 112.589 88.7787 110.845 87.9366L100.857 83.0672C99.118 82.2169 97.7763 80.6916 97.1253 78.8248C96.4743 76.958 96.5669 74.9015 97.3829 73.1048L97.6478 72.523C100.362 70.2853 105.057 67.2778 106.768 71.3818C109.234 77.2894 112.439 75.3784 116.539 72.9079C119.978 70.8179 124.086 70.1242 124.451 75.7722Z" fill="white"/>
<path d="M108.969 66.64C110.667 66.64 112.044 65.2214 112.044 63.4714C112.044 61.7214 110.667 60.3027 108.969 60.3027C107.271 60.3027 105.894 61.7214 105.894 63.4714C105.894 65.2214 107.271 66.64 108.969 66.64Z" fill="white"/>
<path d="M138.892 99.468L131.727 115.081C129.129 120.744 131.477 127.505 136.971 130.183L152.121 137.566C157.616 140.244 164.176 137.825 166.774 132.162L173.939 116.549C176.538 110.887 174.19 104.126 168.695 101.448L153.545 94.064C148.051 91.3863 141.49 93.8057 138.892 99.468Z" fill="#2CA677"/>
<path d="M169.852 119.292L164.641 130.592C163.552 132.95 161.601 134.767 159.216 135.647C156.831 136.527 154.205 136.397 151.912 135.287L138.779 128.887C136.491 127.765 134.728 125.755 133.874 123.297C133.021 120.839 133.146 118.132 134.223 115.769L134.575 115.004C138.149 112.068 144.325 108.098 146.579 113.5C149.831 121.279 154.048 118.763 159.446 115.51C163.959 112.775 169.374 111.853 169.852 119.292Z" fill="white"/>
<path d="M149.467 107.27C151.702 107.27 153.514 105.403 153.514 103.099C153.514 100.795 151.702 98.9277 149.467 98.9277C147.231 98.9277 145.419 100.795 145.419 103.099C145.419 105.403 147.231 107.27 149.467 107.27Z" fill="white"/>
<path d="M168.328 54.9859C168.931 56.1304 169.37 57.3591 169.631 58.6335C170.093 60.9787 169.957 63.4075 169.236 65.6824C168.515 67.9574 167.234 70.0007 165.518 71.6128C164.159 72.8525 162.426 73.8237 161.045 75.1216C160.041 76.0167 159.302 77.1845 158.913 78.4918C158.84 78.9376 158.666 79.3594 158.404 79.7225C157.597 80.6177 156.811 79.2123 156.111 78.9572C154.99 78.5819 153.774 78.644 152.694 79.1318C149.855 80.3374 146.701 80.4986 143.761 79.5882C140.821 78.6779 138.276 76.7515 136.552 74.1335C134.829 71.5154 134.034 68.3655 134.3 65.2139C134.567 62.0623 135.878 59.1015 138.015 56.8298C140.143 54.592 142.931 53.1733 145.619 51.7053C147.99 50.4073 150.348 49.0199 152.919 48.2546C158.973 46.4017 165.405 49.4943 168.328 54.9859Z" fill="#2CA677"/>
<path d="M144.042 71.1724C145.642 71.1724 146.939 69.8359 146.939 68.1873C146.939 66.5386 145.642 65.2021 144.042 65.2021C142.443 65.2021 141.146 66.5386 141.146 68.1873C141.146 69.8359 142.443 71.1724 144.042 71.1724Z" fill="white"/>
<path d="M151.847 66.8687C153.446 66.8687 154.743 65.5322 154.743 63.8836C154.743 62.2349 153.446 60.8984 151.847 60.8984C150.247 60.8984 148.95 62.2349 148.95 63.8836C148.95 65.5322 150.247 66.8687 151.847 66.8687Z" fill="white"/>
<path d="M159.169 62.8326C160.768 62.8326 162.065 61.4961 162.065 59.8474C162.065 58.1988 160.768 56.8623 159.169 56.8623C157.569 56.8623 156.272 58.1988 156.272 59.8474C156.272 61.4961 157.569 62.8326 159.169 62.8326Z" fill="white"/>
<path d="M258.273 256.022V256.094L257.2 281.507L256.601 295.43C256.601 294.915 256.627 294.383 256.657 293.868C249.244 291.313 239.72 287.678 232.372 285.109C217.91 280.025 207.014 276.118 194.059 273.048C193.277 269.158 192.539 260.816 196.174 248.638C201.386 231.263 203.101 213.634 200.452 210.228C200.427 210.189 200.394 210.155 200.356 210.13C198.472 203.125 193.486 207.659 193.486 207.659C193.486 207.659 193.516 207.731 193.529 207.771C192.492 205.998 191.352 204.291 190.116 202.66C190.157 202.406 190.222 202.157 190.311 201.917C191.914 196.949 200.452 195.754 200.452 195.754C212.951 196.703 219.526 202.445 222.844 209.986C225.766 219.506 224.042 229.827 223.664 239.592C223.512 243.826 222.926 250.334 226.062 253.762C228.958 259.406 236.246 256.967 238.222 256.349C238.864 256.161 240.532 256.045 242.721 255.973C247.181 255.861 253.743 255.946 257.743 256.018C257.938 256.022 258.108 256.022 258.273 256.022Z" fill="#2CA677"/>
<path d="M85.2961 27.608C84.386 27.8169 83.4514 27.8893 82.5211 27.8228C80.8151 27.684 79.1733 27.0909 77.7566 26.1016C76.3398 25.1123 75.1968 23.7607 74.4393 22.1792C73.8617 20.9306 73.5708 19.4671 72.9411 18.196C72.5301 17.2833 71.8785 16.5079 71.0607 15.9583C70.7685 15.815 70.5139 15.6017 70.3181 15.3362C69.8838 14.5664 70.9955 14.28 71.3125 13.8235C71.7967 13.0809 72.002 12.1821 71.8901 11.2949C71.6322 8.97284 72.1604 6.63028 73.3854 4.66341C74.6104 2.69653 76.4571 1.22607 78.6129 0.50074C80.7688 -0.224588 83.1016 -0.160261 85.2168 0.682843C87.3319 1.52595 89.0996 3.09608 90.2208 5.12765C91.3239 7.13714 91.7277 9.45991 92.1881 11.72C92.5963 13.7116 93.0566 15.7122 93.0566 17.7485C93.0957 22.5328 89.6606 26.5965 85.2961 27.608Z" fill="#2CA677"/>
<path d="M81.1795 9.39882C82.3572 9.39882 83.3118 8.41499 83.3118 7.20136C83.3118 5.98774 82.3572 5.00391 81.1795 5.00391C80.0019 5.00391 79.0472 5.98774 79.0472 7.20136C79.0472 8.41499 80.0019 9.39882 81.1795 9.39882Z" fill="white"/>
<path d="M82.5429 15.9691C83.7206 15.9691 84.6752 14.9853 84.6752 13.7717C84.6752 12.5581 83.7206 11.5742 82.5429 11.5742C81.3653 11.5742 80.4106 12.5581 80.4106 13.7717C80.4106 14.9853 81.3653 15.9691 82.5429 15.9691Z" fill="white"/>
<path d="M83.8242 22.1352C85.0018 22.1352 85.9565 21.1513 85.9565 19.9377C85.9565 18.7241 85.0018 17.7402 83.8242 17.7402C82.6466 17.7402 81.6919 18.7241 81.6919 19.9377C81.6919 21.1513 82.6466 22.1352 83.8242 22.1352Z" fill="white"/>
<g opacity="0.72">
<path d="M212.438 107.507C221.389 107.507 228.646 100.028 228.646 90.8035C228.646 81.5788 221.389 74.1006 212.438 74.1006C203.487 74.1006 196.231 81.5788 196.231 90.8035C196.231 100.028 203.487 107.507 212.438 107.507Z" fill="#2CA677"/>
<path d="M213.046 98.6042C213.592 98.7837 214.162 98.8758 214.735 98.8772C215.731 98.8904 216.697 98.5291 217.452 97.8609C218.208 97.1927 218.701 96.2636 218.839 95.2476C218.928 94.5844 218.867 93.909 218.66 93.2744C218.453 92.6399 218.105 92.0637 217.645 91.5911C218.439 91.1364 219.068 90.428 219.438 89.5728C219.807 88.7176 219.897 87.7618 219.694 86.8493C219.49 85.9369 219.005 85.1173 218.31 84.5139C217.616 83.9105 216.75 83.5561 215.843 83.5039C213.936 83.392 211.895 84.2558 210.284 85.2583C209.445 85.787 208.66 86.4002 207.939 87.0888C207.57 87.4379 205.433 89.3847 205.581 89.8725C206.536 93.0814 209.537 97.4808 213.046 98.6042Z" fill="white"/>
</g>
<path d="M219.965 158.977C218.951 160.495 217.728 161.852 216.334 163.005C213.753 165.107 210.687 166.482 207.436 166.997C204.185 167.511 200.859 167.148 197.786 165.941C195.393 164.961 193.1 163.319 190.624 162.361C188.886 161.626 186.982 161.409 185.13 161.734C184.538 161.924 183.91 161.967 183.298 161.86C181.691 161.376 182.907 159.461 182.772 158.386C182.515 156.687 181.664 155.143 180.379 154.045C177.066 151.123 174.835 147.111 174.063 142.688C173.292 138.264 174.027 133.702 176.146 129.774C178.264 125.846 181.634 122.793 185.686 121.132C189.739 119.472 194.223 119.305 198.38 120.662C202.489 122.004 206.002 124.73 209.52 127.294C212.621 129.555 215.813 131.77 218.41 134.599C224.529 141.317 224.837 151.673 219.965 158.977Z" fill="#2CA677"/>
<path d="M188.283 140.001C190.547 140.001 192.383 138.11 192.383 135.777C192.383 133.443 190.547 131.552 188.283 131.552C186.019 131.552 184.184 133.443 184.184 135.777C184.184 138.11 186.019 140.001 188.283 140.001Z" fill="white"/>
<path d="M198.537 147.42C200.801 147.42 202.636 145.529 202.636 143.196C202.636 140.862 200.801 138.971 198.537 138.971C196.272 138.971 194.437 140.862 194.437 143.196C194.437 145.529 196.272 147.42 198.537 147.42Z" fill="white"/>
<path d="M208.161 154.38C210.425 154.38 212.26 152.489 212.26 150.156C212.26 147.822 210.425 145.931 208.161 145.931C205.897 145.931 204.061 147.822 204.061 150.156C204.061 152.489 205.897 154.38 208.161 154.38Z" fill="white"/>
<g opacity="0.54">
<path d="M95.4678 33.6005C95.4136 34.3302 95.3047 35.0544 95.1421 35.7667L93.3268 43.881C92.7709 46.365 92.1455 48.9832 90.4214 50.8092C87.2077 54.1973 81.8269 53.423 77.3407 52.3936L66.3272 49.8738C63.7996 49.292 61.2287 48.7012 58.9443 47.4033C56.66 46.1054 54.7144 43.9974 54.1672 41.3791C53.7807 39.4502 54.1976 37.4585 54.6015 35.534L56.3169 27.7375C56.8684 25.1864 57.4938 22.4876 59.2787 20.6347C62.462 17.3272 67.7343 18.0791 72.151 19.0638L83.412 21.5835C90.2129 23.1187 96.0107 26.368 95.4678 33.6005Z" fill="#2CA677"/>
<path d="M80.2804 33.82C80.7515 34.2724 81.0988 34.8445 81.2874 35.479C81.4761 36.1134 81.4994 36.7879 81.3551 37.4346C81.2107 38.0813 80.9038 38.6774 80.4652 39.1632C80.0265 39.649 79.4715 40.0072 78.856 40.202L75.4991 41.2627L72.1465 42.3189C71.5295 42.5143 70.8735 42.5385 70.2446 42.3891C69.6157 42.2397 69.0361 41.922 68.5644 41.4681C68.0927 41.0142 67.7454 40.44 67.5578 39.8037C67.3701 39.1673 67.3486 38.4911 67.4954 37.8434L68.2815 34.3168L69.0675 30.7946C69.2128 30.1479 69.5205 29.5519 69.9598 29.0664C70.3991 28.5809 70.9545 28.2229 71.5704 28.0285C72.1862 27.834 72.8409 27.8098 73.4687 27.9583C74.0965 28.1068 74.6754 28.4228 75.1473 28.8746L77.7139 31.3406L80.2804 33.82Z" fill="white"/>
</g>
<g opacity="0.54">
<path d="M219.23 49.2211C219.175 49.9507 219.067 50.6749 218.904 51.3873L217.089 59.515C216.533 61.999 215.908 64.6172 214.184 66.4388C210.97 69.8313 205.589 69.0525 201.103 68.0276L190.089 65.5034C187.562 64.926 184.991 64.3308 182.707 63.0373C180.422 61.7439 178.477 59.6269 177.929 57.0131C177.543 55.0842 177.96 53.0925 178.364 51.168L180.083 43.4028C180.631 40.8473 181.256 38.1529 183.041 36.2956C186.224 32.9926 191.496 33.74 195.913 34.7291L207.157 37.231C213.975 38.7482 219.773 42.002 219.23 49.2211Z" fill="#2CA677"/>
<path d="M204.043 49.4497C204.514 49.9026 204.861 50.4751 205.05 51.1098C205.238 51.7445 205.261 52.4192 205.117 53.0661C204.973 53.713 204.666 54.3095 204.227 54.7957C203.789 55.2819 203.234 55.6407 202.619 55.8362L199.262 56.8924L195.909 57.9531C195.292 58.1485 194.636 58.1727 194.007 58.0233C193.378 57.8739 192.799 57.5562 192.327 57.1023C191.855 56.6484 191.508 56.0742 191.32 55.4379C191.133 54.8015 191.111 54.1253 191.258 53.4776L192.044 49.9554L192.83 46.4332C192.975 45.7865 193.283 45.1905 193.722 44.7051C194.162 44.2196 194.717 43.8616 195.333 43.6671C195.949 43.4726 196.603 43.4484 197.231 43.5969C197.859 43.7455 198.438 44.0615 198.91 44.5133L201.476 46.9793L204.043 49.4497Z" fill="white"/>
</g>
<g opacity="0.54">
<path d="M167.259 158.106C167.232 158.445 167.179 158.782 167.103 159.113L166.26 162.904C166 164.058 165.709 165.276 164.905 166.126C163.411 167.706 160.906 167.343 158.825 166.864L153.697 165.692C152.506 165.479 151.351 165.091 150.266 164.542C149.725 164.262 149.248 163.867 148.866 163.384C148.484 162.9 148.206 162.338 148.051 161.736C147.933 160.824 148.002 159.897 148.255 159.014L149.037 155.389C149.293 154.203 149.584 152.946 150.418 152.082C151.899 150.542 154.352 150.891 156.406 151.352L161.652 152.525C164.81 153.223 167.511 154.736 167.259 158.106Z" fill="#2CA677"/>
<path d="M160.184 158.209C160.404 158.419 160.567 158.686 160.655 158.981C160.743 159.277 160.754 159.591 160.686 159.893C160.619 160.194 160.476 160.472 160.271 160.698C160.066 160.924 159.807 161.09 159.52 161.18L157.961 161.673L156.398 162.165C156.111 162.257 155.805 162.27 155.512 162.202C155.219 162.133 154.948 161.986 154.728 161.775C154.507 161.565 154.345 161.298 154.257 161.001C154.169 160.705 154.158 160.39 154.226 160.088L154.608 158.428L154.973 156.785C155.04 156.483 155.182 156.205 155.387 155.978C155.591 155.751 155.85 155.583 156.137 155.492C156.425 155.402 156.73 155.391 157.023 155.46C157.316 155.53 157.585 155.679 157.805 155.89L158.999 157.036L160.184 158.209Z" fill="white"/>
</g>
<g opacity="0.54">
<path d="M113.195 0.945064C113.551 1.13602 113.893 1.35288 114.22 1.59401L117.868 4.34195C118.988 5.17886 120.156 6.08738 120.686 7.40317C121.672 9.85126 120.1 12.5321 118.602 14.6803L114.923 19.9614C114.136 21.2187 113.176 22.3522 112.074 23.3269C110.928 24.222 109.443 24.8217 108.023 24.5219C106.976 24.307 106.073 23.6268 105.204 23.0047L101.687 20.4044C100.536 19.5541 99.3285 18.6142 98.7943 17.2716C97.8433 14.8548 99.3763 12.2277 100.84 10.1108L104.57 4.69551C106.807 1.42841 109.703 -0.93016 113.195 0.945064Z" fill="#2CA677"/>
<path d="M109.964 9.03967C110.292 8.88994 110.652 8.8314 111.009 8.8699C111.365 8.9084 111.706 9.04259 111.996 9.25908C112.287 9.47556 112.517 9.76678 112.664 10.1037C112.811 10.4405 112.87 10.8113 112.835 11.1789L112.626 13.1929L112.418 15.2069C112.38 15.5759 112.248 15.9281 112.036 16.228C111.823 16.5278 111.538 16.7648 111.209 16.915C110.88 17.0652 110.518 17.1233 110.16 17.0835C109.802 17.0437 109.46 16.9074 109.169 16.6883L107.584 15.4978L105.999 14.3118C105.707 14.0935 105.477 13.7997 105.33 13.4601C105.184 13.1205 105.127 12.7471 105.165 12.3776C105.203 12.008 105.335 11.6554 105.548 11.3554C105.761 11.0554 106.047 10.8185 106.377 10.6687L108.171 9.84973L109.964 9.03967Z" fill="white"/>
</g>
<path d="M285.134 338.794C285.131 338.872 285.123 338.95 285.108 339.027C285.101 339.046 285.101 339.066 285.108 339.085C284.496 343.265 282.813 347.2 280.23 350.485C280.2 350.511 280.187 350.556 280.161 350.583C276.192 355.681 270.437 359.36 264.614 361.669C258.664 364.055 252.632 365.017 248.337 364.686H248.241C242.986 364.283 237.219 364.985 232.172 365.961C231.643 366.064 231.113 366.163 230.583 366.279C227.252 366.968 223.964 367.827 220.707 368.776L220.095 368.951L219.687 369.063C216.647 348.547 214.588 327.538 214.588 327.538L276.691 338.911C279.486 339.434 282.353 339.394 285.134 338.794Z" fill="#2CA677"/>
<path d="M157.597 241.271C154.331 244.61 149.958 245.255 145.663 246.239C135.904 248.477 127.722 245.935 127.292 234.375C127.014 226.936 127.779 219.493 132.148 213.317C137.381 205.919 145.419 200.991 153.428 197.393C153.428 197.393 157.102 216.763 173.839 217.604C190.577 218.446 186.503 241.186 166.891 237.396" stroke="black" stroke-width="2.0006" stroke-miterlimit="10"/>
<path d="M170.178 247.08C170.612 247.08 171.012 247.08 171.416 247.049C171.514 247.042 171.613 247.042 171.711 247.049H171.75L172.519 246.978" stroke="black" stroke-width="2.0006" stroke-miterlimit="10"/>
<path d="M188.722 199.767C185.978 196.405 182.698 193.549 179.024 191.321C178.615 191.044 178.192 190.79 177.756 190.56C177.322 190.305 176.888 190.059 176.453 189.831C175.537 189.343 174.586 188.882 173.613 188.488C167.87 186.01 161.703 184.742 155.477 184.76C121.985 184.76 131.292 214.626 131.292 214.626" stroke="black" stroke-width="2.0006" stroke-miterlimit="10"/>
<path d="M194.281 272.752C193.125 266.405 194.572 256.528 196.174 248.628C197.612 241.593 199.184 236.137 199.184 236.137C201.555 221.779 201.455 214.081 200.356 210.12C198.472 203.125 193.486 207.659 193.486 207.659" stroke="black" stroke-width="2.0006" stroke-miterlimit="10"/>
<path d="M200.356 210.121C198.472 203.126 193.486 207.659 193.486 207.659C192.624 205.637 191.56 203.712 190.311 201.917C189.808 201.195 189.278 200.491 188.722 199.805C190.212 195.727 194.185 193.297 198.276 192.97C209.016 192.12 219.604 199.447 222.839 209.978C225.762 219.497 224.038 229.818 223.66 239.584C223.508 243.818 222.922 250.325 226.058 253.754C226.223 253.928 226.379 254.085 226.557 254.241C229.163 256.555 233.314 256.685 238.235 256.34C239.668 256.238 241.175 256.112 242.734 255.965C247.511 255.517 252.723 255.132 257.756 256.009L258.255 256.094C258.103 264.553 257.6 273.039 257.183 281.498C256.961 285.615 256.749 289.737 256.64 293.859C249.227 291.304 239.703 287.67 232.355 285.101L228.437 283.709C215.882 279.3 205.824 275.823 194.081 273.039C189.551 271.96 184.774 270.998 179.493 270.107L173.878 269.091C173.502 269.024 173.161 268.821 172.916 268.518C172.671 268.216 172.538 267.834 172.54 267.44V246.964C176.29 246.636 179.916 245.418 183.133 243.405C186.35 241.393 189.071 238.64 191.084 235.363C196.517 226.358 197.034 217.143 194.064 209.056C193.958 208.733 193.835 208.416 193.695 208.107C193.662 208.014 193.624 207.923 193.582 207.834C193.582 207.807 193.556 207.762 193.543 207.731" stroke="black" stroke-width="2.0006" stroke-miterlimit="10"/>
<path d="M55.4001 283.708C57.1373 269.834 57.9364 255.723 59.6214 241.768" stroke="black" stroke-width="2.0006" stroke-miterlimit="10"/>
<path d="M59.8998 239.584C60.3732 235.806 60.9334 232.029 61.6369 228.296C61.663 228.113 61.6934 227.938 61.7325 227.768C62.1233 225.557 62.5576 223.36 63.0353 221.162C64.4858 214.588 69.5496 209.776 73.1498 204.419L73.3713 203.846C81.1386 192.201 85.4387 178.472 85.7441 164.344C85.831 159.233 85.6356 149.127 79.9508 147.042C76.7588 145.865 73.3713 148.165 71.6038 150.792C70.8779 151.877 70.2938 153.055 69.8666 154.297" stroke="black" stroke-width="2.0006" stroke-miterlimit="10"/>
<path d="M111.523 402.795C97.6563 362.219 104.231 317.892 104.231 317.892L83.7808 318.555L29.8338 320.318C26.6654 320.426 23.5114 319.832 20.5851 318.575C17.6587 317.319 15.0282 315.43 12.8713 313.035C10.7143 310.641 9.08127 307.797 8.08244 304.697C7.08361 301.596 6.74228 298.311 7.08154 295.062L23.1067 234.771" stroke="black" stroke-width="2.0006" stroke-miterlimit="10"/>
<path d="M23.884 231.826L25.2911 226.545L26.9239 220.557" stroke="black" stroke-width="2.0006" stroke-miterlimit="10"/>
<path d="M28.314 215.401L29.2477 211.941C30.4845 207.348 30.1784 202.458 28.3792 198.067L26.5248 193.501C25.3131 189.697 24.9353 187.858 26.4553 184.138C27.1745 182.384 28.184 180.771 29.4388 179.372C33.0999 175.21 38.2548 173.142 43.5662 172.435C48.8775 171.728 54.7403 172.278 59.0137 175.827C61.9147 178.235 64.6594 183.968 62.7616 187.714C61.3849 190.44 58.4709 191.232 55.9911 190.257C55.1232 189.922 54.3416 189.386 53.7067 188.69C50.7797 185.53 44.5867 184.841 42.4153 187.916" stroke="black" stroke-width="2.0006" stroke-miterlimit="10"/>
<path d="M256.518 298.886C256.518 297.763 256.557 296.649 256.601 295.512V295.422C256.601 294.908 256.627 294.375 256.658 293.86" stroke="black" stroke-width="2.0006" stroke-miterlimit="10"/>
<path d="M250.946 191.382C245.861 194.184 239.616 201.228 250.152 217.788C253.626 223.244 257.296 229.143 257.812 235.878C258.294 242.609 258.448 249.361 258.273 256.108" stroke="black" stroke-width="2.0006" stroke-miterlimit="10"/>
<path d="M201.625 325.188L213.715 327.399L214.584 327.555L220.129 328.576L276.678 338.928C279.477 339.453 282.349 339.413 285.133 338.811C289.969 337.762 294.326 335.079 297.513 331.187C300.701 327.295 302.535 322.417 302.726 317.329L294.371 246.833L292.521 231.786C291.933 227.054 292.919 222.257 295.317 218.176L297.797 213.924C297.797 213.924 302.114 207.435 294.562 206.96C290.492 206.714 286.258 207.855 282.58 209.574C280.478 210.536 277.525 212.259 276.339 214.627C275.857 215.523 275.694 216.565 275.879 217.572C276.747 222.195 282.393 224.146 286.119 222.195" stroke="black" stroke-width="2.0006" stroke-miterlimit="10"/>
<path d="M297.053 207.295C297.053 207.295 301.322 204.676 298.434 198.236C297.409 195.945 294.304 194.356 287.621 194.795C269.816 195.963 262.841 214.831 276.36 214.625" stroke="black" stroke-width="2.0006" stroke-miterlimit="10"/>
<path d="M292.998 194.764C296.95 189.152 289.958 183.781 284.864 183.965C280.061 184.139 275.201 185.97 270.993 188.261C265.139 191.448 257.582 197.62 259.745 205.43C260.383 207.73 265.434 210.572 268.735 208.929" stroke="black" stroke-width="2.0006" stroke-miterlimit="10"/>
<path d="M259.371 202.655C259.371 202.655 259.371 202.655 259.371 202.681C256.614 208.11 243.559 202.681 250.929 191.381C252.651 188.881 254.715 186.651 257.057 184.762C275.435 169.285 279.543 185.021 279.517 184.086" stroke="black" stroke-width="2.0006" stroke-miterlimit="10"/>
<path d="M267.371 209.056C267.371 209.056 274.094 213.979 272.031 222.182" stroke="black" stroke-width="2.0006" stroke-miterlimit="10"/>
<path d="M30.6853 169.675C30.251 167.912 30.3074 165.687 31.3237 162.841C32.7872 158.75 37.0519 156.065 41.2037 154.297C42.7193 153.652 44.2437 153.12 45.5465 152.703C50.0761 151.271 55.0487 150.51 59.878 151.012C61.5055 151.174 63.1149 151.492 64.6855 151.961C66.4972 152.499 68.2309 153.285 69.8405 154.297C73.8099 156.812 76.4981 160.63 78.1137 165.642C79.5207 169.966 80.0636 175.104 76.5806 177.803" stroke="black" stroke-width="2.0006" stroke-miterlimit="10"/>
<path d="M76.8973 235.332L75.6162 241.723C75.5737 241.938 75.4896 242.142 75.369 242.323C75.2484 242.503 75.0937 242.657 74.9142 242.775C74.7346 242.893 74.5339 242.972 74.324 243.008C74.114 243.044 73.8992 243.036 73.6923 242.985C68.7631 241.781 64.442 240.662 59.8993 239.584C57.6454 239.038 55.3176 238.523 52.8509 237.99C43.2097 235.936 33.5816 233.618 23.8883 231.827C19.8365 231.08 15.7802 230.431 11.6979 229.943C9.41359 229.67 7.09885 229.558 4.80148 229.384C4.29929 229.372 3.81269 229.202 3.40741 228.896C1.23598 227.258 3.40742 221.932 3.88079 219.721C3.88079 219.694 3.88079 219.663 3.88079 219.636C4.21519 217.94 13.6739 218.427 26.8979 220.553C31.5101 221.301 36.5782 222.232 41.8895 223.355C49.3549 224.935 56.0863 226.64 61.5887 228.278C62.5355 228.565 63.4431 228.838 64.3074 229.111C64.3074 229.111 64.3074 229.111 64.3334 229.111C65.4322 229.469 66.4658 229.813 67.4386 230.158C73.5837 232.32 77.1231 234.199 76.8973 235.332Z" fill="#2CA677"/>
<path d="M76.8973 235.332L75.6162 241.723C75.5737 241.938 75.4896 242.142 75.369 242.323C75.2484 242.503 75.0937 242.657 74.9142 242.775C74.7346 242.893 74.5339 242.972 74.324 243.008C74.114 243.044 73.8992 243.036 73.6923 242.985C68.7631 241.781 64.442 240.662 59.8993 239.584C57.6454 239.038 55.3176 238.523 52.8509 237.99C43.2097 235.936 33.5816 233.618 23.8883 231.827C19.8365 231.08 15.7802 230.431 11.6979 229.943C9.41359 229.67 7.09885 229.558 4.80148 229.384C4.29929 229.372 3.81269 229.202 3.40741 228.896C1.23598 227.258 3.40742 221.932 3.88079 219.721C3.88079 219.694 3.88079 219.663 3.88079 219.636C4.21519 217.94 13.6739 218.427 26.8979 220.553C31.5101 221.301 36.5782 222.232 41.8895 223.355C49.3549 224.935 56.0863 226.64 61.5887 228.278C62.5355 228.565 63.4431 228.838 64.3074 229.111C64.3074 229.111 64.3074 229.111 64.3334 229.111C65.4322 229.469 66.4658 229.813 67.4386 230.158C73.5837 232.32 77.1231 234.199 76.8973 235.332Z" stroke="black" stroke-width="2.0006" stroke-miterlimit="10"/>
<path d="M63.3741 184.273L64.6074 186.82C66.1578 188.57 68.3032 189.675 71.2433 188.914C77.0107 187.437 77.5796 182.51 76.5764 177.801C76.404 176.946 76.1806 176.103 75.9076 175.277C74.5569 171.124 72.468 167.78 69.5409 165.341C67.4611 163.606 65.0576 162.329 62.4794 161.591C60.3786 160.965 58.2112 160.609 56.0259 160.53C51.7322 160.377 47.4448 160.983 43.3491 162.32C39.2538 163.614 33.6515 165.838 30.6723 169.656C30.005 170.494 29.4767 171.441 29.1089 172.457C28.1926 175.026 28.0362 177.107 28.3576 178.79L28.6659 180.357" stroke="black" stroke-width="2.0006" stroke-miterlimit="10"/>
<path d="M64.9717 152.058L66.4048 145.94L68.1071 138.735C68.3474 137.696 68.3775 136.617 68.1955 135.566C68.0135 134.514 67.6233 133.512 67.0493 132.623C66.4752 131.734 65.7296 130.976 64.8588 130.397C63.9881 129.817 63.0109 129.429 61.9882 129.256C61.5878 129.188 61.1824 129.155 60.7766 129.157C59.0582 129.153 57.3903 129.756 56.0514 130.867C54.7126 131.977 53.7837 133.527 53.42 135.257C52.9857 137.343 52.4429 139.881 51.8436 142.74C51.2747 145.453 50.645 148.424 49.9762 151.557" stroke="black" stroke-width="2.0006" stroke-miterlimit="10"/>
<path d="M47.9611 161.173V161.16" stroke="black" stroke-width="1.33373" stroke-miterlimit="10"/>
<path d="M42.4275 187.913C41.9932 190.111 41.7457 191.493 41.7587 191.731C41.7587 191.731 41.7587 191.731 41.7587 191.762C39.8783 204.786 34.3456 211.749 28.3266 215.379C24.6451 217.538 20.5335 218.801 16.3059 219.071" stroke="black" stroke-width="2.0006" stroke-miterlimit="10"/>
<path d="M56.0255 190.252C56.0255 190.252 45.9414 217.951 61.7103 227.771C62.5441 228.287 63.4153 228.736 64.3161 229.114C65.3952 229.575 66.5093 229.945 67.647 230.219" stroke="black" stroke-width="2.0006" stroke-miterlimit="10"/>
<path d="M74.7823 242.853C74.7823 242.853 74.8518 244.133 59.6214 241.766C54.41 240.96 47.4049 239.725 37.9853 237.859C32.079 236.695 27.1715 235.661 23.1066 234.77C1.74844 230.062 3.40307 228.898 3.40307 228.898" stroke="black" stroke-width="2.0006" stroke-miterlimit="10"/>
<path d="M117.695 87.1523C114.446 104.898 103.745 123.579 90.7689 135.569C85.4619 140.493 79.2907 143.925 72.6288 145.277C70.5846 145.705 68.5045 145.926 66.4185 145.935L68.1079 138.734C68.5227 136.96 68.3204 135.093 67.5363 133.457C66.7522 131.821 65.436 130.521 63.8171 129.782C63.2322 129.524 62.6201 129.336 61.9931 129.223C61.5912 129.154 61.1844 129.121 60.7771 129.124C59.055 129.122 57.3843 129.729 56.0449 130.844C54.7055 131.96 53.7789 133.516 53.4203 135.252C53.1554 136.558 52.834 138.04 52.4866 139.66C35.9837 128.417 28.8267 104.37 29.6214 84.8428C29.8733 78.3532 30.2207 69.8093 32.9784 63.2033C33.909 60.8489 35.2984 58.7163 37.0607 56.9374C44.8779 49.3558 55.5787 45.8961 66.6139 45.377C75.0839 45.7886 83.4194 47.7181 91.2466 51.0789C105.839 57.4298 121.065 68.6904 117.695 87.1523Z" fill="#2CA677"/>
<path d="M117.695 87.1523C114.446 104.898 103.745 123.579 90.7689 135.569C85.4619 140.493 79.2907 143.925 72.6288 145.277L74.1705 138.734C74.4108 137.695 74.4409 136.616 74.2589 135.564C74.0769 134.513 73.6867 133.511 73.1126 132.622C72.5385 131.732 71.7929 130.974 70.9221 130.395C70.0514 129.816 69.0742 129.427 68.0514 129.254C67.651 129.186 67.2456 129.153 66.8397 129.156C65.7927 129.151 64.7566 129.376 63.7997 129.814C63.2149 129.555 62.6027 129.367 61.9757 129.254C61.5739 129.186 61.1671 129.153 60.7597 129.156C59.0448 129.155 57.3815 129.76 56.0462 130.869C54.711 131.978 53.7843 133.525 53.4203 135.252C53.1554 136.558 52.834 138.04 52.4866 139.66C35.9837 128.417 28.8267 104.37 29.6214 84.8428C29.8733 78.3532 30.2207 69.8093 32.9784 63.2033C33.909 60.8489 35.2984 58.7163 37.0607 56.9374C44.8779 49.3558 55.5787 45.8961 66.6139 45.377C75.0839 45.7886 83.4194 47.7181 91.2466 51.0789C105.839 57.4298 121.065 68.6904 117.695 87.1523Z" fill="#2CA677"/>
<path d="M117.694 87.156C114.45 104.902 103.749 123.583 90.7684 135.573C83.8198 141.991 75.4338 145.894 66.4049 145.939L68.1074 138.733C68.3477 137.694 68.3778 136.615 68.1958 135.563C68.0138 134.512 67.6235 133.51 67.0495 132.621C66.4754 131.732 65.7297 130.974 64.859 130.394C63.9882 129.815 63.011 129.427 61.9883 129.254C61.5878 129.185 61.1825 129.152 60.7766 129.155C59.0581 129.151 57.3902 129.754 56.0513 130.864C54.7124 131.975 53.7836 133.524 53.4198 135.255C52.9855 137.341 52.4427 139.879 51.8433 142.739C31.4753 133.434 22.681 106.397 23.5626 84.8466C23.8102 78.357 24.1576 69.813 26.9197 63.207C27.8486 60.8517 29.2382 58.7188 31.002 56.9412C46.38 42.0374 72.8411 43.0668 91.2461 51.0826C105.834 57.4335 121.064 68.6896 117.694 87.156Z" stroke="black" stroke-width="2.0006" stroke-miterlimit="10"/>
<path d="M117.607 87.7969C121.121 92.1293 124.417 99.3887 121.516 110.175C121.07 111.877 120.431 113.518 119.614 115.067C115.002 123.57 106.099 125.061 100.097 124.971" stroke="black" stroke-width="2.0006" stroke-miterlimit="10"/>
<path d="M114.932 96.8691C117.972 100.62 120.782 106.559 119.61 115.076C119.423 116.443 119.149 117.796 118.789 119.126C114.446 135.203 98.5033 134.411 93.0312 133.627" stroke="black" stroke-width="2.0006" stroke-miterlimit="10"/>
<path d="M29.7908 119.042C26.3947 119.763 7.17752 115.699 6.943 99.1885C6.87411 96.9506 7.28331 94.7244 8.14164 92.6675C11.1512 85.6766 19.09 83.4657 23.663 82.7451" stroke="black" stroke-width="2.0006" stroke-miterlimit="10"/>
<path d="M26.3337 110.764C22.8594 110.984 4.39794 104.194 6.4 87.8089C6.63877 85.5896 7.34582 83.451 8.47155 81.5431C12.3801 75.049 20.5621 74.0062 25.1829 73.9346" stroke="black" stroke-width="2.0006" stroke-miterlimit="10"/>
<path d="M104.231 317.896C104.231 317.896 104.627 314.785 106.798 307.759" stroke="black" stroke-width="2.0006" stroke-miterlimit="10"/>
<path d="M175.654 269.391V269.422C175.498 280.123 168.271 282.549 162.335 283.713C147.704 286.595 137.546 275.598 137.993 266.021" stroke="black" stroke-width="2.0006" stroke-miterlimit="10"/>
<path d="M140.768 210.51C140.768 210.51 141.202 215.433 137.046 221.783C135.934 223.493 139.782 224.196 140.698 224.514" stroke="black" stroke-width="2.0006" stroke-miterlimit="10"/>
<path d="M157.524 221.164C159.992 216.759 159.176 211.512 155.701 209.444C152.226 207.376 147.408 209.271 144.94 213.677C142.472 218.082 143.288 223.329 146.763 225.397C150.238 227.465 155.056 225.57 157.524 221.164Z" stroke="black" stroke-width="2.0006" stroke-miterlimit="10"/>
<path d="M140.284 215.465C142.752 211.039 141.923 205.775 138.432 203.708C134.941 201.64 130.11 203.552 127.642 207.977C125.174 212.403 126.003 217.666 129.494 219.734C132.985 221.802 137.816 219.89 140.284 215.465Z" stroke="black" stroke-width="2.00749" stroke-miterlimit="10"/>
<path d="M134.271 206.064C134.996 206.057 135.71 206.25 136.338 206.624C136.922 206.993 137.418 207.495 137.787 208.09C138.156 208.685 138.39 209.359 138.47 210.061C138.706 211.811 138.352 213.591 137.467 215.105C136.164 217.41 133.993 218.896 131.843 218.896C131.118 218.904 130.405 218.713 129.776 218.341C129.192 217.97 128.697 217.469 128.328 216.873C127.959 216.278 127.725 215.605 127.644 214.903C127.408 213.152 127.762 211.37 128.647 209.855C129.95 207.555 132.121 206.064 134.271 206.064ZM134.271 204.722C131.761 204.722 129.099 206.369 127.526 209.197C125.355 213.073 126.072 217.701 129.129 219.491C129.954 219.981 130.891 220.236 131.843 220.229C134.353 220.229 137.015 218.578 138.592 215.754C140.763 211.882 140.042 207.25 136.985 205.46C136.159 204.973 135.222 204.72 134.271 204.726V204.722Z" fill="white"/>
<path d="M138.59 215.762C140.76 211.888 140.043 207.273 136.987 205.455C133.932 203.637 129.695 205.305 127.525 209.179C125.354 213.053 126.072 217.668 129.127 219.486C132.182 221.304 136.419 219.637 138.59 215.762Z" fill="#2CA677"/>
<path d="M157.714 219.89C159.885 215.998 159.156 211.369 156.087 209.551C153.017 207.733 148.77 209.415 146.599 213.307C144.428 217.199 145.157 221.828 148.227 223.646C151.296 225.464 155.544 223.783 157.714 219.89Z" fill="#2CA677"/>
<path d="M140.712 212.134C140.712 212.134 142.015 210.134 144.955 213.674" stroke="black" stroke-width="2.0006" stroke-miterlimit="10"/>
<path d="M153.495 217.024C154.203 216.069 154.139 214.794 153.354 214.176C152.568 213.558 151.358 213.831 150.651 214.786C149.944 215.741 150.007 217.016 150.792 217.634C151.578 218.252 152.788 217.978 153.495 217.024Z" fill="#1E4145"/>
<path d="M138.844 212.677C139.552 211.722 139.489 210.447 138.703 209.829C137.918 209.211 136.708 209.484 136 210.439C135.293 211.394 135.356 212.669 136.142 213.287C136.927 213.905 138.137 213.632 138.844 212.677Z" fill="#1E4145"/>
<path d="M149.627 232.494C140.733 240.281 136.065 233.344 136.065 233.344" stroke="black" stroke-width="2.0006" stroke-miterlimit="10"/>
<path d="M55.4001 277.258C63.0914 275.84 70.8521 274.73 78.4738 273.28C82.1913 272.575 85.9059 271.892 89.6176 271.23C106.155 268.33 122.667 266.074 139.387 266.002C140.194 266.003 140.974 265.702 141.583 265.156C142.192 264.609 142.589 263.855 142.7 263.03L143.009 260.645L144.959 245.772" stroke="black" stroke-width="2.0006" stroke-miterlimit="10"/>
<path d="M172.518 246.963V246.892V246.533" stroke="black" stroke-width="2.0006" stroke-miterlimit="10"/>
<path d="M3.37305 402.794H98.6337H109.408H201.707H219H334.277" stroke="black" stroke-width="2.0006" stroke-miterlimit="10"/>
<path d="M214.579 327.556C214.579 327.556 216.629 348.564 219.678 369.08C221.684 382.579 224.138 395.858 226.7 402.795" stroke="black" stroke-width="2.0006" stroke-miterlimit="10"/>
<path d="M219.678 369.081L220.082 368.969L220.699 368.794C223.956 367.845 227.243 367.004 230.574 366.297C231.104 366.181 231.634 366.082 232.164 365.979C235.878 365.273 239.644 364.894 243.42 364.847C245.092 364.847 246.695 364.789 248.228 364.704H248.323C254.747 364.328 260.114 363.267 264.601 361.687C271.927 359.118 276.873 355.171 280.148 350.601C280.174 350.574 280.187 350.529 280.217 350.502C282.6 347.096 284.261 343.213 285.095 339.103C285.088 339.084 285.088 339.064 285.095 339.045L285.138 338.83" stroke="black" stroke-width="2.0006" stroke-miterlimit="10"/>
</svg>
