<svg width="591" height="599" viewBox="0 0 591 599" fill="none" xmlns="http://www.w3.org/2000/svg">
<path d="M85.5977 93.1292C85.8165 92.8706 86.0752 92.6318 86.314 92.3863C133.064 45.9544 208.609 39.9846 268.931 58.9288C298.422 68.182 321.558 94.1839 349.285 107.085C358.511 111.364 368.235 114.183 378.868 114.475C406.688 115.237 432.67 96.8438 460.416 98.9598C495.837 101.613 516.698 137.432 521.739 169.271C530.057 221.918 505.966 279.043 475.971 321.103C459.507 344.213 440.981 365.545 423.204 387.594C409.414 404.754 400.326 430.709 418.561 448.539C442.772 472.199 450.221 419.838 478.763 431.79C549.824 461.54 541.718 525.318 525.587 552.62C510.861 577.593 482.471 594.349 453.524 596.717C448.929 597.095 444.31 597.095 439.714 596.717" stroke="#8ED49A" stroke-width="3.58189" stroke-miterlimit="10"/>
<path d="M213.677 425.476C213.677 425.549 213.677 425.622 213.677 425.695C213.677 430.57 235.261 449.163 238.511 452.606" stroke="#8ED49A" stroke-width="3.58189" stroke-miterlimit="10"/>
<path d="M146.516 596.478C139.969 596.696 133.78 596.67 127.903 596.431C59.8873 588.08 8.72592 452.605 88.7547 411.479" stroke="#8ED49A" stroke-width="3.58189" stroke-miterlimit="10"/>
<path d="M223.659 245.379V108.12C223.654 104.144 222.072 100.332 219.261 97.5206C216.449 94.7091 212.638 93.1273 208.662 93.1221H16.9643C12.9941 93.1361 9.19101 94.7217 6.38674 97.5322C3.58246 100.343 2.00524 104.149 2 108.12V380.27C2.00527 384.244 3.5879 388.053 6.4001 390.86C9.2123 393.667 13.024 395.243 16.9975 395.241H208.695C210.555 395.254 212.398 394.9 214.121 394.2" stroke="black" stroke-width="3.58189" stroke-linecap="round" stroke-linejoin="round"/>
<path d="M204.583 102.31H21.077C14.2558 102.31 8.72607 107.84 8.72607 114.661V373.751C8.72607 380.572 14.2558 386.102 21.077 386.102H204.583C211.404 386.102 216.933 380.572 216.933 373.751V114.661C216.933 107.84 211.404 102.31 204.583 102.31Z" fill="#2CA677"/>
<path d="M200.775 124.272H27.1593C23.7487 124.272 20.9839 127.037 20.9839 130.448V171.228C20.9839 174.639 23.7487 177.404 27.1593 177.404H200.775C204.186 177.404 206.95 174.639 206.95 171.228V130.448C206.95 127.037 204.186 124.272 200.775 124.272Z" fill="#2CA677"/>
<path d="M112.826 146.652C115.863 146.652 118.325 144.19 118.325 141.153C118.325 138.116 115.863 135.654 112.826 135.654C109.789 135.654 107.327 138.116 107.327 141.153C107.327 144.19 109.789 146.652 112.826 146.652Z" fill="#8ED49A"/>
<path d="M103.587 166.021C100.193 166.021 97.3031 163.203 98.5531 160.047V160.047C99.3056 158.147 100.43 156.417 101.859 154.957C103.289 153.497 104.996 152.337 106.88 151.545C108.764 150.754 110.786 150.346 112.83 150.346C114.873 150.346 116.896 150.754 118.78 151.545C120.664 152.337 122.37 153.497 123.8 154.957C125.23 156.417 126.354 158.147 127.107 160.047V160.047C128.357 163.203 125.467 166.021 122.072 166.021H103.587Z" fill="#8ED49A"/>
<path d="M39.5835 201.123H184.179" stroke="white" stroke-width="3.58189" stroke-miterlimit="10"/>
<path d="M39.5835 215.358H184.179" stroke="white" stroke-width="3.58189" stroke-miterlimit="10"/>
<path d="M39.5835 307.015H184.179" stroke="white" stroke-width="3.58189" stroke-miterlimit="10"/>
<path d="M73.167 320.473H150.596" stroke="white" stroke-width="3.58189" stroke-miterlimit="10"/>
<path d="M68.6485 262.028C72.8323 265.962 73.0333 272.544 69.0973 276.727L64.6897 281.411C63.7541 282.405 62.6319 283.205 61.3871 283.766C60.1422 284.327 58.7991 284.637 57.4345 284.678C56.0699 284.72 54.7105 284.492 53.4338 284.008C52.1571 283.525 50.9883 282.794 49.994 281.859C48.9996 280.923 48.1993 279.801 47.6387 278.556C47.078 277.311 46.7681 275.968 46.7265 274.603C46.6849 273.239 46.9125 271.879 47.3963 270.603C47.8802 269.326 48.6107 268.157 49.5462 267.163L53.9516 262.479C57.8855 258.296 64.4655 258.094 68.6485 262.028V262.028Z" fill="#2CA677"/>
<path d="M87.7461 256.881L83.333 261.576C79.4 265.76 72.8195 265.963 68.6363 262.029V262.029C64.453 258.095 64.2521 251.514 68.1877 247.331L72.6027 242.64C74.496 240.638 77.1048 239.466 79.8591 239.382C82.6134 239.297 85.2892 240.307 87.3017 242.189C89.2962 244.085 90.4617 246.693 90.5449 249.444C90.6281 252.195 89.6224 254.867 87.7461 256.881Z" fill="#8ED49A"/>
<path d="M132.58 248.895C132.089 246.521 136.958 242.594 138.549 241.738C144.473 238.634 153.587 240.975 156.83 246.905C161.436 255.313 155.194 265.932 147.203 273.945C139.286 281.885 126.665 280.659 118.961 272.511C111.702 264.835 104.962 254.983 108.667 247.41C115.592 233.254 130.862 240.445 132.58 248.895Z" fill="#8ED49A"/>
<path d="M110.272 273.133H126.384" stroke="white" stroke-width="3.58189" stroke-linecap="round" stroke-linejoin="round"/>
<path d="M118.326 281.185V265.073" stroke="white" stroke-width="3.58189" stroke-linecap="round" stroke-linejoin="round"/>
<path d="M429.492 276.754C429.492 276.754 403.498 262.747 380.95 255.316C374.387 253.153 366.967 257.979 364.122 264.277V264.277C361.521 270.036 355.617 283.129 351.816 291.558C350.04 295.495 345.068 296.755 341.629 294.143V294.143C337.172 290.758 330.773 293.986 330.847 299.582L330.887 302.551C330.914 304.662 330.124 306.701 328.682 308.242L313.005 324.986C298.418 340.566 272.686 336.361 263.818 316.947L252.974 293.209C252.18 291.47 251.969 289.522 252.373 287.653L253.354 283.122C254.421 278.188 249.586 274.041 244.873 275.846V275.846C241.38 277.184 237.493 275.23 236.484 271.629L233.361 260.487C230.935 251.83 222.188 246.684 213.668 249.559C196.822 255.246 168.799 266.835 143.398 287.274C103.772 319.16 92.4226 368.862 88.7412 411.48C85.0598 454.097 89.4841 499.037 145.786 514.22C145.786 514.22 172.239 520.853 193.777 511.978C200.49 509.206 210.24 506.619 220.469 504.35V504.35C220.26 504.425 220.103 504.586 220.036 504.797C219.74 505.727 218.777 508.544 216.944 512.105C211.806 522.088 211.836 535.998 221.984 540.8C232.741 545.89 247.587 551.521 265.879 555.067C306.149 562.874 391.245 567.544 434.135 530.332C477.025 493.12 478.776 431.77 478.776 431.77C478.776 431.77 492.706 313.322 429.492 276.754ZM209.133 381.438C207.672 381.39 206.258 380.913 205.066 380.068C203.875 379.222 202.958 378.044 202.431 376.681C201.904 375.319 201.789 373.831 202.101 372.403C202.413 370.976 203.137 369.671 204.185 368.653C205.233 367.634 206.557 366.946 207.992 366.674C209.428 366.402 210.912 366.559 212.26 367.124C213.607 367.689 214.759 368.638 215.571 369.853C216.383 371.068 216.82 372.495 216.827 373.956C216.792 375.966 215.963 377.881 214.522 379.283C213.08 380.685 211.143 381.459 209.133 381.438ZM372.659 449.726C371.532 455.457 365.489 491.714 350.551 495.972C335.613 500.231 320.868 490.971 286.024 494.586C286.024 494.586 285.143 494.62 283.566 494.701C273.861 495.202 263.574 491.617 260.577 482.373C256.088 468.526 259.731 453.941 263.376 444.468C266.037 437.553 272.159 432.852 279.374 431.161C295.332 427.42 324.635 422.26 341.178 429.887C364.719 440.738 373.807 443.982 372.659 449.726Z" fill="#2CA677"/>
<path d="M414.097 550.092V566.723C414.097 583.292 400.67 596.723 384.101 596.718C323.442 596.697 251.85 596.619 192.213 596.547C176.101 596.527 162.817 583.784 162.607 567.673C162.292 543.49 162.916 517.183 167.112 516.913C174.906 516.436 183.151 511.441 192.663 522.797C202.175 534.153 241.994 554.463 297.772 559.239C344.085 563.205 384.371 554.818 402.69 548.604C407.77 546.881 414.097 544.728 414.097 550.092V550.092Z" fill="#2CA677"/>
<path d="M209.133 360.325C216.867 360.325 223.162 366.454 223.162 373.99C223.162 381.525 216.867 387.654 209.133 387.654C201.399 387.654 195.11 381.525 195.11 373.99C195.11 366.454 201.399 360.325 209.133 360.325ZM209.133 355.539C209.133 355.541 209.131 355.543 209.129 355.543C198.744 355.545 190.328 363.802 190.328 373.99C190.328 384.178 198.745 392.436 209.133 392.436C219.52 392.436 227.938 384.178 227.938 373.99C227.938 363.802 219.515 355.538 209.136 355.536C209.134 355.536 209.133 355.538 209.133 355.539V355.539Z" fill="white"/>
<path d="M300.745 265.656C302.773 269.654 302.147 274.486 299.166 277.835L293.056 284.702C292.385 285.456 291.68 286.252 290.707 286.524V286.524C290.218 286.66 289.707 286.696 289.204 286.629C288.701 286.562 288.217 286.394 287.781 286.134V286.134C286.914 285.618 286.454 284.658 286.028 283.743L281.662 274.349C279.622 269.958 280.855 264.741 284.645 261.729V261.729C289.838 257.602 297.51 259.277 300.51 265.193L300.745 265.656Z" fill="#2CA677"/>
<path d="M296.458 280.867L300.237 296.046C301.079 299.43 300.31 303.012 298.153 305.752V305.752C292.913 312.404 282.485 311.128 279.005 303.409L277.985 301.146C276.414 297.663 276.483 293.66 278.174 290.233L283.762 278.903" fill="#2CA677"/>
<path d="M348.236 125.317C347.876 130.416 343.718 134.588 340.509 138.566V138.566V138.566C338.889 140.592 335.195 140.096 334.658 137.558C332.814 128.835 329.926 114.089 328.397 100.671C327.607 93.9318 325.246 90.3234 322.374 88.5059C316.45 84.7516 308.444 88.7646 308.444 88.7646L281.845 103.251C276.742 106.063 271.125 107.818 265.329 108.412C264.351 108.525 263.369 108.596 262.387 108.628C258.935 108.738 255.414 107.806 252.947 105.389C242.71 95.361 244.224 72.6704 260.012 72.3955C260.076 72.3944 260.141 72.4185 260.188 72.4628C260.344 72.6095 260.496 72.7592 260.646 72.9116C260.79 73.0585 261.092 72.8557 261.01 72.6668V72.6668C260.959 72.5504 261.049 72.4251 261.176 72.4308C262.08 72.4717 262.981 72.5791 263.869 72.7522V72.7522C264.526 72.8805 266.184 71.7553 266.064 71.0975C264.572 62.9552 269.385 54.2936 277.229 51.3405C282.893 49.2113 289.228 49.6159 295.138 50.8629C296.073 51.0486 297.002 51.2675 297.937 51.5262C312.756 55.9969 325.73 63.7643 335.315 76.7321C345.741 90.829 349.446 108.149 348.236 125.317Z" fill="#1E4145"/>
<path d="M178.315 381.81C162.084 454.111 224.389 441.999 305.353 427.744C334.28 422.657 358.896 435.213 373.157 446.928" stroke="black" stroke-width="3.58189" stroke-linejoin="round"/>
<path d="M229.032 245.035C192.239 254.089 148.831 276.051 124.952 305.86C93.6901 344.83 87.1432 396.648 87.8529 445.156C88.5162 492.55 138.178 525.284 183.257 515.043" stroke="black" stroke-width="3.58189" stroke-linejoin="round"/>
<path d="M248.089 227.331H248.115" stroke="black" stroke-width="3.58189" stroke-linejoin="round"/>
<path d="M377.137 384.476C377.137 384.476 378.463 415.844 373.157 446.927C370.749 461.115 366.962 475.244 361.051 486.308C359.465 489.23 357.133 491.681 354.293 493.411C351.452 495.141 348.205 496.089 344.88 496.158C338.819 496.268 332.758 496.027 326.725 495.435C274.735 490.553 226.008 501.265 190.474 513.039V513.039C187.485 514.019 186.484 517.896 188.928 519.877C214.641 540.713 271.539 571.738 372.368 556.659C518.96 534.769 473.145 341.195 473.145 341.195C469.165 320.34 456.734 300.978 441.79 286.312C424.862 269.729 392.041 258.765 369.728 251.82" stroke="black" stroke-width="3.58189" stroke-linejoin="round"/>
<path d="M291.317 215.378C291.317 215.378 246.716 207.418 252.693 154.818C255.346 131.416 260.46 117.102 265.296 108.386" stroke="black" stroke-width="3.58189" stroke-linejoin="round"/>
<path d="M333.557 201.541C341.796 189.23 340.535 172.886 343.122 168.773C347.102 162.392 363.022 142.486 353.47 135.316C351.268 133.664 349.165 133.326 347.255 133.711V133.711C342.124 134.854 333.981 134.415 332.975 129.255C331.349 120.913 329.514 110.434 328.397 100.658C326.029 79.9359 308.438 88.758 308.438 88.758L281.839 103.238C276.738 106.056 271.12 107.813 265.322 108.405C262.289 108.762 259.222 108.738 256.195 108.332C235.632 105.679 234.306 66.7492 257.893 71.1868V71.1868C258.548 71.3148 260.206 70.1892 260.085 69.5328C258.591 61.3904 263.409 52.7283 271.252 49.7751C276.917 47.6458 283.252 48.0504 289.162 49.2975C307.615 53.1911 323.886 61.2371 335.315 76.7321C347.454 93.1491 350.492 113.917 347.255 133.731" stroke="black" stroke-width="3.58189" stroke-linejoin="round"/>
<path d="M285.746 165.974H283.788C279.695 165.974 276.475 162.478 276.811 158.399V158.399L279.365 127.734" stroke="black" stroke-width="3.58189" stroke-linejoin="round"/>
<path d="M276.791 158.4H250.537C248.676 158.4 246.891 157.66 245.575 156.344C244.258 155.028 243.519 153.243 243.519 151.382V151.382C243.519 138.325 254.103 127.741 267.16 127.741H287.895M287.895 127.741V151.382C287.896 153.244 288.637 155.029 289.954 156.344C291.272 157.66 293.057 158.4 294.919 158.4H320.954C322.816 158.4 324.602 157.66 325.919 156.344C327.236 155.029 327.977 153.244 327.979 151.382V151.382C327.979 138.325 317.394 127.741 304.338 127.741H287.895Z" stroke="black" stroke-width="3.58189" stroke-linejoin="round"/>
<path d="M285.746 175.115C285.746 175.115 292.518 177.503 300.086 165.948" stroke="black" stroke-width="3.58189" stroke-linejoin="round"/>
<path d="M282.144 359.98L329.628 307.284C330.875 305.9 331.525 304.081 331.438 302.22L331.34 300.111C331.087 294.708 337.42 291.625 341.517 295.156V295.156C344.636 297.844 349.464 296.775 351.157 293.022L369.728 251.847V251.847C369.761 251.775 369.735 251.69 369.667 251.65C364.342 248.5 359.372 244.786 354.843 240.57C352.742 238.598 350.752 236.538 348.873 234.388C346.656 231.871 344.587 229.227 342.678 226.468L341.132 224.286" stroke="black" stroke-width="3.58189" stroke-linejoin="round"/>
<path d="M314.567 283.911L304.391 269.896V269.896C298.591 262.252 300.69 251.268 308.899 246.3L316.318 241.811L330.773 231.61C336.566 227.522 344.555 228.75 348.853 234.388V234.388V234.388C350.378 236.394 350.36 239.175 348.81 241.16L345.159 245.837L296.115 308.788C296.109 308.795 296.107 308.803 296.107 308.812V308.812C296.107 308.821 296.104 308.829 296.098 308.836L286.827 320.36" stroke="black" stroke-width="3.58189" stroke-linejoin="round"/>
<path d="M266.994 275.938L273.756 270.758C284.226 262.738 285.24 247.333 275.911 238.01L267.868 229.972C264.004 226.11 257.77 226.02 253.796 229.768V229.768C250.672 232.714 249.752 237.313 251.502 241.234L285.691 317.849C286.43 319.506 286.708 321.331 286.495 323.133V323.133C285.291 333.331 271.386 335.396 267.27 325.988L252.911 293.167C252.161 291.453 251.97 289.547 252.363 287.718L253.33 283.229C254.404 278.246 249.523 274.06 244.762 275.878V275.878C241.292 277.203 237.426 275.318 236.333 271.768L232.937 260.735C230.275 252.087 234.883 243.001 242.575 238.236C248.593 234.509 254.147 230.043 259.1 224.929L260.944 223.019" stroke="black" stroke-width="3.58189" stroke-linejoin="round"/>
<path d="M304.391 272.284L293.321 284.704C292.65 285.457 291.945 286.252 290.974 286.524V286.524C290.486 286.66 289.975 286.696 289.472 286.629C288.97 286.562 288.486 286.393 288.051 286.134V286.134C287.185 285.618 286.726 284.658 286.3 283.744L278.449 266.864" stroke="black" stroke-width="3.58189" stroke-linejoin="round"/>
<path d="M296.743 280.867L301.864 301.41" stroke="black" stroke-width="3.58189" stroke-linejoin="round"/>
<path d="M284.047 278.903L275.789 295.645" stroke="black" stroke-width="3.58189" stroke-linejoin="round"/>
<path d="M341.132 224.286L336.906 211.58C335.513 207.394 329.584 206.386 325.763 208.592V208.592" stroke="black" stroke-width="3.58189" stroke-linejoin="round"/>
<path d="M266.151 201.514L260.944 223.019" stroke="black" stroke-width="3.58189" stroke-linejoin="round"/>
<path d="M302.156 146.858C304.083 146.858 305.645 145.296 305.645 143.369C305.645 141.442 304.083 139.88 302.156 139.88C300.229 139.88 298.667 141.442 298.667 143.369C298.667 145.296 300.229 146.858 302.156 146.858Z" fill="black"/>
<path d="M271.73 146.858C273.657 146.858 275.219 145.296 275.219 143.369C275.219 141.442 273.657 139.88 271.73 139.88C269.803 139.88 268.241 141.442 268.241 143.369C268.241 145.296 269.803 146.858 271.73 146.858Z" fill="black"/>
<path d="M369.144 252.059C369.144 252.059 392.612 261.067 371.532 297.489C364.899 308.912 361.304 315.677 359.466 319.551" stroke="black" stroke-width="3.58189" stroke-linejoin="round"/>
<path d="M319.349 399.746C319.349 399.746 310.176 395.64 310.454 393.113C310.733 390.586 329.186 330.231 342.001 322.417C350.642 317.148 357.191 318.496 360.539 319.933C362.295 320.687 363.903 321.78 365.344 323.034C368.747 325.992 374.418 333.031 371.724 345.68C369.024 358.359 356.355 383.725 349.484 396.913C346.944 401.787 341.226 404.012 336.025 402.234V402.234" stroke="black" stroke-width="3.58189" stroke-linejoin="round"/>
<path d="M220.144 247.562C220.144 247.562 206.811 291.341 209.531 356.538" stroke="black" stroke-width="3.58189" stroke-linejoin="round"/>
<path d="M209.21 393.172C220.211 393.118 229.087 384.489 229.035 373.898C228.984 363.308 220.024 354.766 209.023 354.82C198.022 354.873 189.145 363.502 189.197 374.093C189.249 384.684 198.209 393.226 209.21 393.172Z" stroke="black" stroke-width="3.58189" stroke-linejoin="round"/>
<path d="M414.123 596.724V543.639V542.279" stroke="black" stroke-width="3.58189" stroke-linejoin="round"/>
<path d="M163.822 596.531V516.874V516.847" stroke="black" stroke-width="3.58189" stroke-linejoin="round"/>
<path d="M68.6567 596.365C68.6567 596.365 108.018 596.438 163.371 596.511C236.999 596.604 338.837 596.723 414.104 596.723C472.13 596.723 514.337 596.604 515.591 596.365" stroke="black" stroke-width="3.58189" stroke-linejoin="round"/>
<path d="M322.261 405.311C324.939 405.311 327.11 403.14 327.11 400.462C327.11 397.784 324.939 395.613 322.261 395.613C319.583 395.613 317.412 397.784 317.412 400.462C317.412 403.14 319.583 405.311 322.261 405.311Z" fill="white"/>
<path d="M333.611 406.253C336.288 406.253 338.459 404.082 338.459 401.404C338.459 398.726 336.288 396.555 333.611 396.555C330.933 396.555 328.762 398.726 328.762 401.404C328.762 404.082 330.933 406.253 333.611 406.253Z" fill="white"/>
<path d="M488.016 182.318C532.204 182.318 568.025 146.497 568.025 102.31C568.025 58.122 532.204 22.3008 488.016 22.3008C443.829 22.3008 408.008 58.122 408.008 102.31C408.008 146.497 443.829 182.318 488.016 182.318Z" fill="#2CA677"/>
<path d="M487.724 0C469.766 0.000670453 452.124 4.72832 436.572 13.7078C421.02 22.6873 408.105 35.6023 399.126 51.1547C390.143 66.7056 385.415 84.3476 385.415 102.306C385.415 120.265 390.143 137.907 399.126 153.458C408.105 169.01 421.02 181.925 436.572 190.904C452.124 199.884 469.766 204.612 487.724 204.612C505.683 204.612 523.325 199.884 538.877 190.904C554.429 181.925 567.344 169.01 576.323 153.458C585.302 137.906 590.029 120.264 590.029 102.306C590.029 84.3482 585.302 66.7067 576.323 51.1547C567.344 35.6023 554.429 22.6873 538.877 13.7078C523.325 4.72832 505.683 0.000670453 487.724 0Z" fill="#2CA677"/>
<path d="M512.424 75.0031C511.895 75.7627 510.849 75.947 510.092 75.414V75.414C509.339 74.8846 509.157 73.8468 509.682 73.0922L535.505 36.0418C536.034 35.2822 537.08 35.0979 537.837 35.6308V35.6308C538.59 36.1603 538.772 37.198 538.246 37.9527L512.424 75.0031Z" fill="white"/>
<path d="M459.24 140.816L456.274 145.055C454.871 147.062 455.36 149.827 457.366 151.23C459.373 152.634 462.138 152.145 463.541 150.138L466.507 145.899C467.91 143.892 467.421 141.127 465.415 139.723C463.408 138.32 460.643 138.809 459.24 140.816Z" fill="white"/>
<path d="M516.161 86.7952L478.286 140.941C476.296 143.827 472.919 144.974 470.797 143.495L460.038 135.98C457.922 134.501 457.856 130.965 459.872 128.073L497.747 73.9269C499.737 71.0415 503.113 69.8874 505.236 71.3732L515.995 78.8952C518.111 80.3677 518.177 83.9032 516.161 86.7952Z" fill="white"/>
<path d="M469.815 166.292C469.081 167.38 468.026 168.212 466.797 168.673C466.297 168.884 465.754 168.968 465.214 168.92C464.674 168.871 464.154 168.691 463.7 168.395L439.157 151.208C437.432 150.001 437.393 147.082 439.031 144.741C439.768 143.647 440.827 142.81 442.062 142.346C442.563 142.147 443.104 142.07 443.641 142.122C444.177 142.174 444.693 142.353 445.147 142.645L469.689 159.831C471.381 161.032 471.434 163.937 469.815 166.292Z" fill="white"/>
<path d="M520.877 283.58C536.714 283.58 549.552 270.741 549.552 254.905C549.552 239.068 536.714 226.229 520.877 226.229C505.04 226.229 492.202 239.068 492.202 254.905C492.202 270.741 505.04 283.58 520.877 283.58Z" fill="#8ED49A"/>
<path d="M511.65 256.543C516.746 256.543 520.877 252.412 520.877 247.317C520.877 242.221 516.746 238.09 511.65 238.09C506.554 238.09 502.423 242.221 502.423 247.317C502.423 252.412 506.554 256.543 511.65 256.543Z" fill="white"/>
<path d="M61.0749 544.096C76.9117 544.096 89.75 531.257 89.75 515.421C89.75 499.584 76.9117 486.746 61.0749 486.746C45.2381 486.746 32.3999 499.584 32.3999 515.421C32.3999 531.257 45.2381 544.096 61.0749 544.096Z" fill="#8ED49A"/>
<path d="M432.119 244.026C440.035 244.026 446.453 237.609 446.453 229.692C446.453 221.776 440.035 215.358 432.119 215.358C424.202 215.358 417.785 221.776 417.785 229.692C417.785 237.609 424.202 244.026 432.119 244.026Z" fill="#8ED49A"/>
<path d="M53.8444 516.502C58.9401 516.502 63.071 512.371 63.071 507.275C63.071 502.179 58.9401 498.048 53.8444 498.048C48.7486 498.048 44.6177 502.179 44.6177 507.275C44.6177 512.371 48.7486 516.502 53.8444 516.502Z" fill="white"/>
<path d="M535.496 535.951C543.413 535.951 549.831 529.533 549.831 521.616C549.831 513.7 543.413 507.282 535.496 507.282C527.58 507.282 521.162 513.7 521.162 521.616C521.162 529.533 527.58 535.951 535.496 535.951Z" fill="#8ED49A"/>
<path d="M427.011 231.344C429.832 231.344 432.119 229.057 432.119 226.236C432.119 223.416 429.832 221.129 427.011 221.129C424.19 221.129 421.904 223.416 421.904 226.236C421.904 229.057 424.19 231.344 427.011 231.344Z" fill="white"/>
<path d="M529.533 522.214C531.5 522.214 533.095 520.619 533.095 518.652C533.095 516.685 531.5 515.09 529.533 515.09C527.566 515.09 525.971 516.685 525.971 518.652C525.971 520.619 527.566 522.214 529.533 522.214Z" fill="white"/>
<path d="M197.604 63.8569C205.521 63.8569 211.939 57.4392 211.939 49.5227C211.939 41.6061 205.521 35.1885 197.604 35.1885C189.688 35.1885 183.27 41.6061 183.27 49.5227C183.27 57.4392 189.688 63.8569 197.604 63.8569Z" fill="#8ED49A"/>
<path d="M195.429 53.3576C198.25 53.3576 200.536 51.0709 200.536 48.2501C200.536 45.4293 198.25 43.1426 195.429 43.1426C192.608 43.1426 190.321 45.4293 190.321 48.2501C190.321 51.0709 192.608 53.3576 195.429 53.3576Z" fill="white"/>
<path d="M492.209 448.705C521.53 448.705 545.3 424.935 545.3 395.613C545.3 366.291 521.53 342.521 492.209 342.521C462.887 342.521 439.117 366.291 439.117 395.613C439.117 424.935 462.887 448.705 492.209 448.705Z" fill="white"/>
<path d="M492.208 436.5C514.789 436.5 533.095 418.194 533.095 395.613C533.095 373.032 514.789 354.727 492.208 354.727C469.627 354.727 451.322 373.032 451.322 395.613C451.322 418.194 469.627 436.5 492.208 436.5Z" fill="#2CA677"/>
<path d="M491.704 387.335C491.22 384.96 496.082 381.033 497.707 380.178C503.637 377.073 512.744 379.415 515.995 385.345C520.603 393.766 514.333 404.407 506.325 412.425C498.423 420.337 485.852 419.116 478.164 410.997C470.888 403.314 464.115 393.437 467.831 385.849C474.763 371.694 489.993 378.891 491.704 387.335Z" fill="white"/>
</svg>
