<svg width="128" height="28" viewBox="0 0 128 28" fill="none" xmlns="http://www.w3.org/2000/svg">
<path d="M13.9746 17.4551V18.5098C13.9746 19.1309 14.127 19.6172 14.4316 19.9688C14.748 20.3086 15.3164 20.4785 16.1367 20.4785H17.9297V27H0.720703V20.4785C1.75195 20.4785 2.49023 20.3438 2.93555 20.0742C3.38086 19.793 3.60352 19.2715 3.60352 18.5098V9.61523C3.60352 8.8418 3.38086 8.32031 2.93555 8.05078C2.49023 7.76953 1.75195 7.62891 0.720703 7.62891V1.10742H19.6875C21.4219 1.10742 22.875 1.3125 24.0469 1.72266C25.2188 2.13281 26.1562 2.70703 26.8594 3.44531C27.5742 4.17188 28.0781 5.05664 28.3711 6.09961C28.6758 7.14258 28.8281 8.29102 28.8281 9.54492C28.8281 10.8105 28.6758 11.9297 28.3711 12.9023C28.0781 13.875 27.5742 14.707 26.8594 15.3984C26.1562 16.0781 25.2188 16.5938 24.0469 16.9453C22.875 17.2852 21.4219 17.4551 19.6875 17.4551H13.9746ZM13.9746 13.2891H15.873C16.8574 13.2891 17.5371 13.0312 17.9121 12.5156C18.2871 12 18.4746 11.3203 18.4746 10.4766C18.4746 9.67969 18.2871 9.00586 17.9121 8.45508C17.5371 7.9043 16.8574 7.62891 15.873 7.62891H13.9746V13.2891ZM39.7969 18.4043C39.8438 20.1504 40.1719 21.3574 40.7812 22.0254C41.4023 22.6816 42.2871 23.0098 43.4355 23.0098C43.8223 23.0098 44.1973 22.957 44.5605 22.8516C44.9355 22.7344 45.2812 22.5527 45.5977 22.3066C45.9141 22.0488 46.1836 21.7148 46.4062 21.3047C46.6406 20.8828 46.793 20.3555 46.8633 19.7227H53.2617C53.0273 21.2344 52.5938 22.5 51.9609 23.5195C51.3398 24.5391 50.5371 25.3652 49.5527 25.998C48.5684 26.6191 47.4199 27.0645 46.1074 27.334C44.8066 27.6152 43.3535 27.7559 41.748 27.7559C40.0957 27.7559 38.543 27.5449 37.0898 27.123C35.6367 26.7012 34.3594 26.0625 33.2578 25.207C32.168 24.3398 31.3125 23.2559 30.6914 21.9551C30.0703 20.6426 29.7598 19.084 29.7598 17.2793C29.7598 15.5566 30.0527 14.0449 30.6387 12.7441C31.2246 11.4434 32.0449 10.3594 33.0996 9.49219C34.166 8.61328 35.4199 7.95117 36.8613 7.50586C38.3145 7.06055 39.9082 6.83789 41.6426 6.83789C43.7754 6.83789 45.6094 7.11914 47.1445 7.68164C48.6797 8.24414 49.9336 9.0293 50.9062 10.0371C51.8789 11.0449 52.5938 12.2578 53.0508 13.6758C53.5078 15.0938 53.7246 16.6699 53.7012 18.4043H39.7969ZM42.3984 11.584C41.5781 11.584 40.9688 11.877 40.5703 12.4629C40.1836 13.0371 39.9258 13.9922 39.7969 15.3281H44.9473C44.877 14.1797 44.6309 13.2715 44.209 12.6035C43.7871 11.9238 43.1836 11.584 42.3984 11.584ZM67.4824 1.10742V7.62891H72.7383V14.1504H67.4824V19.5469C67.4824 20.3203 67.5879 20.9531 67.7988 21.4453C68.0215 21.9375 68.4727 22.1836 69.1523 22.1836C69.5273 22.1836 69.8262 22.1133 70.0488 21.9727C70.2832 21.8203 70.4648 21.627 70.5938 21.3926C70.7344 21.1465 70.8223 20.8711 70.8574 20.5664C70.8926 20.25 70.9102 19.9102 70.9102 19.5469V16.9277H72.9316V19.7578C72.9316 20.8945 72.8086 21.9551 72.5625 22.9395C72.3281 23.9238 71.918 24.7734 71.332 25.4883C70.7578 26.2031 69.9727 26.7715 68.9766 27.1934C67.9805 27.6152 66.7266 27.8262 65.2148 27.8262C63.5391 27.8262 62.2031 27.6211 61.207 27.2109C60.2109 26.8008 59.4551 26.2383 58.9395 25.5234C58.4238 24.8086 58.084 23.959 57.9199 22.9746C57.7676 21.9902 57.6914 20.918 57.6914 19.7578V14.1504H54.9316V8.34961C55.8105 8.34961 56.625 8.16211 57.375 7.78711C58.1367 7.40039 58.7871 6.87305 59.3262 6.20508C59.877 5.52539 60.2988 4.75195 60.5918 3.88477C60.8965 3.01758 61.0488 2.0918 61.0488 1.10742H67.4824ZM74.1973 14.0801C74.1973 11.8184 74.5664 9.83789 75.3047 8.13867C76.0547 6.42773 77.1094 4.99805 78.4688 3.84961C79.8281 2.70117 81.4395 1.83984 83.3027 1.26562C85.1777 0.691406 87.2461 0.404297 89.5078 0.404297C91.7578 0.404297 93.8203 0.691406 95.6953 1.26562C97.5703 1.83984 99.1816 2.70117 100.529 3.84961C101.889 4.99805 102.938 6.42773 103.676 8.13867C104.426 9.83789 104.801 11.8184 104.801 14.0801C104.801 16.3301 104.426 18.3105 103.676 20.0215C102.938 21.7207 101.889 23.1504 100.529 24.3105C99.1816 25.459 97.5703 26.3203 95.6953 26.8945C93.8203 27.4688 91.7578 27.7559 89.5078 27.7559C87.2461 27.7559 85.1777 27.4688 83.3027 26.8945C81.4395 26.3203 79.8281 25.459 78.4688 24.3105C77.1094 23.1504 76.0547 21.7207 75.3047 20.0215C74.5664 18.3105 74.1973 16.3301 74.1973 14.0801ZM86.0098 14.0801C86.0098 15.498 86.0625 16.6875 86.168 17.6484C86.2734 18.5977 86.4551 19.3711 86.7129 19.9688C86.9824 20.5547 87.3398 20.9824 87.7852 21.252C88.2305 21.5098 88.8047 21.6387 89.5078 21.6387C90.1758 21.6387 90.7383 21.5098 91.1953 21.252C91.6523 20.9824 92.0098 20.5547 92.2676 19.9688C92.5371 19.3711 92.7246 18.5977 92.8301 17.6484C92.9355 16.6875 92.9883 15.498 92.9883 14.0801C92.9883 12.6855 92.9355 11.502 92.8301 10.5293C92.7246 9.55664 92.5371 8.77734 92.2676 8.19141C92.0098 7.60547 91.6523 7.18359 91.1953 6.92578C90.7383 6.65625 90.1758 6.52148 89.5078 6.52148C88.8047 6.52148 88.2305 6.65625 87.7852 6.92578C87.3398 7.18359 86.9824 7.60547 86.7129 8.19141C86.4551 8.77734 86.2734 9.55664 86.168 10.5293C86.0625 11.502 86.0098 12.6855 86.0098 14.0801ZM127.107 14.0449H122.273C121.934 13.2012 121.406 12.5332 120.691 12.041C119.977 11.5488 119.232 11.3027 118.459 11.3027C117.932 11.3027 117.51 11.4023 117.193 11.6016C116.889 11.7891 116.736 12.0762 116.736 12.4629C116.736 12.9434 117.006 13.3066 117.545 13.5527C118.084 13.7871 118.758 13.998 119.566 14.1855C120.387 14.373 121.271 14.6016 122.221 14.8711C123.17 15.1289 124.049 15.5039 124.857 15.9961C125.678 16.4883 126.357 17.1504 126.896 17.9824C127.436 18.8145 127.705 19.9102 127.705 21.2695C127.705 22.3242 127.471 23.2441 127.002 24.0293C126.533 24.8145 125.889 25.459 125.068 25.9629C124.26 26.4668 123.305 26.8418 122.203 27.0879C121.102 27.3457 119.912 27.4746 118.635 27.4746C117.393 27.4746 116.215 27.3516 115.102 27.1055C114 26.8711 112.945 26.4668 111.938 25.8926L111.762 27.1055H107.121V20.0566H111.938C112.395 20.9941 112.969 21.7207 113.66 22.2363C114.363 22.752 115.137 23.0098 115.98 23.0098C116.625 23.0098 117.082 22.8926 117.352 22.6582C117.633 22.4121 117.773 22.1426 117.773 21.8496C117.773 21.3691 117.504 21 116.965 20.7422C116.426 20.4727 115.758 20.2383 114.961 20.0391C114.176 19.8281 113.309 19.5996 112.359 19.3535C111.41 19.0957 110.537 18.7266 109.74 18.2461C108.955 17.7656 108.293 17.1211 107.754 16.3125C107.215 15.4922 106.945 14.4199 106.945 13.0957C106.945 12.1465 107.156 11.2793 107.578 10.4941C108.012 9.70898 108.627 9.04688 109.424 8.50781C110.221 7.96875 111.158 7.55859 112.236 7.27734C113.314 6.98438 114.498 6.83789 115.787 6.83789C117.229 6.83789 118.523 7.00195 119.672 7.33008C120.832 7.64648 121.699 7.99805 122.273 8.38477L122.449 7.13672H127.107V14.0449Z" fill="#2CA677"/>
</svg>
