<svg width="203" height="174" viewBox="0 0 203 174" fill="none" xmlns="http://www.w3.org/2000/svg">
<path d="M198.741 170.218H5.24878" stroke="black" stroke-width="1.16509" stroke-miterlimit="10"/>
<path d="M43.9472 55.508C43.9472 55.508 32.3742 21.5819 72.741 25.7226C113.108 29.8632 93.8209 14.847 109.075 5.52839C124.328 -3.79019 169.272 25.2007 150.469 53.1629C131.666 81.125 180.518 55.5463 190.709 97.5961C196.998 123.545 181.396 142.645 168.524 153.471" stroke="#8ED49A" stroke-width="1.16509" stroke-miterlimit="10"/>
<path d="M172.461 121.051C169.427 103.647 158.686 88.0725 141.235 82.4984C136.771 81.0805 132.206 79.9948 127.579 79.2502V79.2737C127.338 80.7185 126.766 82.0896 125.908 83.2823C124.09 85.7509 121.583 87.7786 118.68 88.8351C115.718 89.9214 112.048 90.0619 109.298 88.3537C107.643 87.3271 106.037 85.5187 105.747 83.5677C105.415 81.3695 106.546 79.2886 108.137 77.8359C94.6529 77.9446 81.9684 80.1427 71.8036 82.6454C72.1559 84.1069 72.6439 85.5329 73.2613 86.9053C74.1252 88.8187 75.3463 90.5531 76.8602 92.0172C78.7484 90.164 80.4017 88.0898 81.7835 85.8403C83.1054 86.269 84.2709 87.0732 85.1351 88.1529C85.9994 89.2325 86.5243 90.54 86.6445 91.9129V91.9831C87.1777 96.9694 82.3318 100.716 78.2598 103.021C73.5558 105.7 68.3121 107.707 63.1609 109.374C61.0368 110.064 58.2763 110.652 56.034 109.932C55.7925 109.856 55.5568 109.763 55.3288 109.653C53.0929 108.567 51.5965 106.29 50.4291 104.209C47.1032 98.2985 44.9404 91.8554 43.4742 85.2418C33.2986 86.5305 32.1334 79.7039 31.5292 78.0298L22.8242 102.139C22.3676 103.872 22.3183 105.685 22.6798 107.44C23.0414 109.195 23.8044 110.845 24.91 112.262C26.0156 113.679 27.4345 114.826 29.0576 115.615C30.6806 116.404 32.4647 116.813 34.2725 116.812H70.3094L86.6789 158.41L91.3184 170.217H117.818C115.668 170.217 114.492 169.697 113.639 168.849C112.757 167.976 112.261 166.792 112.259 165.556C112.259 163 114.376 160.904 117.818 160.904H118.061C117.801 160.904 117.552 160.881 117.292 160.858C117.453 160.84 117.613 160.814 117.771 160.779C117.601 160.775 117.431 160.762 117.261 160.74C118.814 160.559 120.253 159.843 121.326 158.717C122.399 157.591 123.039 156.127 123.133 154.581C123.137 154.5 123.137 154.42 123.133 154.34V154.216C123.096 152.631 122.484 151.113 121.41 149.938C120.336 148.762 118.871 148.009 117.283 147.816C117.464 147.801 117.636 147.786 117.81 147.786C117.653 147.748 117.479 147.724 117.315 147.701C117.573 147.677 117.833 147.66 118.083 147.66L137.471 147.763L141.037 147.778H145.271C145.466 147.778 145.664 147.778 145.851 147.801L152.14 147.833L156.34 147.856C158.096 147.871 159.775 148.574 161.009 149.811C162.243 151.049 162.932 152.72 162.926 154.459C162.923 155.443 162.693 156.413 162.253 157.294C164.055 157.066 165.727 156.24 166.995 154.951C170.02 151.89 171.323 147.309 172.224 143.236C173.817 135.982 173.723 128.337 172.461 121.051ZM123.477 121.541C119.824 127.111 113.604 126.61 113.604 126.61C113.604 126.61 113.088 127.108 111.885 124.987C110.681 122.865 107.251 121.415 107.251 121.415C106.978 123.545 106.413 126.782 100.802 122.586C95.1904 118.39 96.8824 112.273 97.3618 109.042C97.8413 105.811 99.7525 104.74 99.7525 104.74L102.01 103.56C102.01 103.56 95.4806 101.896 95.1668 101.834C94.8529 101.772 89.0373 96.9481 94.9389 95.6744C100.84 94.4007 110.04 99.4657 111.818 100.467C113.596 101.468 123.986 110.175 123.986 110.175C123.986 110.175 127.149 115.979 123.477 121.541Z" fill="#1E4145"/>
<path d="M43.4656 85.2473C43.4656 85.2473 48.3867 84.6552 50.2292 81.1748L48.6232 90.1015C48.6232 90.1015 68.2004 83.4986 71.7907 82.6466C71.7907 82.6466 72.9474 90.0355 77.5525 92.0185L82.3038 86.0332C82.3038 86.0332 88.2612 87.5242 86.6316 95.567C85.002 103.61 62.4622 110.332 58.6397 110.176C54.8171 110.021 50.7022 107.691 46.4884 95.1687L43.4656 85.2473Z" fill="#1E4145"/>
<path d="M51.4826 65.3613C52.7296 67.372 53.983 69.3784 55.2773 71.3593C56.0749 72.5798 57.5282 74.3199 55.9824 75.5958C55.4794 75.9779 54.8717 76.2006 54.2388 76.2348C53.2456 76.3221 52.2029 76.0857 51.5987 75.2401L48.5889 70.2986C47.9889 69.313 47.0365 68.5874 45.921 68.2662C44.8055 67.9449 43.6088 68.0515 42.5691 68.5648" stroke="black" stroke-width="1.16509" stroke-miterlimit="10"/>
<path d="M62.8665 71.8706C63.6533 73.7237 63.1202 74.9186 62.2 75.5192C60.695 76.4969 58.6806 76.0283 57.6142 74.6012L51.4934 65.3721" stroke="black" stroke-width="1.16509" stroke-miterlimit="10"/>
<path d="M56.6639 62.6775C58.8912 65.3613 61.7012 70.3454 63.2555 72.4263C64.8099 74.5073 67.2135 73.2528 67.2135 73.2528C69.1657 72.2112 68.8346 70.4838 67.9811 68.3858C65.8784 63.2356 62.8772 59.8106 59.5297 57.5656C49.1564 50.6134 38.5143 55.7423 35.3475 67.7426L22.8242 102.139C22.3676 103.872 22.3183 105.686 22.6798 107.441C23.0414 109.196 23.8044 110.845 24.91 112.262C26.0156 113.679 27.4345 114.826 29.0576 115.615C30.6806 116.404 32.4647 116.814 34.2725 116.813H70.3094L91.3249 170.219" stroke="black" stroke-width="1.16509" stroke-miterlimit="10"/>
<path d="M69.5311 66.0244C72.111 65.1383 71.9927 61.0615 68.3314 59.6856C64.2874 58.1648 57.1067 56.0135 55.3029 55.4768C55.2918 55.4682 55.2783 55.463 55.2642 55.4619C55.1374 55.4235 55.0492 55.3916 54.9804 55.3767L54.8794 55.3447" stroke="black" stroke-width="1.16509" stroke-miterlimit="10"/>
<path d="M107.649 106.784C105.392 104.096 99.213 102.573 95.1798 101.836C94.5019 101.71 93.8838 101.369 93.4185 100.865C92.9532 100.36 92.6659 99.7199 92.5999 99.0397C92.5531 98.5808 92.6067 98.1174 92.7568 97.6808C92.9973 97.0105 93.4579 96.4396 94.0648 96.0595C94.6718 95.6795 95.39 95.5124 96.1043 95.5849C102.984 96.275 110.079 98.4199 115.327 103.04C115.327 103.04 140.767 122.273 143.804 124.146C145.058 124.9 146.227 124.009 145.378 122.825L145.112 122.373C143.616 119.831 141.847 117.457 139.834 115.293" stroke="black" stroke-width="1.16509" stroke-miterlimit="10"/>
<path d="M108.12 77.8345C76.125 78.0986 48.6233 90.0988 48.6233 90.0988L51.3687 74.8525" stroke="black" stroke-width="1.16509" stroke-miterlimit="10"/>
<path d="M157.813 160.812C157.813 160.812 154.328 160.03 153.402 162.795C152.475 165.56 151.507 169.958 158.17 170.218C164.833 170.478 160.92 169.181 160.535 167.044C160.15 164.908 157.813 160.812 157.813 160.812Z" fill="#1E4145"/>
<path d="M104.575 110.292C104.575 110.292 100.815 107.467 97.4286 110.33C97.2861 110.455 97.1616 110.598 97.0588 110.756" stroke="black" stroke-width="1.16509" stroke-miterlimit="10"/>
<g opacity="0.77">
<path d="M57.6013 74.59C58.6762 76.0192 60.6885 76.4857 62.187 75.5059C63.0965 74.9095 63.6296 73.721 62.8621 71.8849C63.0019 72.0873 63.1287 72.2662 63.2534 72.4302C64.8056 74.5197 67.2114 73.2609 67.2114 73.2609C69.1635 72.2193 68.8346 70.4919 67.9811 68.3918C67.1458 66.3117 66.0501 64.3438 64.7196 62.5344C65.5904 61.7271 66.6245 60.9114 67.7145 61.2692C68.8905 61.6569 69.2194 63.118 69.3527 64.3364C69.4151 64.9029 69.4774 65.4631 69.5398 66.0297L70.4814 74.3706C70.7953 77.1396 71.1092 79.949 71.7907 82.6519C72.143 84.1134 72.631 85.5394 73.2484 86.9118C74.1123 88.8252 75.3334 90.5596 76.8473 92.0237C78.7355 90.1705 80.3888 88.0963 81.7706 85.8468C83.0925 86.2755 84.258 87.0797 85.1223 88.1594C85.9865 89.239 86.5114 90.5466 86.6316 91.9194V91.9897C87.1648 96.9759 82.3189 100.723 78.2469 103.027C73.5429 105.707 68.2993 107.713 63.1481 109.381C61.0239 110.071 58.2634 110.659 56.0211 109.939C55.7796 109.863 55.5439 109.769 55.3159 109.66C53.08 108.574 51.5836 106.297 50.4162 104.216C44.8265 94.2581 42.5046 82.8244 41.2812 71.5015C43.7279 71.1671 46.1659 70.7944 48.5738 70.2811C48.5738 70.2811 48.5738 70.2981 48.5888 70.3045L51.3644 74.8648L51.5922 75.2439C52.1942 76.0959 53.2369 76.3238 54.2323 76.2386C54.8652 76.2076 55.4732 75.9845 55.9738 75.5996C57.5174 74.3216 56.0684 72.5878 55.2686 71.3674" fill="white"/>
<path d="M57.6013 74.59C58.6762 76.0192 60.6885 76.4857 62.187 75.5059C63.0965 74.9095 63.6296 73.721 62.8621 71.8849C63.0019 72.0873 63.1287 72.2662 63.2534 72.4302C64.8056 74.5197 67.2114 73.2609 67.2114 73.2609C69.1635 72.2193 68.8346 70.4919 67.9811 68.3918C67.1458 66.3117 66.0501 64.3438 64.7196 62.5344C65.5904 61.7271 66.6245 60.9114 67.7145 61.2692C68.8905 61.6569 69.2194 63.118 69.3527 64.3364C69.4151 64.9029 69.4774 65.4631 69.5398 66.0297L70.4814 74.3706C70.7953 77.1396 71.1092 79.949 71.7907 82.6519C72.143 84.1134 72.631 85.5394 73.2484 86.9118C74.1123 88.8252 75.3334 90.5596 76.8473 92.0237C78.7355 90.1705 80.3888 88.0963 81.7706 85.8468C83.0925 86.2755 84.258 87.0797 85.1223 88.1594C85.9865 89.239 86.5114 90.5466 86.6316 91.9194V91.9897C87.1648 96.9759 82.3189 100.723 78.2469 103.027C73.5429 105.707 68.2993 107.713 63.1481 109.381C61.0239 110.071 58.2634 110.659 56.0211 109.939C55.7796 109.863 55.5439 109.769 55.3159 109.66C53.08 108.574 51.5836 106.297 50.4162 104.216C44.8265 94.2581 42.5046 82.8244 41.2812 71.5015C43.7279 71.1671 46.1659 70.7944 48.5738 70.2811C48.5738 70.2811 48.5738 70.2981 48.5888 70.3045L51.3644 74.8648L51.5922 75.2439C52.1942 76.0959 53.2369 76.3238 54.2323 76.2386C54.8652 76.2076 55.4732 75.9845 55.9738 75.5996C57.5174 74.3216 56.0684 72.5878 55.2686 71.3674" fill="#2CA677"/>
<path d="M58.2615 75.2648C59.2139 76.5428 60.8414 76.3809 62.1872 75.5055C62.9999 74.973 63.6664 75.1285 62.9805 73.4863C63.1074 73.6652 63.1246 73.0603 63.2364 73.1945C64.6231 75.0603 63.2536 72.4234 63.2536 72.4234C65.1885 74.8452 69.4002 72.564 68.6284 70.6918C67.8114 68.6747 66.9514 65.6928 65.8614 64.2018C66.7214 63.3967 66.5558 63.5159 67.6501 64.1571C67.9442 64.3443 68.1902 64.5966 68.369 64.8942C68.5477 65.1917 68.6541 65.5264 68.68 65.8717C68.7681 66.6832 68.8563 67.4606 68.9444 68.253L69.7829 75.7078C70.0645 78.185 70.344 80.6877 70.9524 83.0988C71.267 84.4027 71.7032 85.6748 72.2553 86.8987C73.0249 88.5835 75.4973 91.3886 76.8475 92.673C78.5266 91.0223 80.5389 87.9871 81.7708 85.97C84.1357 86.6899 84.0325 88.9307 84.2002 91.378V91.4419C84.6775 95.8914 80.3519 99.2333 76.7271 101.293C72.5262 103.685 67.8458 105.474 63.2471 106.965C61.3509 107.583 58.8871 108.115 56.8855 107.463C56.6696 107.396 56.4591 107.313 56.2556 107.214C54.2605 106.243 52.9232 104.213 51.8805 102.354C47.3162 94.2321 45.1986 85.0115 44.0333 75.7675C43.9478 75.0758 44.1368 74.3783 44.5603 73.822C44.9838 73.2657 45.6089 72.8941 46.3036 72.7855C47.6129 72.5725 48.9179 72.3595 50.2143 72.0741L50.2509 72.0912L52.7276 76.1615C53.2672 76.9177 53.3554 76.3255 54.2433 76.2489C54.8044 76.1999 55.8923 76.0912 56.3265 75.7313C57.7046 74.5939 56.9264 74.1232 56.2126 73.0347" fill="#2CA677"/>
</g>
<path d="M104.121 114.403C104.121 114.403 96.9813 112.077 96.8738 115.988" stroke="black" stroke-width="1.16509" stroke-miterlimit="10"/>
<path opacity="0.54" d="M40.2105 154.24L26.2081 118.7C26.0346 118.012 26.0216 117.294 26.1701 116.601C26.3186 115.907 26.6247 115.257 27.0652 114.698C27.5056 114.139 28.0687 113.687 28.7119 113.376C29.355 113.066 30.0612 112.904 30.7767 112.904H86.395C87.6439 112.904 88.8565 113.32 89.8374 114.086C90.8183 114.852 91.5104 115.923 91.8021 117.126L107.131 152.658C107.297 153.343 107.303 154.057 107.151 154.745C106.998 155.434 106.69 156.079 106.249 156.632C105.809 157.186 105.247 157.633 104.607 157.941C103.967 158.249 103.265 158.409 102.554 158.409H45.6047C44.3651 158.41 43.1609 158 42.1835 157.244C41.2061 156.489 40.5117 155.432 40.2105 154.24Z" fill="white"/>
<path d="M106.445 120.399C106.445 120.399 107.604 121.451 107.163 122.955C106.837 124.069 105.719 124.772 104.611 124.391C101.086 123.183 97.9101 121.132 97.1361 117.645C96.7704 115.88 96.6912 114.068 96.9018 112.278C97.0716 110.618 97.3189 108.827 97.8822 107.249C98.7421 104.825 101.376 103.136 103.932 104.303" stroke="black" stroke-width="1.16509" stroke-miterlimit="10"/>
<path d="M40.2105 154.24L26.2081 118.7C26.0346 118.012 26.0216 117.294 26.1701 116.601C26.3186 115.907 26.6247 115.257 27.0652 114.698C27.5056 114.139 28.0687 113.687 28.7119 113.376C29.355 113.066 30.0612 112.904 30.7767 112.904H86.395C87.6439 112.904 88.8565 113.32 89.8374 114.086C90.8183 114.852 91.5104 115.923 91.8021 117.126L107.131 152.658C107.297 153.343 107.303 154.057 107.151 154.745C106.998 155.434 106.69 156.079 106.249 156.632C105.809 157.186 105.247 157.633 104.607 157.941C103.967 158.249 103.265 158.409 102.554 158.409H45.6047C44.3651 158.41 43.1609 158 42.1835 157.244C41.2061 156.489 40.5117 155.432 40.2105 154.24Z" fill="#2CA677"/>
<path d="M40.2105 154.24L26.2081 118.7C26.0346 118.012 26.0216 117.294 26.1701 116.601C26.3186 115.907 26.6247 115.257 27.0652 114.698C27.5056 114.139 28.0687 113.687 28.7119 113.376C29.355 113.066 30.0612 112.904 30.7767 112.904H86.395C87.6439 112.904 88.8565 113.32 89.8374 114.086C90.8183 114.852 91.5104 115.923 91.8021 117.126L107.131 152.658C107.297 153.343 107.303 154.057 107.151 154.745C106.998 155.434 106.69 156.079 106.249 156.632C105.809 157.186 105.247 157.633 104.607 157.941C103.967 158.249 103.265 158.409 102.554 158.409H45.6047C44.3651 158.41 43.1609 158 42.1835 157.244C41.2061 156.489 40.5117 155.432 40.2105 154.24Z" stroke="black" stroke-width="1.16509" stroke-linecap="square" stroke-linejoin="round"/>
<path d="M42.2596 152.809L29.3408 120.007C29.1811 119.373 29.1694 118.711 29.3066 118.071C29.4438 117.431 29.7264 116.831 30.1327 116.316C30.5391 115.8 31.0587 115.383 31.652 115.097C32.2453 114.81 32.8967 114.661 33.5568 114.661H84.8667C86.0187 114.661 87.1373 115.045 88.0422 115.751C88.947 116.457 89.5854 117.445 89.8545 118.555L103.999 151.337C104.151 151.969 104.157 152.628 104.016 153.263C103.875 153.898 103.591 154.493 103.184 155.004C102.778 155.515 102.26 155.927 101.669 156.211C101.078 156.495 100.431 156.643 99.7742 156.643H47.2345C46.0928 156.644 44.9835 156.267 44.0823 155.572C43.1811 154.878 42.5397 153.905 42.2596 152.809Z" fill="#2CA677"/>
<path d="M152.071 147.663L161.909 170.217" stroke="black" stroke-width="1.16509" stroke-miterlimit="10"/>
<path d="M107.234 68.4219C105.639 69.9831 103.257 69.981 101.9 68.5369" stroke="black" stroke-width="1.16509" stroke-miterlimit="10"/>
<path d="M64.7197 62.5285C65.5904 61.7213 66.6246 60.9055 67.7146 61.2633C68.8906 61.651 69.2195 63.1122 69.3528 64.3305C69.7298 67.6788 70.106 71.0235 70.4815 74.3648C70.9588 78.6247 71.4619 82.9868 73.2484 86.9017C74.1124 88.8151 75.3335 90.5494 76.8474 92.0136" stroke="black" stroke-width="1.16509" stroke-miterlimit="10"/>
<path d="M86.6319 91.9875V91.9173C86.5116 90.5444 85.9868 89.2369 85.1225 88.1573C84.2583 87.0776 83.0928 86.2734 81.7709 85.8447C80.3891 88.0941 78.7358 90.1684 76.8476 92.0216C71.897 96.8984 65.5374 100.128 58.6507 101.264C58.9818 102.569 59.6633 103.758 60.1341 105.014C60.605 106.271 60.8393 107.726 60.2674 108.938C59.5451 110.484 57.4725 110.282 56.0321 109.939C56.0171 109.939 56.0085 109.939 55.9934 109.939" stroke="black" stroke-width="1.16509" stroke-miterlimit="10"/>
<path d="M48.5782 70.2793C46.1703 70.7926 43.7322 71.1654 41.2856 71.4998C42.5089 82.8227 44.8223 94.2563 50.4206 104.214C51.588 106.295 53.0844 108.572 55.3203 109.658C55.5483 109.768 55.784 109.861 56.0255 109.937C58.2678 110.668 61.0283 110.069 63.1524 109.379C68.3122 107.709 73.5473 105.705 78.2513 103.025C82.3125 100.719 87.1584 96.9741 86.636 91.9879C86.5854 91.4388 86.4722 90.8972 86.2984 90.3734" stroke="black" stroke-width="1.16509" stroke-miterlimit="10"/>
<path d="M88.8418 47.6928C89.2024 49.1833 90.0261 50.524 91.1968 51.5259C92.3674 52.5279 93.826 53.1406 95.3668 53.2776C95.4947 52.6627 95.7722 52.088 96.1752 51.6035C97.8951 49.5949 98.6282 53.3628 104.13 50.6578C111.753 46.9005 114.647 49.056 114.647 49.056C114.901 49.2435 114.862 50.973 114.905 51.2882C115.12 53.0838 115.314 54.8708 115.527 56.6642C115.656 57.759 115.782 58.8453 115.903 59.9316C116.007 59.7468 116.121 59.5682 116.247 59.397C116.941 56.9624 118.182 54.087 120.856 55.3245C121.398 55.5861 121.869 55.9707 122.232 56.447C124.006 58.7559 122.662 60.9859 120.807 62.6367C120.342 63.1487 119.822 63.6094 119.257 64.0105C119.562 64.6367 120.809 67.1224 120.809 67.1309C120.938 67.3822 125.296 62.4961 125.62 61.9636C126.105 60.6591 126.366 59.2832 126.39 57.8932C126.461 52.1785 124.113 45.5267 119.442 42.2487C118.283 41.4371 118.653 40.6554 118.582 39.5521C118.577 39.4925 118.554 39.4357 118.515 39.3893C118.477 39.3429 118.426 39.3091 118.368 39.2922C118.31 39.2754 118.248 39.2764 118.191 39.295C118.133 39.3136 118.083 39.3491 118.046 39.3966C116.582 41.0665 112.957 40.9004 112.957 40.9004C100.376 37.7779 96.1472 43.32 93.6082 44.3083C92.5722 44.6972 91.4318 44.716 90.3833 44.3616C90.3216 44.7055 90.1662 45.0261 89.9339 45.2889C89.7016 45.5517 89.4013 45.7466 89.0654 45.8526L89.1299 46.4298C89.1846 46.8712 89.0828 47.3177 88.8418 47.6928Z" fill="#2CA677"/>
<path d="M95.3756 53.2865C93.8348 53.1494 92.3762 52.5368 91.2056 51.5348C90.0349 50.5328 89.2112 49.1921 88.8506 47.7017C88.7094 47.13 88.6202 46.5469 88.584 45.9594L88.6829 45.9487C88.8181 45.9387 88.9513 45.9101 89.0785 45.8636C89.4144 45.7576 89.7147 45.5627 89.947 45.2999C90.1793 45.0371 90.3346 44.7165 90.3964 44.3726C90.4357 44.182 90.4437 43.9863 90.42 43.7932L90.0975 40.9732C90.0975 40.9732 92.3721 42.6494 94.8961 41.6697C97.4201 40.6899 101.658 35.1477 114.245 38.2617C114.245 38.2617 117.088 38.4278 118.545 36.758C118.582 36.7104 118.632 36.675 118.69 36.6563C118.747 36.6377 118.809 36.6367 118.867 36.6536C118.925 36.6704 118.976 36.7042 119.014 36.7506C119.053 36.797 119.076 36.8538 119.081 36.9134C119.156 38.0189 119.569 38.8006 120.73 39.61C125.401 42.8901 127.749 49.5399 127.676 55.2546C127.654 57.6252 126.859 59.966 125.631 61.9746C125.307 62.5071 120.949 67.3932 120.82 67.1419C120.82 67.1419 119.573 64.6477 119.268 64.0215L119.194 63.883L119.334 63.7915C119.853 63.4424 120.349 63.0604 120.818 62.6477C122.671 60.9969 124.017 58.7669 122.243 56.458C121.88 55.9817 121.409 55.5971 120.867 55.3355C118.184 54.098 116.952 56.9734 116.258 59.408C116.123 59.8733 116.04 60.3518 116.01 60.8351C115.978 60.5369 115.946 60.2493 115.914 59.9511C115.793 58.8648 115.666 57.7786 115.537 56.6838C115.322 54.8903 115.12 53.1033 114.916 51.3077C114.884 51.001 114.916 49.263 114.658 49.0755C114.658 49.0755 111.762 46.92 104.141 50.6773C98.6391 53.3823 97.906 49.6123 96.1861 51.623C95.7831 52.1075 95.5056 52.6822 95.3777 53.2971C95.3384 53.4946 95.3133 53.6946 95.3025 53.8956C95.2984 53.9218 95.2984 53.9483 95.3025 53.9745C95.2767 54.4154 95.2681 54.8541 95.2573 55.2844C95.2165 59.4357 95.6766 63.7723 97.3212 67.6275C99.3207 72.3007 104.612 76.9099 110.113 74.7309C111.833 74.0472 113.375 72.946 114.785 71.7767" stroke="black" stroke-width="1.16509" stroke-miterlimit="10"/>
<path d="M99.1403 63.4112C99.6875 63.2298 99.9516 62.551 99.73 61.895C99.5085 61.2391 98.8853 60.8544 98.338 61.0358C97.7908 61.2172 97.5268 61.896 97.7483 62.552C97.9698 63.2079 98.593 63.5926 99.1403 63.4112Z" fill="black"/>
<path d="M107.326 63.1524C107.873 62.971 108.137 62.2922 107.916 61.6362C107.694 60.9803 107.071 60.5956 106.524 60.777C105.977 60.9584 105.713 61.6372 105.934 62.2932C106.156 62.9491 106.779 63.3338 107.326 63.1524Z" fill="black"/>
<path d="M104.197 64.5558C104.197 64.5558 101.473 66.0872 101.307 64.4983C101.256 64.0084 100.589 59.2096 100.589 59.2096C100.589 59.2096 98.3876 56.8986 95.0144 58.6068" stroke="black" stroke-width="1.16509" stroke-miterlimit="10"/>
<path d="M103.584 57.8661C103.584 57.8661 107.983 55.6893 110.894 58.8267" stroke="black" stroke-width="1.16509" stroke-miterlimit="10"/>
<path d="M107.617 75.2656L108.122 77.8344C106.529 79.2891 105.403 81.3744 105.732 83.5703C106.024 85.5171 107.632 87.3297 109.281 88.35C112.037 90.054 115.703 89.9198 118.67 88.8356C121.57 87.7706 124.079 85.7493 125.898 83.2828C126.754 82.0904 127.325 80.7202 127.566 79.2763V79.2508" stroke="black" stroke-width="1.16509" stroke-miterlimit="10"/>
<path d="M108.122 77.835L109.107 82.474" stroke="black" stroke-width="1.16509" stroke-miterlimit="10"/>
<path d="M122.047 66.0234L123.535 75.8106C123.682 76.7687 124.171 77.6428 124.913 78.2741C125.655 78.9053 126.601 79.2518 127.579 79.2505C132.209 79.9939 136.777 81.079 141.244 82.4966C158.695 88.0728 169.436 103.647 172.469 121.049C173.731 128.336 173.826 135.978 172.241 143.224C171.34 147.303 170.038 151.884 167.013 154.939C163.085 158.922 157.056 157.282 152.415 155.482C138.004 149.929 126.018 140.05 115.668 128.74C110.135 122.691 102.984 117.843 102.984 117.843" stroke="black" stroke-width="1.16509" stroke-miterlimit="10"/>
<path d="M47.0218 145.467C45.405 145.452 43.9968 144.159 43.6335 142.359C42.9154 138.819 42.7262 133.345 47.9656 132.15C54.5121 130.659 59.5472 137.722 62.0153 142.187C62.8452 143.678 61.9057 145.595 60.3599 145.595L47.0218 145.467Z" fill="#8ED49A"/>
<path d="M49.1829 129.146C50.5728 128.23 50.5941 125.841 49.2306 123.811C47.867 121.781 45.635 120.878 44.2451 121.794C42.8552 122.71 42.8339 125.099 44.1974 127.129C45.561 129.159 47.7931 130.062 49.1829 129.146Z" fill="#8ED49A"/>
<path d="M156.768 160.929C156.667 160.944 156.553 160.958 156.455 160.982H156.416L141.123 160.903L118.177 160.786C118.089 160.786 118.003 160.786 117.917 160.786C117.747 160.782 117.577 160.769 117.408 160.748C118.962 160.569 120.403 159.852 121.477 158.724C122.551 157.596 123.189 156.129 123.279 154.581C123.283 154.501 123.283 154.421 123.279 154.341V154.217C123.273 152.702 122.74 151.236 121.771 150.065C120.801 148.894 119.454 148.089 117.956 147.787C117.799 147.748 117.627 147.725 117.461 147.702C117.722 147.678 117.98 147.661 118.231 147.661L137.617 147.763L141.186 147.778L145.999 147.802C147.648 147.951 149.18 148.703 150.298 149.913C151.416 151.122 152.038 152.701 152.043 154.341C152.043 154.65 152.019 154.959 151.972 155.265C151.743 156.826 150.956 158.254 149.754 159.288C148.552 160.323 147.015 160.896 145.423 160.903H157.072C156.401 160.903 156.588 160.903 156.768 160.929Z" fill="white"/>
<path d="M125.749 168.849C126.186 169.284 126.706 169.629 127.278 169.864C127.85 170.099 128.464 170.219 129.084 170.216H117.822C115.673 170.216 114.499 169.697 113.643 168.849C112.764 167.974 112.268 166.791 112.265 165.556C112.265 163 114.38 160.904 117.822 160.904H129.084C128.154 160.903 127.245 161.175 126.471 161.686C125.698 162.197 125.095 162.924 124.739 163.775C124.383 164.626 124.29 165.562 124.472 166.466C124.653 167.369 125.102 168.198 125.76 168.849H125.749Z" fill="#8ED49A"/>
<path d="M162.941 154.458C162.938 155.442 162.707 156.412 162.266 157.293C161.951 157.959 161.518 158.564 160.989 159.08C160.116 159.937 159.019 160.537 157.822 160.812C157.328 160.924 156.823 160.982 156.317 160.982C156.42 160.959 156.532 160.944 156.631 160.929C156.45 160.912 156.263 160.905 156.936 160.905H145.286C146.879 160.899 148.417 160.326 149.62 159.291C150.822 158.256 151.61 156.827 151.839 155.265C151.886 154.959 151.91 154.65 151.91 154.341C151.905 152.701 151.282 151.122 150.164 149.912C149.046 148.703 147.513 147.95 145.864 147.802L152.152 147.834L156.353 147.857C158.109 147.872 159.787 148.574 161.022 149.811C162.256 151.048 162.946 152.719 162.941 154.458Z" fill="#2CA677"/>
<path d="M162.941 154.456C162.928 156.196 162.219 157.86 160.97 159.084C159.721 160.307 158.033 160.991 156.276 160.984L118.025 160.788C117.769 160.788 117.513 160.769 117.255 160.743C118.868 160.562 120.357 159.802 121.441 158.605C122.525 157.409 123.129 155.86 123.137 154.253C123.145 152.645 122.558 151.09 121.487 149.883C120.416 148.675 118.934 147.899 117.324 147.701C117.58 147.675 117.837 147.662 118.094 147.663L156.345 147.859C158.101 147.871 159.782 148.572 161.018 149.808C162.254 151.044 162.945 152.715 162.941 154.456Z" stroke="black" stroke-width="1.16509" stroke-linecap="square" stroke-linejoin="round"/>
<path d="M151.905 154.339C151.902 156.079 151.203 157.746 149.961 158.977C148.719 160.207 147.035 160.9 145.279 160.903H118.063C117.806 160.902 117.549 160.887 117.294 160.861C118.905 160.671 120.39 159.903 121.468 158.701C122.545 157.499 123.14 155.947 123.14 154.34C123.14 152.732 122.545 151.18 121.468 149.979C120.39 148.777 118.905 148.008 117.294 147.819C117.55 147.795 117.808 147.778 118.063 147.778H145.279C147.035 147.782 148.717 148.475 149.959 149.704C151.2 150.933 151.9 152.6 151.905 154.339Z" stroke="black" stroke-width="1.16509" stroke-linecap="square" stroke-linejoin="round"/>
<path d="M112.265 165.559C112.265 166.169 112.386 166.774 112.622 167.339C112.858 167.903 113.204 168.416 113.641 168.847C114.501 169.699 115.668 170.217 117.82 170.217H156.934C156.261 170.217 156.444 170.204 156.626 170.187C155.482 170.054 154.427 169.509 153.661 168.655C152.895 167.802 152.472 166.7 152.472 165.559C152.472 164.417 152.895 163.315 153.661 162.462C154.427 161.609 155.482 161.064 156.626 160.93C156.444 160.913 156.261 160.9 156.934 160.9H117.82C114.376 160.903 112.265 162.998 112.265 165.559Z" stroke="black" stroke-width="1.16509" stroke-linecap="square" stroke-linejoin="round"/>
<path d="M124.369 165.559C124.372 166.793 124.869 167.976 125.75 168.849C126.631 169.722 127.825 170.214 129.071 170.217H156.081C156.261 170.217 156.444 170.204 156.627 170.187C155.482 170.054 154.427 169.509 153.661 168.655C152.896 167.802 152.473 166.7 152.473 165.559C152.473 164.417 152.896 163.315 153.661 162.462C154.427 161.609 155.482 161.064 156.627 160.93C156.444 160.913 156.261 160.9 156.081 160.9H129.071C127.825 160.904 126.631 161.396 125.75 162.268C124.869 163.141 124.373 164.324 124.369 165.559Z" stroke="black" stroke-width="1.16509" stroke-linecap="square" stroke-linejoin="round"/>
<path d="M80.5861 130.018H68.5208C67.9687 130.017 67.4289 129.857 66.9671 129.558C66.5052 129.258 66.1412 128.832 65.9194 128.331C65.8337 128.145 65.7971 127.94 65.8129 127.736C65.8287 127.531 65.8964 127.334 66.0097 127.163C66.123 126.992 66.2782 126.852 66.4609 126.756C66.6436 126.66 66.8478 126.611 67.0545 126.614H79.8809C79.2768 127.622 79.5842 129.021 80.5861 130.018Z" fill="#8ED49A"/>
<path d="M88.3882 128.787C88.3876 129.113 88.2567 129.425 88.0242 129.656C87.7917 129.886 87.4765 130.016 87.1477 130.016H80.5861C79.5843 129.022 79.2768 127.622 79.881 126.608H85.675C86.2263 126.609 86.7658 126.767 87.228 127.065C87.6901 127.363 88.0551 127.787 88.2785 128.287C88.3479 128.445 88.3852 128.615 88.3882 128.787Z" fill="#2CA677"/>
<path d="M85.3697 130.018C85.3357 130.083 85.2961 130.145 85.2514 130.204C84.3915 131.369 82.5232 131.482 81.072 130.429C80.9004 130.304 80.738 130.167 80.5861 130.018C79.5843 129.024 79.2768 127.624 79.881 126.61C79.9149 126.545 79.9545 126.483 79.9992 126.425C80.8592 125.252 82.7188 125.147 84.17 126.191C84.3447 126.32 84.5093 126.463 84.6624 126.617C85.6556 127.607 85.9652 128.998 85.3697 130.018Z" fill="white"/>
<path d="M91.4217 136.29C91.4194 136.617 91.2871 136.929 91.0535 137.158C90.8199 137.388 90.504 137.517 90.1748 137.517H77.5139C78.1245 136.499 77.8192 135.11 76.8152 134.109H88.7085C89.2607 134.11 89.801 134.269 90.2633 134.568C90.7256 134.867 91.09 135.293 91.3121 135.794C91.3829 135.95 91.4203 136.119 91.4217 136.29Z" fill="#2CA677"/>
<path d="M77.5136 137.518H71.5562C71.0047 137.518 70.465 137.36 70.0028 137.062C69.5405 136.764 69.1757 136.339 68.9527 135.839C68.8824 135.683 68.8451 135.514 68.843 135.343C68.8427 135.182 68.8746 135.022 68.9367 134.873C68.9988 134.724 69.09 134.589 69.2051 134.475C69.3201 134.361 69.4568 134.271 69.6071 134.209C69.7575 134.147 69.9187 134.116 70.0814 134.116H76.8149C77.8189 135.111 78.1307 136.5 77.5136 137.518Z" fill="#8ED49A"/>
<path d="M77.5137 137.518C77.4857 137.585 77.4489 137.648 77.4041 137.706C76.5441 138.877 74.6823 138.984 73.2332 137.938C73.0579 137.809 72.8926 137.666 72.7388 137.512C71.7434 136.517 71.4381 135.129 72.0336 134.104C72.068 134.039 72.1075 133.976 72.1518 133.917C73.0118 132.752 74.8801 132.639 76.3291 133.693C76.5017 133.817 76.6641 133.955 76.815 134.104C77.819 135.112 78.1308 136.5 77.5137 137.518Z" fill="white"/>
<path d="M81.732 144.966H74.1514C73.6002 144.965 73.0609 144.807 72.5989 144.509C72.1368 144.211 71.7718 143.787 71.5479 143.288C71.4625 143.101 71.4262 142.895 71.4422 142.691C71.4581 142.486 71.526 142.289 71.6393 142.117C71.7527 141.945 71.908 141.805 72.0908 141.708C72.2736 141.611 72.478 141.562 72.6852 141.565H81.0268C80.4292 142.585 80.7366 143.971 81.732 144.966Z" fill="#2CA677"/>
<path d="M94.0168 143.748C94.0151 144.072 93.8838 144.382 93.6517 144.611C93.4195 144.839 93.1055 144.967 92.7784 144.967H81.7321C80.7367 143.972 80.4293 142.583 81.027 141.559H91.3036C91.8558 141.559 92.396 141.718 92.8583 142.017C93.3207 142.316 93.6851 142.743 93.9071 143.243C93.978 143.403 94.0153 143.574 94.0168 143.748Z" fill="#8ED49A"/>
<path d="M86.5158 144.966C86.4813 145.032 86.4418 145.095 86.3975 145.154C85.5375 146.325 83.6779 146.432 82.2267 145.386C82.0524 145.256 81.8879 145.114 81.7343 144.96C80.7389 143.965 80.4315 142.577 81.0292 141.552C81.062 141.486 81.1009 141.424 81.1453 141.365C82.0052 140.2 83.8735 140.099 85.3247 141.141C85.4972 141.265 85.6597 141.403 85.8106 141.552C86.8124 142.56 87.1177 143.957 86.5158 144.966Z" fill="white"/>
<path d="M29.2439 77.0615L29.4334 77.1149L29.3623 77.3879C29.3173 77.2812 29.2778 77.1722 29.2439 77.0615Z" fill="#1E4145"/>
<path d="M62.8894 94.1009C65.7194 93.2778 67.2064 89.8867 66.2108 86.5265C65.2151 83.1663 62.1138 81.1095 59.2838 81.9326C56.4538 82.7556 54.9668 86.1468 55.9625 89.507C56.9581 92.8672 60.0594 94.924 62.8894 94.1009Z" fill="#8ED49A"/>
</svg>
